<?xml version="1.0" encoding="UTF-8" standalone="no"?>
<!DOCTYPE svg PUBLIC "-//W3C//DTD SVG 1.1//EN"
 "http://www.w3.org/Graphics/SVG/1.1/DTD/svg11.dtd">
<!-- Generated by graphviz version 2.47.3 (20210619.1520)
 -->
<!-- Title: dependencies Pages: 1 -->
<svg width="388pt" height="174pt"
 viewBox="0.00 0.00 388.00 173.80" xmlns="http://www.w3.org/2000/svg" xmlns:xlink="http://www.w3.org/1999/xlink">
<g id="graph0" class="graph" transform="scale(1 1) rotate(0) translate(4 169.8)">
<title>dependencies</title>
<polygon fill="white" stroke="transparent" points="-4,4 -4,-169.8 384,-169.8 384,4 -4,4"/>
<text text-anchor="middle" x="190" y="-8.2" font-family="sans-serif" font-size="14.00">dependencies</text>
<g id="clust1" class="cluster">
<title>cluster_TrailDetailsPageModule</title>
<polygon fill="none" stroke="black" stroke-dasharray="1,5" points="8,-32.8 8,-157.8 372,-157.8 372,-32.8 8,-32.8"/>
</g>
<g id="clust2" class="cluster">
<title>cluster_TrailDetailsPageModule_declarations</title>
<polygon fill="none" stroke="black" points="238,-40.8 238,-92.8 364,-92.8 364,-40.8 238,-40.8"/>
</g>
<g id="clust4" class="cluster">
<title>cluster_TrailDetailsPageModule_imports</title>
<polygon fill="none" stroke="black" points="16,-40.8 16,-92.8 230,-92.8 230,-40.8 16,-40.8"/>
</g>
<!-- TrailDetailsPage -->
<g id="node1" class="node">
<title>TrailDetailsPage</title>
<polygon fill="#ffffb3" stroke="black" points="356.07,-84.8 245.93,-84.8 245.93,-48.8 356.07,-48.8 356.07,-84.8"/>
<text text-anchor="middle" x="301" y="-62.6" font-family="Times,serif" font-size="14.00">TrailDetailsPage</text>
</g>
<!-- TrailDetailsPageModule -->
<g id="node2" class="node">
<title>TrailDetailsPageModule</title>
<polygon fill="#8dd3c7" stroke="black" points="281.62,-149.8 278.62,-153.8 257.62,-153.8 254.62,-149.8 128.38,-149.8 128.38,-113.8 281.62,-113.8 281.62,-149.8"/>
<text text-anchor="middle" x="205" y="-127.6" font-family="Times,serif" font-size="14.00">TrailDetailsPageModule</text>
</g>
<!-- TrailDetailsPage&#45;&gt;TrailDetailsPageModule -->
<g id="edge1" class="edge">
<title>TrailDetailsPage&#45;&gt;TrailDetailsPageModule</title>
<path fill="none" stroke="black" d="M263.89,-84.91C263.89,-84.91 263.89,-103.79 263.89,-103.79"/>
<polygon fill="black" stroke="black" points="260.39,-103.79 263.89,-113.79 267.39,-103.79 260.39,-103.79"/>
</g>
<!-- TrailDetailsPageRoutingModule -->
<g id="node3" class="node">
<title>TrailDetailsPageRoutingModule</title>
<polygon fill="#8dd3c7" stroke="black" points="222.24,-84.8 219.24,-88.8 198.24,-88.8 195.24,-84.8 23.76,-84.8 23.76,-48.8 222.24,-48.8 222.24,-84.8"/>
<text text-anchor="middle" x="123" y="-62.6" font-family="Times,serif" font-size="14.00">TrailDetailsPageRoutingModule</text>
</g>
<!-- TrailDetailsPageRoutingModule&#45;&gt;TrailDetailsPageModule -->
<g id="edge2" class="edge">
<title>TrailDetailsPageRoutingModule&#45;&gt;TrailDetailsPageModule</title>
<path fill="none" stroke="black" d="M175.28,-84.91C175.28,-84.91 175.28,-103.79 175.28,-103.79"/>
<polygon fill="black" stroke="black" points="171.78,-103.79 175.28,-113.79 178.78,-103.79 171.78,-103.79"/>
</g>
</g>
</svg>
