<?xml version="1.0" encoding="UTF-8" standalone="no"?>
<!DOCTYPE svg PUBLIC "-//W3C//DTD SVG 1.1//EN"
 "http://www.w3.org/Graphics/SVG/1.1/DTD/svg11.dtd">
<!-- Generated by graphviz version 2.47.3 (20210619.1520)
 -->
<!-- Title: dependencies Pages: 1 -->
<svg width="572pt" height="174pt"
 viewBox="0.00 0.00 572.00 173.80" xmlns="http://www.w3.org/2000/svg" xmlns:xlink="http://www.w3.org/1999/xlink">
<g id="graph0" class="graph" transform="scale(1 1) rotate(0) translate(4 169.8)">
<title>dependencies</title>
<polygon fill="white" stroke="transparent" points="-4,4 -4,-169.8 568,-169.8 568,4 -4,4"/>
<text text-anchor="middle" x="282" y="-8.2" font-family="sans-serif" font-size="14.00">dependencies</text>
<g id="clust1" class="cluster">
<title>cluster_TrailDetailsPageModule</title>
<polygon fill="none" stroke="black" stroke-dasharray="1,5" points="8,-32.8 8,-157.8 556,-157.8 556,-32.8 8,-32.8"/>
</g>
<g id="clust5" class="cluster">
<title>cluster_TrailDetailsPageModule_imports</title>
<polygon fill="none" stroke="black" points="334,-40.8 334,-92.8 548,-92.8 548,-40.8 334,-40.8"/>
</g>
<g id="clust2" class="cluster">
<title>cluster_TrailDetailsPageModule_declarations</title>
<polygon fill="none" stroke="black" points="16,-40.8 16,-92.8 326,-92.8 326,-40.8 16,-40.8"/>
</g>
<!-- SavedTrailcardComponent -->
<g id="node1" class="node">
<title>SavedTrailcardComponent</title>
<polygon fill="#ffffb3" stroke="black" points="318.34,-84.8 151.66,-84.8 151.66,-48.8 318.34,-48.8 318.34,-84.8"/>
<text text-anchor="middle" x="235" y="-62.6" font-family="Times,serif" font-size="14.00">SavedTrailcardComponent</text>
</g>
<!-- TrailDetailsPageModule -->
<g id="node3" class="node">
<title>TrailDetailsPageModule</title>
<polygon fill="#8dd3c7" stroke="black" points="311.62,-149.8 308.62,-153.8 287.62,-153.8 284.62,-149.8 158.38,-149.8 158.38,-113.8 311.62,-113.8 311.62,-149.8"/>
<text text-anchor="middle" x="235" y="-127.6" font-family="Times,serif" font-size="14.00">TrailDetailsPageModule</text>
</g>
<!-- SavedTrailcardComponent&#45;&gt;TrailDetailsPageModule -->
<g id="edge1" class="edge">
<title>SavedTrailcardComponent&#45;&gt;TrailDetailsPageModule</title>
<path fill="none" stroke="black" d="M235,-84.91C235,-84.91 235,-103.79 235,-103.79"/>
<polygon fill="black" stroke="black" points="231.5,-103.79 235,-113.79 238.5,-103.79 231.5,-103.79"/>
</g>
<!-- TrailDetailsPage -->
<g id="node2" class="node">
<title>TrailDetailsPage</title>
<polygon fill="#ffffb3" stroke="black" points="134.07,-84.8 23.93,-84.8 23.93,-48.8 134.07,-48.8 134.07,-84.8"/>
<text text-anchor="middle" x="79" y="-62.6" font-family="Times,serif" font-size="14.00">TrailDetailsPage</text>
</g>
<!-- TrailDetailsPage&#45;&gt;TrailDetailsPageModule -->
<g id="edge2" class="edge">
<title>TrailDetailsPage&#45;&gt;TrailDetailsPageModule</title>
<path fill="none" stroke="black" d="M79,-84.91C79,-104.14 79,-131.8 79,-131.8 79,-131.8 148.37,-131.8 148.37,-131.8"/>
<polygon fill="black" stroke="black" points="148.37,-135.3 158.37,-131.8 148.37,-128.3 148.37,-135.3"/>
</g>
<!-- TrailDetailsPageRoutingModule -->
<g id="node4" class="node">
<title>TrailDetailsPageRoutingModule</title>
<polygon fill="#8dd3c7" stroke="black" points="540.24,-84.8 537.24,-88.8 516.24,-88.8 513.24,-84.8 341.76,-84.8 341.76,-48.8 540.24,-48.8 540.24,-84.8"/>
<text text-anchor="middle" x="441" y="-62.6" font-family="Times,serif" font-size="14.00">TrailDetailsPageRoutingModule</text>
</g>
<!-- TrailDetailsPageRoutingModule&#45;&gt;TrailDetailsPageModule -->
<g id="edge3" class="edge">
<title>TrailDetailsPageRoutingModule&#45;&gt;TrailDetailsPageModule</title>
<path fill="none" stroke="black" d="M441,-84.91C441,-104.14 441,-131.8 441,-131.8 441,-131.8 321.71,-131.8 321.71,-131.8"/>
<polygon fill="black" stroke="black" points="321.71,-128.3 311.71,-131.8 321.71,-135.3 321.71,-128.3"/>
</g>
</g>
</svg>
