<?xml version="1.0" encoding="UTF-8" standalone="no"?>
<!DOCTYPE svg PUBLIC "-//W3C//DTD SVG 1.1//EN"
 "http://www.w3.org/Graphics/SVG/1.1/DTD/svg11.dtd">
<!-- Generated by graphviz version 2.47.3 (20210619.1520)
 -->
<!-- Title: dependencies Pages: 1 -->
<svg width="332pt" height="174pt"
 viewBox="0.00 0.00 332.00 173.80" xmlns="http://www.w3.org/2000/svg" xmlns:xlink="http://www.w3.org/1999/xlink">
<g id="graph0" class="graph" transform="scale(1 1) rotate(0) translate(4 169.8)">
<title>dependencies</title>
<polygon fill="white" stroke="transparent" points="-4,4 -4,-169.8 328,-169.8 328,4 -4,4"/>
<text text-anchor="middle" x="162" y="-8.2" font-family="sans-serif" font-size="14.00">dependencies</text>
<g id="clust1" class="cluster">
<title>cluster_NaturePageModule</title>
<polygon fill="none" stroke="black" stroke-dasharray="1,5" points="8,-32.8 8,-157.8 316,-157.8 316,-32.8 8,-32.8"/>
</g>
<g id="clust2" class="cluster">
<title>cluster_NaturePageModule_declarations</title>
<polygon fill="none" stroke="black" points="210,-40.8 210,-92.8 308,-92.8 308,-40.8 210,-40.8"/>
</g>
<g id="clust4" class="cluster">
<title>cluster_NaturePageModule_imports</title>
<polygon fill="none" stroke="black" points="16,-40.8 16,-92.8 202,-92.8 202,-40.8 16,-40.8"/>
</g>
<!-- NaturePage -->
<g id="node1" class="node">
<title>NaturePage</title>
<polygon fill="#ffffb3" stroke="black" points="299.8,-84.8 218.2,-84.8 218.2,-48.8 299.8,-48.8 299.8,-84.8"/>
<text text-anchor="middle" x="259" y="-62.6" font-family="Times,serif" font-size="14.00">NaturePage</text>
</g>
<!-- NaturePageModule -->
<g id="node2" class="node">
<title>NaturePageModule</title>
<polygon fill="#8dd3c7" stroke="black" points="239.35,-149.8 236.35,-153.8 215.35,-153.8 212.35,-149.8 114.65,-149.8 114.65,-113.8 239.35,-113.8 239.35,-149.8"/>
<text text-anchor="middle" x="177" y="-127.6" font-family="Times,serif" font-size="14.00">NaturePageModule</text>
</g>
<!-- NaturePage&#45;&gt;NaturePageModule -->
<g id="edge1" class="edge">
<title>NaturePage&#45;&gt;NaturePageModule</title>
<path fill="none" stroke="black" d="M228.89,-84.91C228.89,-84.91 228.89,-103.79 228.89,-103.79"/>
<polygon fill="black" stroke="black" points="225.39,-103.79 228.89,-113.79 232.39,-103.79 225.39,-103.79"/>
</g>
<!-- NaturePageRoutingModule -->
<g id="node3" class="node">
<title>NaturePageRoutingModule</title>
<polygon fill="#8dd3c7" stroke="black" points="193.97,-84.8 190.97,-88.8 169.97,-88.8 166.97,-84.8 24.03,-84.8 24.03,-48.8 193.97,-48.8 193.97,-84.8"/>
<text text-anchor="middle" x="109" y="-62.6" font-family="Times,serif" font-size="14.00">NaturePageRoutingModule</text>
</g>
<!-- NaturePageRoutingModule&#45;&gt;NaturePageModule -->
<g id="edge2" class="edge">
<title>NaturePageRoutingModule&#45;&gt;NaturePageModule</title>
<path fill="none" stroke="black" d="M154.28,-84.91C154.28,-84.91 154.28,-103.79 154.28,-103.79"/>
<polygon fill="black" stroke="black" points="150.78,-103.79 154.28,-113.79 157.78,-103.79 150.78,-103.79"/>
</g>
</g>
</svg>
