<?xml version="1.0" encoding="UTF-8" standalone="no"?>
<!DOCTYPE svg PUBLIC "-//W3C//DTD SVG 1.1//EN"
 "http://www.w3.org/Graphics/SVG/1.1/DTD/svg11.dtd">
<!-- Generated by graphviz version 2.47.3 (20210619.1520)
 -->
<!-- Title: dependencies Pages: 1 -->
<svg width="520pt" height="174pt"
 viewBox="0.00 0.00 520.00 173.80" xmlns="http://www.w3.org/2000/svg" xmlns:xlink="http://www.w3.org/1999/xlink">
<g id="graph0" class="graph" transform="scale(1 1) rotate(0) translate(4 169.8)">
<title>dependencies</title>
<polygon fill="white" stroke="transparent" points="-4,4 -4,-169.8 516,-169.8 516,4 -4,4"/>
<text text-anchor="middle" x="256" y="-8.2" font-family="sans-serif" font-size="14.00">dependencies</text>
<g id="clust1" class="cluster">
<title>cluster_NaturePageModule</title>
<polygon fill="none" stroke="black" stroke-dasharray="1,5" points="8,-32.8 8,-157.8 504,-157.8 504,-32.8 8,-32.8"/>
</g>
<g id="clust2" class="cluster">
<title>cluster_NaturePageModule_declarations</title>
<polygon fill="none" stroke="black" points="210,-40.8 210,-92.8 496,-92.8 496,-40.8 210,-40.8"/>
</g>
<g id="clust5" class="cluster">
<title>cluster_NaturePageModule_imports</title>
<polygon fill="none" stroke="black" points="16,-40.8 16,-92.8 202,-92.8 202,-40.8 16,-40.8"/>
</g>
<!-- NaturePage -->
<g id="node1" class="node">
<title>NaturePage</title>
<polygon fill="#ffffb3" stroke="black" points="487.8,-84.8 406.2,-84.8 406.2,-48.8 487.8,-48.8 487.8,-84.8"/>
<text text-anchor="middle" x="447" y="-62.6" font-family="Times,serif" font-size="14.00">NaturePage</text>
</g>
<!-- NaturePageModule -->
<g id="node3" class="node">
<title>NaturePageModule</title>
<polygon fill="#8dd3c7" stroke="black" points="365.35,-149.8 362.35,-153.8 341.35,-153.8 338.35,-149.8 240.65,-149.8 240.65,-113.8 365.35,-113.8 365.35,-149.8"/>
<text text-anchor="middle" x="303" y="-127.6" font-family="Times,serif" font-size="14.00">NaturePageModule</text>
</g>
<!-- NaturePage&#45;&gt;NaturePageModule -->
<g id="edge1" class="edge">
<title>NaturePage&#45;&gt;NaturePageModule</title>
<path fill="none" stroke="black" d="M447,-84.91C447,-104.14 447,-131.8 447,-131.8 447,-131.8 375.74,-131.8 375.74,-131.8"/>
<polygon fill="black" stroke="black" points="375.74,-128.3 365.74,-131.8 375.74,-135.3 375.74,-128.3"/>
</g>
<!-- NatureTrailcardComponent -->
<g id="node2" class="node">
<title>NatureTrailcardComponent</title>
<polygon fill="#ffffb3" stroke="black" points="388.22,-84.8 217.78,-84.8 217.78,-48.8 388.22,-48.8 388.22,-84.8"/>
<text text-anchor="middle" x="303" y="-62.6" font-family="Times,serif" font-size="14.00">NatureTrailcardComponent</text>
</g>
<!-- NatureTrailcardComponent&#45;&gt;NaturePageModule -->
<g id="edge2" class="edge">
<title>NatureTrailcardComponent&#45;&gt;NaturePageModule</title>
<path fill="none" stroke="black" d="M303,-84.91C303,-84.91 303,-103.79 303,-103.79"/>
<polygon fill="black" stroke="black" points="299.5,-103.79 303,-113.79 306.5,-103.79 299.5,-103.79"/>
</g>
<!-- NaturePageRoutingModule -->
<g id="node4" class="node">
<title>NaturePageRoutingModule</title>
<polygon fill="#8dd3c7" stroke="black" points="193.97,-84.8 190.97,-88.8 169.97,-88.8 166.97,-84.8 24.03,-84.8 24.03,-48.8 193.97,-48.8 193.97,-84.8"/>
<text text-anchor="middle" x="109" y="-62.6" font-family="Times,serif" font-size="14.00">NaturePageRoutingModule</text>
</g>
<!-- NaturePageRoutingModule&#45;&gt;NaturePageModule -->
<g id="edge3" class="edge">
<title>NaturePageRoutingModule&#45;&gt;NaturePageModule</title>
<path fill="none" stroke="black" d="M109,-84.91C109,-104.14 109,-131.8 109,-131.8 109,-131.8 230.55,-131.8 230.55,-131.8"/>
<polygon fill="black" stroke="black" points="230.55,-135.3 240.55,-131.8 230.55,-128.3 230.55,-135.3"/>
</g>
</g>
</svg>
