<?xml version="1.0" encoding="UTF-8" standalone="no"?>
<!DOCTYPE svg PUBLIC "-//W3C//DTD SVG 1.1//EN"
 "http://www.w3.org/Graphics/SVG/1.1/DTD/svg11.dtd">
<!-- Generated by graphviz version 2.47.3 (20210619.1520)
 -->
<!-- Title: dependencies Pages: 1 -->
<svg width="382pt" height="174pt"
 viewBox="0.00 0.00 382.00 173.80" xmlns="http://www.w3.org/2000/svg" xmlns:xlink="http://www.w3.org/1999/xlink">
<g id="graph0" class="graph" transform="scale(1 1) rotate(0) translate(4 169.8)">
<title>dependencies</title>
<polygon fill="white" stroke="transparent" points="-4,4 -4,-169.8 378,-169.8 378,4 -4,4"/>
<text text-anchor="middle" x="187" y="-8.2" font-family="sans-serif" font-size="14.00">dependencies</text>
<g id="clust1" class="cluster">
<title>cluster_CreateTrailPageModule</title>
<polygon fill="none" stroke="black" stroke-dasharray="1,5" points="8,-32.8 8,-157.8 366,-157.8 366,-32.8 8,-32.8"/>
</g>
<g id="clust4" class="cluster">
<title>cluster_CreateTrailPageModule_imports</title>
<polygon fill="none" stroke="black" points="146,-40.8 146,-92.8 358,-92.8 358,-40.8 146,-40.8"/>
</g>
<g id="clust2" class="cluster">
<title>cluster_CreateTrailPageModule_declarations</title>
<polygon fill="none" stroke="black" points="16,-40.8 16,-92.8 138,-92.8 138,-40.8 16,-40.8"/>
</g>
<!-- CreateTrailPage -->
<g id="node1" class="node">
<title>CreateTrailPage</title>
<polygon fill="#ffffb3" stroke="black" points="130.45,-84.8 23.55,-84.8 23.55,-48.8 130.45,-48.8 130.45,-84.8"/>
<text text-anchor="middle" x="77" y="-62.6" font-family="Times,serif" font-size="14.00">CreateTrailPage</text>
</g>
<!-- CreateTrailPageModule -->
<g id="node2" class="node">
<title>CreateTrailPageModule</title>
<polygon fill="#8dd3c7" stroke="black" points="246,-149.8 243,-153.8 222,-153.8 219,-149.8 96,-149.8 96,-113.8 246,-113.8 246,-149.8"/>
<text text-anchor="middle" x="171" y="-127.6" font-family="Times,serif" font-size="14.00">CreateTrailPageModule</text>
</g>
<!-- CreateTrailPage&#45;&gt;CreateTrailPageModule -->
<g id="edge1" class="edge">
<title>CreateTrailPage&#45;&gt;CreateTrailPageModule</title>
<path fill="none" stroke="black" d="M113.11,-84.91C113.11,-84.91 113.11,-103.79 113.11,-103.79"/>
<polygon fill="black" stroke="black" points="109.61,-103.79 113.11,-113.79 116.61,-103.79 109.61,-103.79"/>
</g>
<!-- CreateTrailPageRoutingModule -->
<g id="node3" class="node">
<title>CreateTrailPageRoutingModule</title>
<polygon fill="#8dd3c7" stroke="black" points="349.62,-84.8 346.62,-88.8 325.62,-88.8 322.62,-84.8 154.38,-84.8 154.38,-48.8 349.62,-48.8 349.62,-84.8"/>
<text text-anchor="middle" x="252" y="-62.6" font-family="Times,serif" font-size="14.00">CreateTrailPageRoutingModule</text>
</g>
<!-- CreateTrailPageRoutingModule&#45;&gt;CreateTrailPageModule -->
<g id="edge2" class="edge">
<title>CreateTrailPageRoutingModule&#45;&gt;CreateTrailPageModule</title>
<path fill="none" stroke="black" d="M200.22,-84.91C200.22,-84.91 200.22,-103.79 200.22,-103.79"/>
<polygon fill="black" stroke="black" points="196.72,-103.79 200.22,-113.79 203.72,-103.79 196.72,-103.79"/>
</g>
</g>
</svg>
