<?xml version="1.0" encoding="UTF-8" standalone="no"?>
<!DOCTYPE svg PUBLIC "-//W3C//DTD SVG 1.1//EN"
 "http://www.w3.org/Graphics/SVG/1.1/DTD/svg11.dtd">
<!-- Generated by graphviz version 2.47.3 (20210619.1520)
 -->
<!-- Title: dependencies Pages: 1 -->
<svg width="320pt" height="174pt"
 viewBox="0.00 0.00 320.00 173.80" xmlns="http://www.w3.org/2000/svg" xmlns:xlink="http://www.w3.org/1999/xlink">
<g id="graph0" class="graph" transform="scale(1 1) rotate(0) translate(4 169.8)">
<title>dependencies</title>
<polygon fill="white" stroke="transparent" points="-4,4 -4,-169.8 316,-169.8 316,4 -4,4"/>
<text text-anchor="middle" x="156" y="-8.2" font-family="sans-serif" font-size="14.00">dependencies</text>
<g id="clust1" class="cluster">
<title>cluster_IndexPageModule</title>
<polygon fill="none" stroke="black" stroke-dasharray="1,5" points="8,-32.8 8,-157.8 304,-157.8 304,-32.8 8,-32.8"/>
</g>
<g id="clust2" class="cluster">
<title>cluster_IndexPageModule_declarations</title>
<polygon fill="none" stroke="black" points="204,-40.8 204,-92.8 296,-92.8 296,-40.8 204,-40.8"/>
</g>
<g id="clust4" class="cluster">
<title>cluster_IndexPageModule_imports</title>
<polygon fill="none" stroke="black" points="16,-40.8 16,-92.8 196,-92.8 196,-40.8 16,-40.8"/>
</g>
<!-- IndexPage -->
<g id="node1" class="node">
<title>IndexPage</title>
<polygon fill="#ffffb3" stroke="black" points="287.59,-84.8 212.41,-84.8 212.41,-48.8 287.59,-48.8 287.59,-84.8"/>
<text text-anchor="middle" x="250" y="-62.6" font-family="Times,serif" font-size="14.00">IndexPage</text>
</g>
<!-- IndexPageModule -->
<g id="node2" class="node">
<title>IndexPageModule</title>
<polygon fill="#8dd3c7" stroke="black" points="230.14,-149.8 227.14,-153.8 206.14,-153.8 203.14,-149.8 111.86,-149.8 111.86,-113.8 230.14,-113.8 230.14,-149.8"/>
<text text-anchor="middle" x="171" y="-127.6" font-family="Times,serif" font-size="14.00">IndexPageModule</text>
</g>
<!-- IndexPage&#45;&gt;IndexPageModule -->
<g id="edge1" class="edge">
<title>IndexPage&#45;&gt;IndexPageModule</title>
<path fill="none" stroke="black" d="M221.39,-84.91C221.39,-84.91 221.39,-103.79 221.39,-103.79"/>
<polygon fill="black" stroke="black" points="217.89,-103.79 221.39,-113.79 224.89,-103.79 217.89,-103.79"/>
</g>
<!-- IndexPageRoutingModule -->
<g id="node3" class="node">
<title>IndexPageRoutingModule</title>
<polygon fill="#8dd3c7" stroke="black" points="187.75,-84.8 184.75,-88.8 163.75,-88.8 160.75,-84.8 24.25,-84.8 24.25,-48.8 187.75,-48.8 187.75,-84.8"/>
<text text-anchor="middle" x="106" y="-62.6" font-family="Times,serif" font-size="14.00">IndexPageRoutingModule</text>
</g>
<!-- IndexPageRoutingModule&#45;&gt;IndexPageModule -->
<g id="edge2" class="edge">
<title>IndexPageRoutingModule&#45;&gt;IndexPageModule</title>
<path fill="none" stroke="black" d="M149.78,-84.91C149.78,-84.91 149.78,-103.79 149.78,-103.79"/>
<polygon fill="black" stroke="black" points="146.28,-103.79 149.78,-113.79 153.28,-103.79 146.28,-103.79"/>
</g>
</g>
</svg>
