<?xml version="1.0" encoding="UTF-8" standalone="no"?>
<!DOCTYPE svg PUBLIC "-//W3C//DTD SVG 1.1//EN"
 "http://www.w3.org/Graphics/SVG/1.1/DTD/svg11.dtd">
<!-- Generated by graphviz version 2.47.3 (20210619.1520)
 -->
<!-- Title: dependencies Pages: 1 -->
<svg width="320pt" height="174pt"
 viewBox="0.00 0.00 320.00 173.80" xmlns="http://www.w3.org/2000/svg" xmlns:xlink="http://www.w3.org/1999/xlink">
<g id="graph0" class="graph" transform="scale(1 1) rotate(0) translate(4 169.8)">
<title>dependencies</title>
<polygon fill="white" stroke="transparent" points="-4,4 -4,-169.8 316,-169.8 316,4 -4,4"/>
<text text-anchor="middle" x="156" y="-8.2" font-family="sans-serif" font-size="14.00">dependencies</text>
<g id="clust1" class="cluster">
<title>cluster_IndexPageModule</title>
<polygon fill="none" stroke="black" stroke-dasharray="1,5" points="8,-32.8 8,-157.8 304,-157.8 304,-32.8 8,-32.8"/>
</g>
<g id="clust4" class="cluster">
<title>cluster_IndexPageModule_imports</title>
<polygon fill="none" stroke="black" points="116,-40.8 116,-92.8 296,-92.8 296,-40.8 116,-40.8"/>
</g>
<g id="clust2" class="cluster">
<title>cluster_IndexPageModule_declarations</title>
<polygon fill="none" stroke="black" points="16,-40.8 16,-92.8 108,-92.8 108,-40.8 16,-40.8"/>
</g>
<!-- IndexPage -->
<g id="node1" class="node">
<title>IndexPage</title>
<polygon fill="#ffffb3" stroke="black" points="99.59,-84.8 24.41,-84.8 24.41,-48.8 99.59,-48.8 99.59,-84.8"/>
<text text-anchor="middle" x="62" y="-62.6" font-family="Times,serif" font-size="14.00">IndexPage</text>
</g>
<!-- IndexPageModule -->
<g id="node2" class="node">
<title>IndexPageModule</title>
<polygon fill="#8dd3c7" stroke="black" points="199.14,-149.8 196.14,-153.8 175.14,-153.8 172.14,-149.8 80.86,-149.8 80.86,-113.8 199.14,-113.8 199.14,-149.8"/>
<text text-anchor="middle" x="140" y="-127.6" font-family="Times,serif" font-size="14.00">IndexPageModule</text>
</g>
<!-- IndexPage&#45;&gt;IndexPageModule -->
<g id="edge1" class="edge">
<title>IndexPage&#45;&gt;IndexPageModule</title>
<path fill="none" stroke="black" d="M90.11,-84.91C90.11,-84.91 90.11,-103.79 90.11,-103.79"/>
<polygon fill="black" stroke="black" points="86.61,-103.79 90.11,-113.79 93.61,-103.79 86.61,-103.79"/>
</g>
<!-- IndexPageRoutingModule -->
<g id="node3" class="node">
<title>IndexPageRoutingModule</title>
<polygon fill="#8dd3c7" stroke="black" points="287.75,-84.8 284.75,-88.8 263.75,-88.8 260.75,-84.8 124.25,-84.8 124.25,-48.8 287.75,-48.8 287.75,-84.8"/>
<text text-anchor="middle" x="206" y="-62.6" font-family="Times,serif" font-size="14.00">IndexPageRoutingModule</text>
</g>
<!-- IndexPageRoutingModule&#45;&gt;IndexPageModule -->
<g id="edge2" class="edge">
<title>IndexPageRoutingModule&#45;&gt;IndexPageModule</title>
<path fill="none" stroke="black" d="M161.72,-84.91C161.72,-84.91 161.72,-103.79 161.72,-103.79"/>
<polygon fill="black" stroke="black" points="158.22,-103.79 161.72,-113.79 165.22,-103.79 158.22,-103.79"/>
</g>
</g>
</svg>
