<?xml version="1.0" encoding="UTF-8" standalone="no"?>
<!DOCTYPE svg PUBLIC "-//W3C//DTD SVG 1.1//EN"
 "http://www.w3.org/Graphics/SVG/1.1/DTD/svg11.dtd">
<!-- Generated by graphviz version 2.47.3 (20210619.1520)
 -->
<!-- Title: dependencies Pages: 1 -->
<svg width="322pt" height="174pt"
 viewBox="0.00 0.00 322.00 173.80" xmlns="http://www.w3.org/2000/svg" xmlns:xlink="http://www.w3.org/1999/xlink">
<g id="graph0" class="graph" transform="scale(1 1) rotate(0) translate(4 169.8)">
<title>dependencies</title>
<polygon fill="white" stroke="transparent" points="-4,4 -4,-169.8 318,-169.8 318,4 -4,4"/>
<text text-anchor="middle" x="157" y="-8.2" font-family="sans-serif" font-size="14.00">dependencies</text>
<g id="clust1" class="cluster">
<title>cluster_LoginPageModule</title>
<polygon fill="none" stroke="black" stroke-dasharray="1,5" points="8,-32.8 8,-157.8 306,-157.8 306,-32.8 8,-32.8"/>
</g>
<g id="clust4" class="cluster">
<title>cluster_LoginPageModule_imports</title>
<polygon fill="none" stroke="black" points="116,-40.8 116,-92.8 298,-92.8 298,-40.8 116,-40.8"/>
</g>
<g id="clust2" class="cluster">
<title>cluster_LoginPageModule_declarations</title>
<polygon fill="none" stroke="black" points="16,-40.8 16,-92.8 108,-92.8 108,-40.8 16,-40.8"/>
</g>
<!-- LoginPage -->
<g id="node1" class="node">
<title>LoginPage</title>
<polygon fill="#ffffb3" stroke="black" points="100.16,-84.8 23.84,-84.8 23.84,-48.8 100.16,-48.8 100.16,-84.8"/>
<text text-anchor="middle" x="62" y="-62.6" font-family="Times,serif" font-size="14.00">LoginPage</text>
</g>
<!-- LoginPageModule -->
<g id="node2" class="node">
<title>LoginPageModule</title>
<polygon fill="#8dd3c7" stroke="black" points="201.2,-149.8 198.2,-153.8 177.2,-153.8 174.2,-149.8 80.8,-149.8 80.8,-113.8 201.2,-113.8 201.2,-149.8"/>
<text text-anchor="middle" x="141" y="-127.6" font-family="Times,serif" font-size="14.00">LoginPageModule</text>
</g>
<!-- LoginPage&#45;&gt;LoginPageModule -->
<g id="edge1" class="edge">
<title>LoginPage&#45;&gt;LoginPageModule</title>
<path fill="none" stroke="black" d="M90.61,-84.91C90.61,-84.91 90.61,-103.79 90.61,-103.79"/>
<polygon fill="black" stroke="black" points="87.11,-103.79 90.61,-113.79 94.11,-103.79 87.11,-103.79"/>
</g>
<!-- LoginPageRoutingModule -->
<g id="node3" class="node">
<title>LoginPageRoutingModule</title>
<polygon fill="#8dd3c7" stroke="black" points="289.82,-84.8 286.82,-88.8 265.82,-88.8 262.82,-84.8 124.18,-84.8 124.18,-48.8 289.82,-48.8 289.82,-84.8"/>
<text text-anchor="middle" x="207" y="-62.6" font-family="Times,serif" font-size="14.00">LoginPageRoutingModule</text>
</g>
<!-- LoginPageRoutingModule&#45;&gt;LoginPageModule -->
<g id="edge2" class="edge">
<title>LoginPageRoutingModule&#45;&gt;LoginPageModule</title>
<path fill="none" stroke="black" d="M162.72,-84.91C162.72,-84.91 162.72,-103.79 162.72,-103.79"/>
<polygon fill="black" stroke="black" points="159.22,-103.79 162.72,-113.79 166.22,-103.79 159.22,-103.79"/>
</g>
</g>
</svg>
