<?xml version="1.0" encoding="UTF-8" standalone="no"?>
<!DOCTYPE svg PUBLIC "-//W3C//DTD SVG 1.1//EN"
 "http://www.w3.org/Graphics/SVG/1.1/DTD/svg11.dtd">
<!-- Generated by graphviz version 2.47.3 (20210619.1520)
 -->
<!-- Title: dependencies Pages: 1 -->
<svg width="568pt" height="174pt"
 viewBox="0.00 0.00 568.00 173.80" xmlns="http://www.w3.org/2000/svg" xmlns:xlink="http://www.w3.org/1999/xlink">
<g id="graph0" class="graph" transform="scale(1 1) rotate(0) translate(4 169.8)">
<title>dependencies</title>
<polygon fill="white" stroke="transparent" points="-4,4 -4,-169.8 564,-169.8 564,4 -4,4"/>
<text text-anchor="middle" x="280" y="-8.2" font-family="sans-serif" font-size="14.00">dependencies</text>
<g id="clust1" class="cluster">
<title>cluster_TopRatedPageModule</title>
<polygon fill="none" stroke="black" stroke-dasharray="1,5" points="8,-32.8 8,-157.8 552,-157.8 552,-32.8 8,-32.8"/>
</g>
<g id="clust2" class="cluster">
<title>cluster_TopRatedPageModule_declarations</title>
<polygon fill="none" stroke="black" points="228,-40.8 228,-92.8 544,-92.8 544,-40.8 228,-40.8"/>
</g>
<g id="clust5" class="cluster">
<title>cluster_TopRatedPageModule_imports</title>
<polygon fill="none" stroke="black" points="16,-40.8 16,-92.8 220,-92.8 220,-40.8 16,-40.8"/>
</g>
<!-- TopRatedPage -->
<g id="node1" class="node">
<title>TopRatedPage</title>
<polygon fill="#ffffb3" stroke="black" points="536.42,-84.8 437.58,-84.8 437.58,-48.8 536.42,-48.8 536.42,-84.8"/>
<text text-anchor="middle" x="487" y="-62.6" font-family="Times,serif" font-size="14.00">TopRatedPage</text>
</g>
<!-- TopRatedPageModule -->
<g id="node3" class="node">
<title>TopRatedPageModule</title>
<polygon fill="#8dd3c7" stroke="black" points="398.97,-149.8 395.97,-153.8 374.97,-153.8 371.97,-149.8 257.03,-149.8 257.03,-113.8 398.97,-113.8 398.97,-149.8"/>
<text text-anchor="middle" x="328" y="-127.6" font-family="Times,serif" font-size="14.00">TopRatedPageModule</text>
</g>
<!-- TopRatedPage&#45;&gt;TopRatedPageModule -->
<g id="edge1" class="edge">
<title>TopRatedPage&#45;&gt;TopRatedPageModule</title>
<path fill="none" stroke="black" d="M487,-84.91C487,-104.14 487,-131.8 487,-131.8 487,-131.8 409.13,-131.8 409.13,-131.8"/>
<polygon fill="black" stroke="black" points="409.13,-128.3 399.13,-131.8 409.13,-135.3 409.13,-128.3"/>
</g>
<!-- TopratedTrailcardComponent -->
<g id="node2" class="node">
<title>TopratedTrailcardComponent</title>
<polygon fill="#ffffb3" stroke="black" points="419.66,-84.8 236.34,-84.8 236.34,-48.8 419.66,-48.8 419.66,-84.8"/>
<text text-anchor="middle" x="328" y="-62.6" font-family="Times,serif" font-size="14.00">TopratedTrailcardComponent</text>
</g>
<!-- TopratedTrailcardComponent&#45;&gt;TopRatedPageModule -->
<g id="edge2" class="edge">
<title>TopratedTrailcardComponent&#45;&gt;TopRatedPageModule</title>
<path fill="none" stroke="black" d="M328,-84.91C328,-84.91 328,-103.79 328,-103.79"/>
<polygon fill="black" stroke="black" points="324.5,-103.79 328,-113.79 331.5,-103.79 324.5,-103.79"/>
</g>
<!-- TopRatedPageRoutingModule -->
<g id="node4" class="node">
<title>TopRatedPageRoutingModule</title>
<polygon fill="#8dd3c7" stroke="black" points="211.59,-84.8 208.59,-88.8 187.59,-88.8 184.59,-84.8 24.41,-84.8 24.41,-48.8 211.59,-48.8 211.59,-84.8"/>
<text text-anchor="middle" x="118" y="-62.6" font-family="Times,serif" font-size="14.00">TopRatedPageRoutingModule</text>
</g>
<!-- TopRatedPageRoutingModule&#45;&gt;TopRatedPageModule -->
<g id="edge3" class="edge">
<title>TopRatedPageRoutingModule&#45;&gt;TopRatedPageModule</title>
<path fill="none" stroke="black" d="M118,-84.91C118,-104.14 118,-131.8 118,-131.8 118,-131.8 246.9,-131.8 246.9,-131.8"/>
<polygon fill="black" stroke="black" points="246.9,-135.3 256.9,-131.8 246.9,-128.3 246.9,-135.3"/>
</g>
</g>
</svg>
