<?xml version="1.0" encoding="UTF-8" standalone="no"?>
<!DOCTYPE svg PUBLIC "-//W3C//DTD SVG 1.1//EN"
 "http://www.w3.org/Graphics/SVG/1.1/DTD/svg11.dtd">
<!-- Generated by graphviz version 2.47.3 (20210619.1520)
 -->
<!-- Title: dependencies Pages: 1 -->
<svg width="340pt" height="174pt"
 viewBox="0.00 0.00 340.00 173.80" xmlns="http://www.w3.org/2000/svg" xmlns:xlink="http://www.w3.org/1999/xlink">
<g id="graph0" class="graph" transform="scale(1 1) rotate(0) translate(4 169.8)">
<title>dependencies</title>
<polygon fill="white" stroke="transparent" points="-4,4 -4,-169.8 336,-169.8 336,4 -4,4"/>
<text text-anchor="middle" x="166" y="-8.2" font-family="sans-serif" font-size="14.00">dependencies</text>
<g id="clust1" class="cluster">
<title>cluster_GalleryPageModule</title>
<polygon fill="none" stroke="black" stroke-dasharray="1,5" points="8,-32.8 8,-157.8 324,-157.8 324,-32.8 8,-32.8"/>
</g>
<g id="clust4" class="cluster">
<title>cluster_GalleryPageModule_imports</title>
<polygon fill="none" stroke="black" points="126,-40.8 126,-92.8 316,-92.8 316,-40.8 126,-40.8"/>
</g>
<g id="clust2" class="cluster">
<title>cluster_GalleryPageModule_declarations</title>
<polygon fill="none" stroke="black" points="16,-40.8 16,-92.8 118,-92.8 118,-40.8 16,-40.8"/>
</g>
<!-- GalleryPage -->
<g id="node1" class="node">
<title>GalleryPage</title>
<polygon fill="#ffffb3" stroke="black" points="109.69,-84.8 24.31,-84.8 24.31,-48.8 109.69,-48.8 109.69,-84.8"/>
<text text-anchor="middle" x="67" y="-62.6" font-family="Times,serif" font-size="14.00">GalleryPage</text>
</g>
<!-- GalleryPageModule -->
<g id="node2" class="node">
<title>GalleryPageModule</title>
<polygon fill="#8dd3c7" stroke="black" points="214.24,-149.8 211.24,-153.8 190.24,-153.8 187.24,-149.8 85.76,-149.8 85.76,-113.8 214.24,-113.8 214.24,-149.8"/>
<text text-anchor="middle" x="150" y="-127.6" font-family="Times,serif" font-size="14.00">GalleryPageModule</text>
</g>
<!-- GalleryPage&#45;&gt;GalleryPageModule -->
<g id="edge1" class="edge">
<title>GalleryPage&#45;&gt;GalleryPageModule</title>
<path fill="none" stroke="black" d="M97.61,-84.91C97.61,-84.91 97.61,-103.79 97.61,-103.79"/>
<polygon fill="black" stroke="black" points="94.11,-103.79 97.61,-113.79 101.11,-103.79 94.11,-103.79"/>
</g>
<!-- GalleryPageRoutingModule -->
<g id="node3" class="node">
<title>GalleryPageRoutingModule</title>
<polygon fill="#8dd3c7" stroke="black" points="307.86,-84.8 304.86,-88.8 283.86,-88.8 280.86,-84.8 134.14,-84.8 134.14,-48.8 307.86,-48.8 307.86,-84.8"/>
<text text-anchor="middle" x="221" y="-62.6" font-family="Times,serif" font-size="14.00">GalleryPageRoutingModule</text>
</g>
<!-- GalleryPageRoutingModule&#45;&gt;GalleryPageModule -->
<g id="edge2" class="edge">
<title>GalleryPageRoutingModule&#45;&gt;GalleryPageModule</title>
<path fill="none" stroke="black" d="M174.22,-84.91C174.22,-84.91 174.22,-103.79 174.22,-103.79"/>
<polygon fill="black" stroke="black" points="170.72,-103.79 174.22,-113.79 177.72,-103.79 170.72,-103.79"/>
</g>
</g>
</svg>
