<?xml version="1.0" encoding="UTF-8" standalone="no"?>
<!DOCTYPE svg PUBLIC "-//W3C//DTD SVG 1.1//EN"
 "http://www.w3.org/Graphics/SVG/1.1/DTD/svg11.dtd">
<!-- Generated by graphviz version 2.47.3 (20210619.1520)
 -->
<!-- Title: dependencies Pages: 1 -->
<svg width="667pt" height="174pt"
 viewBox="0.00 0.00 667.00 173.80" xmlns="http://www.w3.org/2000/svg" xmlns:xlink="http://www.w3.org/1999/xlink">
<g id="graph0" class="graph" transform="scale(1 1) rotate(0) translate(4 169.8)">
<title>dependencies</title>
<polygon fill="white" stroke="transparent" points="-4,4 -4,-169.8 663,-169.8 663,4 -4,4"/>
<text text-anchor="middle" x="329.5" y="-8.2" font-family="sans-serif" font-size="14.00">dependencies</text>
<g id="clust1" class="cluster">
<title>cluster_ProfilePageModule</title>
<polygon fill="none" stroke="black" stroke-dasharray="1,5" points="8,-32.8 8,-157.8 651,-157.8 651,-32.8 8,-32.8"/>
</g>
<g id="clust2" class="cluster">
<title>cluster_ProfilePageModule_declarations</title>
<polygon fill="none" stroke="black" points="210,-40.8 210,-92.8 643,-92.8 643,-40.8 210,-40.8"/>
</g>
<g id="clust6" class="cluster">
<title>cluster_ProfilePageModule_imports</title>
<polygon fill="none" stroke="black" points="16,-40.8 16,-92.8 202,-92.8 202,-40.8 16,-40.8"/>
</g>
<!-- ProfilePage -->
<g id="node1" class="node">
<title>ProfilePage</title>
<polygon fill="#ffffb3" stroke="black" points="634.81,-84.8 553.19,-84.8 553.19,-48.8 634.81,-48.8 634.81,-84.8"/>
<text text-anchor="middle" x="594" y="-62.6" font-family="Times,serif" font-size="14.00">ProfilePage</text>
</g>
<!-- ProfilePageModule -->
<g id="node4" class="node">
<title>ProfilePageModule</title>
<polygon fill="#8dd3c7" stroke="black" points="430.36,-149.8 427.36,-153.8 406.36,-153.8 403.36,-149.8 305.64,-149.8 305.64,-113.8 430.36,-113.8 430.36,-149.8"/>
<text text-anchor="middle" x="368" y="-127.6" font-family="Times,serif" font-size="14.00">ProfilePageModule</text>
</g>
<!-- ProfilePage&#45;&gt;ProfilePageModule -->
<g id="edge1" class="edge">
<title>ProfilePage&#45;&gt;ProfilePageModule</title>
<path fill="none" stroke="black" d="M594,-84.91C594,-104.14 594,-131.8 594,-131.8 594,-131.8 440.65,-131.8 440.65,-131.8"/>
<polygon fill="black" stroke="black" points="440.65,-128.3 430.65,-131.8 440.65,-135.3 440.65,-128.3"/>
</g>
<!-- SavedTrailcardComponent -->
<g id="node2" class="node">
<title>SavedTrailcardComponent</title>
<polygon fill="#ffffb3" stroke="black" points="535.34,-84.8 368.66,-84.8 368.66,-48.8 535.34,-48.8 535.34,-84.8"/>
<text text-anchor="middle" x="452" y="-62.6" font-family="Times,serif" font-size="14.00">SavedTrailcardComponent</text>
</g>
<!-- SavedTrailcardComponent&#45;&gt;ProfilePageModule -->
<g id="edge2" class="edge">
<title>SavedTrailcardComponent&#45;&gt;ProfilePageModule</title>
<path fill="none" stroke="black" d="M399.5,-84.91C399.5,-84.91 399.5,-103.79 399.5,-103.79"/>
<polygon fill="black" stroke="black" points="396,-103.79 399.5,-113.79 403,-103.79 396,-103.79"/>
</g>
<!-- TrailcardComponent -->
<g id="node3" class="node">
<title>TrailcardComponent</title>
<polygon fill="#ffffb3" stroke="black" points="350.13,-84.8 217.87,-84.8 217.87,-48.8 350.13,-48.8 350.13,-84.8"/>
<text text-anchor="middle" x="284" y="-62.6" font-family="Times,serif" font-size="14.00">TrailcardComponent</text>
</g>
<!-- TrailcardComponent&#45;&gt;ProfilePageModule -->
<g id="edge3" class="edge">
<title>TrailcardComponent&#45;&gt;ProfilePageModule</title>
<path fill="none" stroke="black" d="M327.94,-84.91C327.94,-84.91 327.94,-103.79 327.94,-103.79"/>
<polygon fill="black" stroke="black" points="324.44,-103.79 327.94,-113.79 331.44,-103.79 324.44,-103.79"/>
</g>
<!-- ProfilePageRoutingModule -->
<g id="node5" class="node">
<title>ProfilePageRoutingModule</title>
<polygon fill="#8dd3c7" stroke="black" points="193.98,-84.8 190.98,-88.8 169.98,-88.8 166.98,-84.8 24.02,-84.8 24.02,-48.8 193.98,-48.8 193.98,-84.8"/>
<text text-anchor="middle" x="109" y="-62.6" font-family="Times,serif" font-size="14.00">ProfilePageRoutingModule</text>
</g>
<!-- ProfilePageRoutingModule&#45;&gt;ProfilePageModule -->
<g id="edge4" class="edge">
<title>ProfilePageRoutingModule&#45;&gt;ProfilePageModule</title>
<path fill="none" stroke="black" d="M109,-84.91C109,-104.14 109,-131.8 109,-131.8 109,-131.8 295.63,-131.8 295.63,-131.8"/>
<polygon fill="black" stroke="black" points="295.63,-135.3 305.63,-131.8 295.63,-128.3 295.63,-135.3"/>
</g>
</g>
</svg>
