<?xml version="1.0" encoding="UTF-8" standalone="no"?>
<!DOCTYPE svg PUBLIC "-//W3C//DTD SVG 1.1//EN"
 "http://www.w3.org/Graphics/SVG/1.1/DTD/svg11.dtd">
<!-- Generated by graphviz version 2.47.3 (20210619.1520)
 -->
<!-- Title: dependencies Pages: 1 -->
<svg width="332pt" height="174pt"
 viewBox="0.00 0.00 332.00 173.80" xmlns="http://www.w3.org/2000/svg" xmlns:xlink="http://www.w3.org/1999/xlink">
<g id="graph0" class="graph" transform="scale(1 1) rotate(0) translate(4 169.8)">
<title>dependencies</title>
<polygon fill="white" stroke="transparent" points="-4,4 -4,-169.8 328,-169.8 328,4 -4,4"/>
<text text-anchor="middle" x="162" y="-8.2" font-family="sans-serif" font-size="14.00">dependencies</text>
<g id="clust1" class="cluster">
<title>cluster_ProfilePageModule</title>
<polygon fill="none" stroke="black" stroke-dasharray="1,5" points="8,-32.8 8,-157.8 316,-157.8 316,-32.8 8,-32.8"/>
</g>
<g id="clust2" class="cluster">
<title>cluster_ProfilePageModule_declarations</title>
<polygon fill="none" stroke="black" points="210,-40.8 210,-92.8 308,-92.8 308,-40.8 210,-40.8"/>
</g>
<g id="clust4" class="cluster">
<title>cluster_ProfilePageModule_imports</title>
<polygon fill="none" stroke="black" points="16,-40.8 16,-92.8 202,-92.8 202,-40.8 16,-40.8"/>
</g>
<!-- ProfilePage -->
<g id="node1" class="node">
<title>ProfilePage</title>
<polygon fill="#ffffb3" stroke="black" points="299.81,-84.8 218.19,-84.8 218.19,-48.8 299.81,-48.8 299.81,-84.8"/>
<text text-anchor="middle" x="259" y="-62.6" font-family="Times,serif" font-size="14.00">ProfilePage</text>
</g>
<!-- ProfilePageModule -->
<g id="node2" class="node">
<title>ProfilePageModule</title>
<polygon fill="#8dd3c7" stroke="black" points="239.36,-149.8 236.36,-153.8 215.36,-153.8 212.36,-149.8 114.64,-149.8 114.64,-113.8 239.36,-113.8 239.36,-149.8"/>
<text text-anchor="middle" x="177" y="-127.6" font-family="Times,serif" font-size="14.00">ProfilePageModule</text>
</g>
<!-- ProfilePage&#45;&gt;ProfilePageModule -->
<g id="edge1" class="edge">
<title>ProfilePage&#45;&gt;ProfilePageModule</title>
<path fill="none" stroke="black" d="M228.89,-84.91C228.89,-84.91 228.89,-103.79 228.89,-103.79"/>
<polygon fill="black" stroke="black" points="225.39,-103.79 228.89,-113.79 232.39,-103.79 225.39,-103.79"/>
</g>
<!-- ProfilePageRoutingModule -->
<g id="node3" class="node">
<title>ProfilePageRoutingModule</title>
<polygon fill="#8dd3c7" stroke="black" points="193.98,-84.8 190.98,-88.8 169.98,-88.8 166.98,-84.8 24.02,-84.8 24.02,-48.8 193.98,-48.8 193.98,-84.8"/>
<text text-anchor="middle" x="109" y="-62.6" font-family="Times,serif" font-size="14.00">ProfilePageRoutingModule</text>
</g>
<!-- ProfilePageRoutingModule&#45;&gt;ProfilePageModule -->
<g id="edge2" class="edge">
<title>ProfilePageRoutingModule&#45;&gt;ProfilePageModule</title>
<path fill="none" stroke="black" d="M154.28,-84.91C154.28,-84.91 154.28,-103.79 154.28,-103.79"/>
<polygon fill="black" stroke="black" points="150.78,-103.79 154.28,-113.79 157.78,-103.79 150.78,-103.79"/>
</g>
</g>
</svg>
