<?xml version="1.0" encoding="UTF-8" standalone="no"?>
<!DOCTYPE svg PUBLIC "-//W3C//DTD SVG 1.1//EN"
 "http://www.w3.org/Graphics/SVG/1.1/DTD/svg11.dtd">
<!-- Generated by graphviz version 2.47.3 (20210619.1520)
 -->
<!-- Title: dependencies Pages: 1 -->
<svg width="168pt" height="247pt"
 viewBox="0.00 0.00 168.00 246.80" xmlns="http://www.w3.org/2000/svg" xmlns:xlink="http://www.w3.org/1999/xlink">
<g id="graph0" class="graph" transform="scale(1 1) rotate(0) translate(4 242.8)">
<title>dependencies</title>
<polygon fill="white" stroke="transparent" points="-4,4 -4,-242.8 164,-242.8 164,4 -4,4"/>
<text text-anchor="middle" x="80" y="-8.2" font-family="sans-serif" font-size="14.00">dependencies</text>
<g id="clust1" class="cluster">
<title>cluster_AppRoutingModule</title>
<polygon fill="none" stroke="black" stroke-dasharray="1,5" points="8,-32.8 8,-230.8 152,-230.8 152,-32.8 8,-32.8"/>
</g>
<g id="clust3" class="cluster">
<title>cluster_AppRoutingModule_imports</title>
<polygon fill="none" stroke="black" points="23,-40.8 23,-92.8 137,-92.8 137,-40.8 23,-40.8"/>
</g>
<g id="clust4" class="cluster">
<title>cluster_AppRoutingModule_exports</title>
<polygon fill="none" stroke="black" points="21,-170.8 21,-222.8 139,-222.8 139,-170.8 21,-170.8"/>
</g>
<!-- RouterModule -->
<g id="node1" class="node">
<title>RouterModule</title>
<polygon fill="#8dd3c7" stroke="black" points="128.65,-84.8 125.65,-88.8 104.65,-88.8 101.65,-84.8 31.35,-84.8 31.35,-48.8 128.65,-48.8 128.65,-84.8"/>
<text text-anchor="middle" x="80" y="-62.6" font-family="Times,serif" font-size="14.00">RouterModule</text>
</g>
<!-- AppRoutingModule -->
<g id="node2" class="node">
<title>AppRoutingModule</title>
<polygon fill="#8dd3c7" stroke="black" points="144.27,-149.8 141.27,-153.8 120.27,-153.8 117.27,-149.8 15.73,-149.8 15.73,-113.8 144.27,-113.8 144.27,-149.8"/>
<text text-anchor="middle" x="80" y="-127.6" font-family="Times,serif" font-size="14.00">AppRoutingModule</text>
</g>
<!-- RouterModule&#45;&gt;AppRoutingModule -->
<g id="edge1" class="edge">
<title>RouterModule&#45;&gt;AppRoutingModule</title>
<path fill="none" stroke="black" d="M80,-84.91C80,-84.91 80,-103.79 80,-103.79"/>
<polygon fill="black" stroke="black" points="76.5,-103.79 80,-113.79 83.5,-103.79 76.5,-103.79"/>
</g>
<!-- RouterModule  -->
<g id="node3" class="node">
<title>RouterModule </title>
<polygon fill="#fb8072" stroke="black" points="130.65,-214.8 29.35,-214.8 29.35,-178.8 130.65,-178.8 130.65,-214.8"/>
<text text-anchor="middle" x="80" y="-192.6" font-family="Times,serif" font-size="14.00">RouterModule </text>
</g>
<!-- AppRoutingModule&#45;&gt;RouterModule  -->
<g id="edge2" class="edge">
<title>AppRoutingModule&#45;&gt;RouterModule </title>
<path fill="none" stroke="black" stroke-dasharray="5,2" d="M80,-149.91C80,-149.91 80,-168.79 80,-168.79"/>
<polygon fill="black" stroke="black" points="76.5,-168.79 80,-178.79 83.5,-168.79 76.5,-168.79"/>
</g>
</g>
</svg>
