<svg xmlns="http://www.w3.org/2000/svg" width="391" height="76.681" viewBox="0 0 391 76.681">
  <path id="Path_12" data-name="Path 12" d="M376.514,404.433l-5.6-9.808L367.169,406.3l-2.742-6.522-2.962,9.6-1.086.044-3.754-16.448-1.782,11.308-3.687-16.15-3.442,21.845-.049,0-1.926-7.193-1.854,7.383q-7.642.393-15.309.868l-2.854-8.164-1.6,5.791-2.8-10.2-2,12.691-1.874-5.571-1.824,6.312q-2.777.2-5.554.4l-1.064-4.66-1,4.814q-1.112.083-2.224.17L303.54,402.8l-2.009,10.158q-2.6.207-5.2.422l-1.4-4.044-1.368,4.274q-11.141.942-22.207,2.029l-2.638-8.169-2.1,7.564-3.737-9.781-3.582,11.609q-2.148.226-4.291.456l-1.657-7.258-1.192,7.567-1.408.154-2.868-12.562-2.066,13.113q-8.973,1.015-17.821,2.106l-3.3-7.5L222.6,419.9l-1.524-4.745-1.4,6.33q-11.134,1.428-21.989,2.964l-3.8-14.129-3.463,15.171q-2.333.339-4.649.684l-.792-3.505-1,3.772q-4.005.6-7.958,1.211l-5.332-17.279L164.911,425.5l-3.242-11.7-4.592,14.213q-6.331-.964-12.488-1.86l-4.5-14.049-4.408,12.774q-2.256-.317-4.49-.627l-4.4-22.257L122,423l-.871-.116-2.79-13.406-2.89,12.661q-2.925-.378-5.8-.742l-4.361-15.1-2.9,8.615L99.289,395.3l-4.33,15.773-2.474-8.956L86.92,418.037l-4.818.11q-8.764-.965-16.959-1.78L61.53,401.978l-2.979,11.129-5.4-33.793-5.6,25.609L44.7,386.8,38.5,413.937l-.765-.063-5.106-16.546-4.241,10.086L22.6,389.359l-8.659,15.168L3.318,357.333S1.942,362.009,0,368.649V431.52H390V396.277c-2.945-10.186-6.62-22.36-6.62-22.36Z" transform="translate(0.5 -355.339)" fill="#fff" stroke="rgba(0,0,0,0)" stroke-miterlimit="10" stroke-width="1"/>
</svg>
