<svg width="1920" height="536" viewBox="0 0 1920 536" fill="none" xmlns="http://www.w3.org/2000/svg">
<path d="M1920 41.68V531.401C1920 533.61 1918.21 535.401 1916 535.401H4.00005C1.79091 535.401 0 533.61 0 531.401V273.836C0 272.47 0.697205 271.198 1.84992 270.465C65.5836 229.918 131.565 193.129 203.648 172.033C211.27 169.8 218.872 167.939 226.452 166.377C227.996 166.058 229.219 164.875 229.573 163.339L239.486 120.229C240.437 116.092 246.328 116.091 247.282 120.227L256.083 158.407C256.534 160.361 258.361 161.676 260.358 161.51C262.256 161.352 264.152 161.213 266.043 161.093C267.826 160.981 269.333 159.72 269.734 157.98L273.197 142.953C273.906 139.881 278.281 139.882 278.987 142.955V142.955C279.694 146.028 284.071 146.028 284.778 142.955L288.534 126.624C289.486 122.488 295.377 122.486 296.33 126.623L303.669 158.465C304.062 160.169 305.516 161.418 307.258 161.568C331.597 163.668 355.623 168.496 378.883 175.962C380.668 176.534 382.57 175.469 382.993 173.644V173.644C383.754 170.358 388.434 170.36 389.191 173.647L390.138 177.754C390.445 179.087 391.412 180.169 392.699 180.632C424.253 191.993 454.916 207.614 484.378 226.153C523.93 251.036 564.404 280.783 603.597 308.559C640.997 335.059 678.912 367.874 727.347 366.748C735.782 366.491 744.182 365.541 752.461 363.907C758.042 362.858 763.571 361.629 769.127 360.298C794.317 354.333 819.277 346.781 844.698 350.007C862.34 352.237 878.274 359.32 893.587 368.296C894.605 368.893 895.914 368.336 896.179 367.187V367.187C896.593 365.392 899.149 365.391 899.565 367.186L900.581 371.576C900.746 372.289 901.186 372.908 901.804 373.3C904.435 374.97 907.057 376.673 909.671 378.399C912.011 379.944 915.184 378.69 915.813 375.957L921.851 349.728C922.803 345.592 928.694 345.591 929.647 349.727L940.689 397.644C940.924 398.664 941.549 399.553 942.436 400.111C949.758 404.716 957.341 408.894 965.146 412.625C967.834 413.879 970.573 415.057 973.312 416.158C1038.11 442.117 1112.81 423.403 1179.83 401.566C1213.6 390.575 1247.13 378.896 1280.41 366.528C1281.67 366.06 1282.61 364.989 1282.91 363.679L1293.04 319.729C1293.99 315.593 1299.88 315.594 1300.84 319.731L1308.07 351.188C1308.62 353.554 1311.12 354.891 1313.38 354.005C1313.97 353.775 1314.56 353.544 1315.15 353.313C1316.38 352.83 1317.29 351.77 1317.59 350.481L1319.02 344.276C1319.91 340.37 1325.48 340.371 1326.37 344.276V344.276C1326.89 346.525 1329.29 347.789 1331.43 346.94C1415.27 313.804 1497.34 276.364 1577.31 234.77C1577.33 234.761 1577.35 234.757 1577.36 234.743V234.743C1577.38 234.729 1577.4 234.725 1577.42 234.716C1579.12 233.821 1580.8 232.933 1582.51 232.042C1617.4 213.826 1651.86 194.805 1685.87 174.981C1686.83 174.425 1687.51 173.499 1687.76 172.422L1690.7 159.619L1690.74 159.413C1691.21 157.374 1694.12 157.375 1694.59 159.414V159.414L1695.49 163.329C1696.1 165.958 1699.08 167.245 1701.4 165.874C1705.65 163.368 1709.89 160.839 1714.12 158.313C1720.01 154.78 1725.87 151.248 1731.73 147.663C1736.9 144.514 1742.13 141.34 1747.35 138.14C1748.56 137.407 1749.77 136.661 1750.98 135.92C1751.9 135.356 1752.55 134.447 1752.8 133.394L1760.76 98.79L1762.53 91.1151C1763.48 86.9785 1769.37 86.9768 1770.32 91.1128L1772.72 101.505L1775.79 114.858C1776.4 117.498 1779.4 118.783 1781.73 117.409C1787.15 114.222 1792.59 111.062 1798.06 107.977C1799.04 107.424 1799.74 106.486 1800 105.389L1801.35 99.4966C1801.98 96.8023 1805.81 96.8049 1806.43 99.5001V99.5001C1806.82 101.186 1808.71 102.034 1810.23 101.207C1834.44 88.0306 1859.15 76.1818 1884.47 67.4613C1885.78 67.0087 1886.78 65.9148 1887.09 64.5605L1888.43 58.727L1893.88 34.97V34.97C1893.92 34.8098 1894.15 34.8098 1894.19 34.97V34.97L1894.37 35.7446C1895.32 39.8822 1901.21 39.8839 1902.16 35.7469L1902.36 34.893L1906.85 15.3869C1907.79 11.3421 1913.5 11.2181 1914.61 15.2186L1919.85 34.191C1919.95 34.5381 1920 34.8965 1920 35.2566L1920 41.68Z" fill="#393939"/>
<path d="M1855.87 391.99C1855.07 395.553 1850.31 396.266 1848.5 393.095L1830.55 361.659C1828.83 358.637 1824.33 359.107 1823.27 362.42L1810.9 400.945C1809.77 404.481 1804.85 404.696 1803.41 401.273L1798.36 389.277C1796.92 385.833 1791.96 386.078 1790.86 389.648L1780.24 424.03C1779.81 425.44 1778.53 426.422 1777.06 426.483V426.483C1775.38 426.551 1773.9 425.417 1773.53 423.786L1760.31 365.864C1759.33 361.571 1753.14 361.782 1752.46 366.132L1750.15 380.794C1749.46 385.144 1743.28 385.354 1742.3 381.061L1733.39 342.029C1732.41 337.736 1726.22 337.947 1725.54 342.297L1711.84 429.219C1711.83 429.288 1711.77 429.341 1711.7 429.345V429.345C1711.63 429.348 1711.57 429.302 1711.55 429.234L1706.09 408.838C1705.02 404.852 1699.35 404.896 1698.34 408.899L1693.69 427.419C1693.27 429.124 1691.78 430.35 1690.02 430.441C1666.92 431.638 1643.79 432.949 1620.63 434.374C1618.84 434.484 1617.2 433.393 1616.61 431.701L1607.78 406.453C1606.49 402.752 1601.19 402.928 1600.15 406.708L1599.55 408.875C1598.47 412.792 1592.91 412.787 1591.84 408.869L1586.82 390.579C1585.68 386.425 1579.68 386.76 1579.01 391.015L1574.58 419.119C1573.93 423.227 1568.21 423.709 1566.89 419.768V419.768C1565.64 416.075 1560.38 416.189 1559.3 419.932L1554.63 436.104C1554.16 437.716 1552.74 438.866 1551.07 438.985C1544.03 439.486 1536.98 439.995 1529.94 440.513C1527.97 440.658 1526.18 439.341 1525.74 437.414L1525.35 435.695C1524.4 431.507 1518.41 431.565 1517.54 435.77L1516.95 438.575C1516.59 440.321 1515.11 441.615 1513.34 441.75C1511.84 441.863 1510.33 441.978 1508.83 442.093C1506.86 442.246 1505.07 440.928 1504.62 438.994L1498.53 412.296C1497.57 408.088 1491.54 408.176 1490.71 412.41L1485.04 441.028C1484.7 442.785 1483.22 444.097 1481.44 444.24C1474.95 444.759 1468.46 445.285 1461.98 445.819C1460.15 445.969 1458.46 444.866 1457.87 443.137L1455.93 437.539C1454.68 433.903 1449.52 433.961 1448.34 437.625L1446.09 444.667C1445.6 446.206 1444.23 447.298 1442.62 447.434C1408.02 450.372 1373.53 453.521 1339.16 456.882C1337.28 457.065 1335.54 455.92 1334.96 454.13L1327.06 429.673C1325.84 425.897 1320.46 426.01 1319.4 429.835L1315.89 442.497C1314.86 446.218 1309.68 446.463 1308.3 442.857L1298.38 416.902C1297.02 413.351 1291.94 413.518 1290.82 417.151L1277.38 460.702C1276.91 462.232 1275.57 463.333 1273.98 463.501C1268.99 464.028 1264 464.558 1259.02 465.091C1257 465.306 1255.14 463.98 1254.69 462.003L1251.94 449.973C1250.96 445.68 1244.78 445.891 1244.09 450.241L1241.93 463.968C1241.65 465.753 1240.21 467.127 1238.41 467.323C1238.29 467.336 1238.18 467.348 1238.06 467.361C1236.04 467.582 1234.18 466.255 1233.73 464.274L1225.02 426.143C1224.04 421.85 1217.85 422.061 1217.17 426.411L1210.7 467.454C1210.42 469.231 1208.99 470.603 1207.2 470.806C1179.77 473.92 1152.52 477.141 1125.45 480.468C1123.7 480.683 1122.01 479.724 1121.3 478.107L1110.62 453.818C1109.12 450.419 1104.2 450.713 1103.13 454.266L1099.17 467.292C1098.16 470.63 1093.45 470.668 1092.38 467.347V467.347C1091.27 463.891 1086.31 464.121 1085.52 467.665L1082.07 483.256C1081.7 484.902 1080.34 486.143 1078.67 486.358C1044.28 490.781 1010.29 495.361 976.71 500.097C974.709 500.379 972.812 499.126 972.287 497.174L958.686 446.582C957.603 442.554 951.851 442.664 950.923 446.73L938.069 503.046C937.701 504.658 936.381 505.877 934.745 506.115C929.089 506.94 923.449 507.769 917.823 508.604C915.99 508.876 914.257 507.689 913.849 505.882V505.882C913.033 502.272 907.924 502.177 906.974 505.753L906.415 507.858C906.005 509.4 904.718 510.551 903.141 510.787C892.024 512.453 880.97 514.134 869.979 515.83C868.018 516.133 866.13 514.953 865.545 513.056L843.734 442.374C842.613 438.741 837.532 438.574 836.175 442.126L816.207 494.394C814.829 498.001 809.647 497.755 808.616 494.035L799.467 461.02C798.408 457.195 793.026 457.082 791.806 460.858L774.346 514.904C773.743 516.77 771.876 517.924 769.937 517.63C751.154 514.776 732.606 512.014 714.291 509.344C712.778 509.124 711.523 508.06 711.058 506.604L693.356 451.274C692.184 447.609 687.02 447.551 685.765 451.188L669.065 499.584C668.441 501.394 666.622 502.507 664.726 502.241C659.369 501.489 654.031 500.744 648.712 500.006C647.023 499.772 645.668 498.493 645.337 496.82L627.855 408.462C627.017 404.227 620.992 404.14 620.031 408.349L601.141 491.106C600.834 492.45 599.554 493.339 598.188 493.157V493.157C597.063 493.006 596.157 492.162 595.926 491.051L586.311 444.855C585.436 440.65 579.451 440.592 578.495 444.78L569.155 485.698C568.696 487.707 566.786 489.039 564.742 488.776C557.243 487.809 549.789 486.856 542.382 485.918C540.797 485.718 539.484 484.594 539.041 483.06L521.853 423.568C520.765 419.801 515.469 419.686 514.219 423.403L509.236 438.217C507.902 442.183 502.144 441.697 501.493 437.565L491.7 375.414C491.03 371.159 485.032 370.824 483.892 374.978L471.339 420.707C470.264 424.625 464.708 424.63 463.626 420.713L458.724 402.964C457.68 399.185 452.386 399.008 451.093 402.71L428.83 466.409C428.28 467.983 426.812 469.05 425.145 469.088L404.198 469.565C376.43 466.508 349.533 463.68 323.504 461.081C321.825 460.913 320.432 459.711 320.021 458.074L306.677 404.925C305.673 400.923 300.001 400.879 298.934 404.865L293.109 426.625C291.993 430.795 285.976 430.484 285.295 426.222L265.013 299.277C264.316 294.913 258.1 294.736 257.156 299.054L238.646 383.679C237.701 388.001 231.476 387.817 230.788 383.447L223.271 335.752C222.586 331.402 216.4 331.192 215.42 335.485L190.014 446.774C189.743 447.961 188.639 448.768 187.425 448.666V448.666C186.427 448.583 185.582 447.901 185.287 446.944L163.882 377.584C162.78 374.014 157.82 373.769 156.372 377.213L143.95 406.755C142.51 410.178 137.589 409.962 136.454 406.426L114.017 336.495C112.954 333.182 108.459 332.712 106.734 335.734L73.7236 393.559C71.9131 396.731 67.1489 396.017 66.3473 392.454L19.7211 185.224C18.8152 181.197 13.1528 181.003 11.9905 184.962C9.12241 194.733 5.00533 208.773 0.162155 225.328C0.0554266 225.693 0 226.075 0 226.455V531.402C0 533.611 1.79086 535.402 4 535.402H1916C1918.21 535.402 1920 533.611 1920 531.402V362.469C1920 362.093 1919.95 361.721 1919.84 361.36C1909.77 326.525 1898 287.098 1891.78 266.36C1890.6 262.422 1884.98 262.646 1884.07 266.658L1855.87 391.99Z" fill="#1B1B1B"/>
</svg>
