<svg xmlns="http://www.w3.org/2000/svg" width="1921" height="535.898" viewBox="0 0 1921 535.898">
  <g id="Group_144" data-name="Group 144" transform="translate(0.5 -158.602)">
    <path id="Path_11" data-name="Path 11" d="M1920,332.537V826.258H0V562.5c64.307-41.011,130.867-78.31,203.648-99.61,8.474-2.483,16.922-4.505,25.344-6.169l14.387-62.566,13.491,58.522c4.07-.384,8.141-.691,12.186-.9l7.04-30.541,5.786,25.165,10.547-45.85,11.9,51.635a326.082,326.082,0,0,1,77.875,15.718L386.1,451.09l4.531,19.661c32.282,11.418,63.642,27.315,93.747,46.259,39.552,24.883,80.026,54.63,119.219,82.406,37.4,26.5,75.315,59.315,123.75,58.189a153.96,153.96,0,0,0,25.114-2.841c5.581-1.049,11.11-2.278,16.666-3.609,25.19-5.965,50.15-13.517,75.571-10.291,18.432,2.33,35,9.958,50.944,19.507l2.227-9.651,2.97,12.826c4.582,2.893,9.139,5.888,13.67,8.934l11.238-48.819,15.309,66.432a224.5,224.5,0,0,0,24.09,13.389c2.688,1.254,5.427,2.432,8.166,3.533,64.794,25.959,139.494,7.245,206.515-14.592q51.686-16.819,102.6-35.789l14.515-62.976,12.16,52.864c2.688-1.024,5.325-2.074,8.013-3.123l5.581-24.269,4.659,20.275a2620.693,2620.693,0,0,0,249.984-113.792c.025,0,.025-.026.051-.026,1.715-.9,3.4-1.792,5.12-2.688q53.107-27.725,104.858-57.933l3.328-14.49,1.971-8.551,1.92,8.346,2.125,9.216c5.811-3.4,11.622-6.861,17.408-10.317,5.888-3.533,11.75-7.065,17.613-10.65,5.171-3.149,10.394-6.323,15.616-9.523,1.69-1.024,3.379-2.074,5.069-3.1l8.345-36.25,5.658-24.6,6.3,27.315,4.3,18.688c7.475-4.429,15-8.832,22.579-13.082l4.3-18.662,3.3,14.413c25.856-14.208,52.275-26.983,79.386-36.122l1.843-8.013,5.453-23.757.154-.615.154.615,4.071,17.715,4.1-17.792,8.038-34.893,9.6,34.714Z" transform="translate(0 -132.259)" fill="#d4d4d4"/>
    <path id="Path_12" data-name="Path 12" d="M1853.609,589.21l-27.563-48.284L1807.6,598.4l-13.5-32.107-14.582,47.25c-1.782.069-3.563.146-5.345.215l-18.483-80.973-8.773,55.672-18.15-79.506-16.947,107.546-.241.013L1702.1,581.1l-9.126,36.347q-37.624,1.935-75.369,4.273l-14.049-40.192-7.874,28.511L1581.9,559.821l-9.843,62.477-9.226-27.428-8.978,31.076q-13.67.968-27.343,1.979l-5.238-22.943-4.933,23.7q-5.476.411-10.946.837l-11.044-48.371-9.892,50.01q-12.795,1.018-25.577,2.076l-6.871-19.906-6.733,21.04q-54.846,4.639-109.327,9.987l-12.989-40.215-10.319,37.24-18.4-48.151-17.636,57.154q-10.575,1.114-21.123,2.245l-8.159-35.73-5.87,37.253q-3.468.376-6.933.758L1220.4,593.066l-10.171,64.556q-44.175,5-87.734,10.368l-16.23-36.907-10.4,34.271-7.5-23.36-6.907,31.165q-54.812,7.031-108.252,14.592l-18.7-69.558-17.047,74.686q-11.485,1.67-22.886,3.367l-3.9-17.257-4.933,18.568q-19.719,2.949-39.176,5.96l-26.25-85.066-28.449,74.468-15.959-57.592L773.3,705.3q-31.169-4.746-61.481-9.157L689.69,626.973l-21.7,62.886q-11.105-1.563-22.1-3.085L624.21,577.2,600.6,680.636c-1.426-.187-2.865-.382-4.288-.571l-13.737-66L568.346,676.4q-14.4-1.862-28.575-3.653L518.3,598.429l-14.267,42.414-15.224-96.62-21.315,77.652-12.178-44.091-27.4,78.4-23.718.54q-43.146-4.75-83.492-8.763l-17.784-70.835-14.666,54.787L261.676,465.547,234.1,591.624,220.04,502.408,189.542,636c-1.252-.1-2.522-.21-3.766-.312l-25.139-81.459-20.879,49.654L111.24,515,68.611,589.674,16.335,357.333S9.562,380.355,0,413.041V722.561H1920v-173.5c-14.5-50.145-32.589-110.08-32.589-110.08Z" transform="translate(0 -28.561)" fill="#fff" stroke="rgba(0,0,0,0)" stroke-miterlimit="10" stroke-width="1"/>
  </g>
</svg>
