<?xml version="1.0" encoding="utf-8"?>
<!-- Generator: Adobe Illustrator 19.1.0, SVG Export Plug-In . SVG Version: 6.00 Build 0)  -->
<svg version="1.0" xmlns="http://www.w3.org/2000/svg" xmlns:xlink="http://www.w3.org/1999/xlink" x="0px" y="0px"
	 viewBox="0 0 1700 978.924" enable-background="new 0 0 1700 978.924" xml:space="preserve">
<pattern  x="-1586.169" y="-571" width="490.25" height="490.25" patternUnits="userSpaceOnUse" id="Motivo_nuevo_3" viewBox="0 -490.25 490.25 490.25" overflow="visible">
	<g>
		<polygon fill="none" points="0,-490.25 490.25,-490.25 490.25,0 0,0 		"/>
		<path fill="#FFFFFF" d="M180.657-490.25c0.304,0.519,0.681,1.01,0.886,1.565c0.152,0.41,0.223,1.246,0.085,1.303
			c-0.673,0.279-1.429,0.475-2.151,0.46c-0.311-0.007-0.827-0.566-0.871-0.922c-0.098-0.786,0.046-1.602,0.091-2.405
			C179.35-490.25,180.004-490.25,180.657-490.25z"/>
		<path fill="#FFFFFF" d="M490.25-102.707c-0.335-0.131-0.813-0.167-0.974-0.412c-0.318-0.485-0.461-1.085-0.677-1.638
			c0.55-0.134,1.101-0.268,1.65-0.401C490.25-104.342,490.25-103.524,490.25-102.707z"/>
		<path fill="#FFFFFF" d="M0-105.403c0.848-0.12,1.334,0.227,1.283,1.103c-0.043,0.766-0.345,1.33-1.283,1.104
			C0-103.933,0-104.668,0-105.403z"/>
		<path fill="#FFFFFF" d="M122.806-163.377c0.861,0.5,1.727,0.993,2.577,1.511c0.118,0.072,0.214,0.268,0.224,0.413
			c0.068,0.964,0.178,1.932,0.141,2.893c-0.038,0.976-1.816,2.096-2.861,1.89c-1.742-0.342-2.335-1.189-2.084-2.917
			c0.036-0.25-0.088-0.527-0.154-0.788c-0.144-0.568-0.597-1.338-0.381-1.655c0.347-0.51,1.125-0.736,1.742-1.042
			c0.163-0.081,0.4-0.013,0.603-0.013C122.677-163.183,122.742-163.279,122.806-163.377z"/>
		<path fill="#FFFFFF" d="M167.349-262.934c-0.956-0.623-1.721-1.074-2.429-1.602c-0.348-0.258-0.54-0.73-0.893-0.979
			c-0.873-0.615-0.873-1.548-0.346-2.115c0.387-0.416,1.371-0.461,2.048-0.367c0.626,0.088,1.36,0.443,1.754,0.922
			c0.669,0.81,1.22,1.773,1.553,2.764C169.109-264.094,168.063-263.5,167.349-262.934z"/>
		<path fill="#FFFFFF" d="M410.513-22.612c1.121-0.018,2.189,0.022,2.251,1.564c0.007,0.172,0.281,0.372,0.474,0.492
			c0.997,0.623,1.104,1.115,0.436,2.149c-0.414,0.639-1.569,0.878-2.161,0.328c-0.915-0.851-1.772-1.773-2.577-2.729
			c-0.272-0.323-0.544-0.974-0.396-1.239c0.179-0.319,0.797-0.416,1.242-0.553C410.006-22.669,410.268-22.612,410.513-22.612z"/>
		<path fill="#FFFFFF" d="M27.67-87.161c0.292-0.686,0.409-1.738,0.914-1.979c1.074-0.514,1.621,0.482,2.099,1.323
			c0.135,0.239,0.392,0.407,0.583,0.616c0.494,0.542,0.549,1.066-0.07,1.563c-0.185,0.149-0.413,0.284-0.519,0.481
			c-0.264,0.488-0.196,1.402-1.123,1.037c-0.848-0.334-1.797-0.705-1.631-1.955c0.042-0.319,0.006-0.649,0.006-0.976
			C27.842-87.088,27.756-87.125,27.67-87.161z"/>
		<path fill="#FFFFFF" d="M104.574-192.588c1.414-0.172,2.057,0.931,2.737,1.685c0.734,0.816,0.03,2.153-1.077,2.211
			c-1.149,0.06-2.501,0.36-2.563-1.495c-0.002-0.075-0.042-0.171-0.098-0.219c-0.496-0.436-1.15-0.938-0.598-1.599
			C103.29-192.382,104.027-192.405,104.574-192.588z"/>
		<path fill="#FFFFFF" d="M423.967-244.215c1.028-0.854,2.244-0.602,2.81,0.684c0.504,1.146-0.786,1.342-1.208,1.991
			c-0.112,0.174-0.918,0.158-1.143-0.052c-0.697-0.651-1.293-1.421-1.867-2.189c-0.113-0.15,0.042-0.501,0.074-0.76
			C423.03-244.443,423.428-244.347,423.967-244.215z"/>
		<path fill="#FFFFFF" d="M276.11-331.125c-0.345,0.37-0.82,1.166-1.521,1.549c-0.677,0.369-0.959-0.373-0.998-0.968
			c-0.051-0.759,0.079-1.534-0.807-1.979c-0.155-0.078-0.224-0.662-0.099-0.875c0.15-0.259,0.535-0.486,0.845-0.525
			C274.495-334.043,276.075-332.563,276.11-331.125z"/>
		<path fill="#FFFFFF" d="M40.781-440.727c1.05,0.757,1.999,1.38,2.854,2.112c0.152,0.13-0.025,1.015-0.158,1.043
			c-0.597,0.128-1.258,0.185-1.848,0.052c-0.623-0.141-1.242-0.456-1.766-0.831c-0.33-0.235-0.759-0.923-0.662-1.057
			C39.54-439.871,40.088-440.181,40.781-440.727z"/>
		<path fill="#FFFFFF" d="M80.258-430.222c0.479,0.422,1.311,0.804,1.363,1.273c0.111,0.993-0.943,1.761-1.913,1.732
			c-1.048-0.03-1.298-0.671-1.266-1.55C78.482-429.81,79.163-430.023,80.258-430.222z"/>
		<path fill="#FFFFFF" d="M211.65-380.598c0.994-0.689,2.104-1.123,3.329-0.756c0.306,0.092,0.573,0.813,0.57,1.244
			c-0.001,0.254-0.613,0.76-0.871,0.713c-1.018-0.184-2.007-0.542-3.006-0.836C211.665-380.353,211.658-380.476,211.65-380.598z"/>
		<path fill="#FFFFFF" d="M262.654-238.313c0.579,0.546,1.329,1.16,1.284,1.224c-0.456,0.658-1.041,1.227-1.59,1.819
			c-0.485-0.58-0.971-1.16-1.456-1.74C261.409-237.393,261.927-237.775,262.654-238.313z"/>
		<path fill="#FFFFFF" d="M115.78-108.964c0.603,0.625,1.187,0.958,1.296,1.406c0.177,0.731-0.752,1.758-1.382,1.722
			c-1.031-0.06-1.316-0.895-1.239-1.642C114.502-107.929,115.171-108.314,115.78-108.964z"/>
		<path fill="#FFFFFF" d="M6.304-485.897c0.179-0.39,0.313-1.103,0.744-1.464c0.248-0.209,1.069,0.015,1.461,0.289
			c0.569,0.397,1.306,0.941,0.808,1.789c-0.145,0.245-0.839,0.326-1.223,0.234C7.53-485.185,7.02-485.543,6.304-485.897z"/>
		<path fill="#FFFFFF" d="M253.243-241.965c0.325,0,0.713-0.111,0.962,0.027c0.335,0.186,0.778,0.567,0.775,0.862
			c-0.002,0.296-0.448,0.752-0.781,0.844c-0.531,0.146-1.159,0.16-1.691,0.022c-0.417-0.109-0.994-0.477-1.076-0.827
			c-0.169-0.727,0.434-0.945,1.078-0.95c0.244-0.001,0.489,0,0.733,0C253.243-241.979,253.243-241.973,253.243-241.965z"/>
		<path fill="#FFFFFF" d="M246.364-348.585c-0.35,0.389-0.638,1.006-1.061,1.117c-0.825,0.218-1.079-0.485-1.173-1.175
			c-0.038-0.277-0.121-0.617-0.005-0.832c0.263-0.486,0.636-0.912,0.965-1.363c0.316,0.438,0.659,0.859,0.933,1.321
			c0.112,0.191,0.074,0.472,0.104,0.713C246.206-348.73,246.285-348.658,246.364-348.585z"/>
		<path fill="#FFFFFF" d="M49.401-431.242c0.036,0.713-2.193,2.207-2.75,1.919c-0.201-0.104-0.511-0.432-0.486-0.469
			c0.475-0.718,0.903-1.513,1.544-2.05c0.26-0.217,1.009,0.127,1.523,0.262C49.331-431.555,49.371-431.309,49.401-431.242z"/>
		<path fill="#FFFFFF" d="M49.857-426.449c-0.143,1.076-0.214,1.818-0.365,2.546c-0.031,0.148-0.381,0.346-0.551,0.317
			c-0.162-0.026-0.32-0.299-0.411-0.496c-0.212-0.463-0.423-0.933-0.56-1.42c-0.134-0.476-0.314-1.017-0.198-1.455
			c0.058-0.218,0.816-0.471,1.115-0.352C49.338-427.128,49.663-426.635,49.857-426.449z"/>
		<path fill="#FFFFFF" d="M164.088-260.299c-0.166,0.142-0.744,0.74-0.824,0.68c-0.667-0.505-1.242-1.131-1.846-1.72
			c0.405-0.291,0.791-0.79,1.219-0.829C163.625-262.259,164.117-261.652,164.088-260.299z"/>
		<path fill="#FFFFFF" d="M136.045-395.851c-1.228-0.041-1.991-0.792-1.88-1.681c0.042-0.336,0.457-0.625,0.702-0.936
			c0.643,0.585,1.303,1.154,1.886,1.793C136.788-396.635,136.202-396.029,136.045-395.851z"/>
		<path fill="#FFFFFF" d="M285.331-195.644c0.747,0.662,1.444,1.218,2.041,1.865c0.107,0.117-0.114,0.795-0.327,0.889
			c-0.292,0.129-0.766,0.035-1.08-0.124c-0.401-0.204-0.746-0.544-1.068-0.872c-0.23-0.235-0.585-0.609-0.523-0.81
			C284.469-195.005,284.873-195.218,285.331-195.644z"/>
		<path fill="#FFFFFF" d="M18.756-483.176c-0.089,2.184-0.916,2.897-2.259,2.279c-0.645-0.297-0.947-0.881-0.314-1.297
			C16.9-482.664,17.815-482.834,18.756-483.176z"/>
		<path fill="#FFFFFF" d="M408.542-14.519c-1.066-0.225-1.647-0.606-1.508-1.46c0.071-0.438,0.564-0.808,0.865-1.209
			c0.576,0.508,1.152,1.015,1.729,1.523C409.266-15.283,408.903-14.901,408.542-14.519z"/>
		<path fill="#FFFFFF" d="M397.072-210.63c0.172,0.177,0.645,0.459,0.787,0.859c0.192,0.538-1.045,1.581-1.887,1.565
			c-0.271-0.006-0.722-0.385-0.768-0.649C395.081-209.564,396.052-210.589,397.072-210.63z"/>
		<path fill="#FFFFFF" d="M115.831-226.777c0.473,0.56,1.009,1.079,1.389,1.695c0.176,0.285,0.144,0.799,0.009,1.129
			c-0.057,0.142-0.757,0.231-0.919,0.08c-0.459-0.425-0.899-0.942-1.132-1.512c-0.146-0.356,0.093-0.871,0.159-1.315
			C115.5-226.726,115.665-226.752,115.831-226.777z"/>
		<path fill="#FFFFFF" d="M459.269-133.65c-0.728-0.6-1.238-1.021-1.749-1.442c0.36-0.315,0.722-0.891,1.082-0.891
			c0.654,0.001,1.62-0.018,1.622,1.009C460.224-134.614,459.724-134.254,459.269-133.65z"/>
		<path fill="#FFFFFF" d="M117.318-285.939c0.567,0.629,1.165,0.988,1.207,1.403c0.089,0.881-0.683,0.93-1.358,0.928
			c-0.676-0.002-1.334-0.213-1.167-0.988C116.092-285.021,116.698-285.336,117.318-285.939z"/>
		<path fill="#FFFFFF" d="M203.846-377.535c0.709,0.83,1.205,1.35,1.582,1.945c0.039,0.063-0.863,0.88-0.934,0.826
			c-0.526-0.398-1.018-0.888-1.369-1.445C203.029-376.361,203.453-376.84,203.846-377.535z"/>
		<path fill="#FFFFFF" d="M385.129-331.648c-0.707,0.618-1.103,0.965-1.501,1.311c-0.313-0.435-0.845-0.857-0.871-1.31
			c-0.023-0.381,0.542-0.797,0.847-1.197C384.009-332.525,384.414-332.208,385.129-331.648z"/>
		<path fill="#FFFFFF" d="M383.805-301.449c-0.46-0.57-0.746-0.926-1.032-1.281c0.385-0.309,0.782-0.875,1.152-0.857
			c0.408,0.019,0.792,0.573,1.186,0.895C384.743-302.342,384.375-301.992,383.805-301.449z"/>
		<path fill="#FFFFFF" d="M381.859-151.628c-0.579,0.538-0.939,0.871-1.298,1.205c-0.287-0.411-0.8-0.822-0.799-1.232
			c0.001-0.4,0.526-0.801,0.821-1.2C380.938-152.516,381.29-152.176,381.859-151.628z"/>
		<path fill="#FFFFFF" d="M287.8-309.379c-0.549,0.543-0.878,0.868-1.207,1.193c-0.289-0.406-0.778-0.799-0.807-1.224
			c-0.024-0.355,0.489-0.745,0.765-1.12C286.906-310.202,287.262-309.875,287.8-309.379z"/>
		<path fill="#FFFFFF" d="M362.642-352.016c-0.573,0.494-0.929,0.801-1.285,1.108c-0.289-0.46-0.697-0.895-0.809-1.396
			c-0.045-0.198,0.621-0.811,0.869-0.761C361.803-352.986,362.107-352.504,362.642-352.016z"/>
		<path fill="#FFFFFF" d="M73.533-99.747c-0.55,0.45-0.946,1.006-1.239,0.955c-0.355-0.062-0.901-0.669-0.861-0.974
			c0.056-0.431,0.574-0.801,0.895-1.196C72.661-100.627,72.994-100.291,73.533-99.747z"/>
		<path fill="#FFFFFF" d="M361.338-469.227c-0.579-0.58-0.933-0.935-1.286-1.289c0.36-0.304,0.747-0.872,1.076-0.841
			c0.398,0.038,0.848,0.531,1.067,0.939C362.276-470.268,361.765-469.799,361.338-469.227z"/>
		<path fill="#FFFFFF" d="M123.262-190.374c-0.48-0.516-0.794-0.853-1.108-1.189c0.383-0.273,0.769-0.764,1.147-0.759
			c0.383,0.005,0.759,0.502,1.138,0.783C124.108-191.211,123.777-190.883,123.262-190.374z"/>
		<path fill="#FFFFFF" d="M222.621-414.696c-0.482-0.564-0.785-0.92-1.088-1.275c0.413-0.288,0.813-0.768,1.244-0.799
			c0.3-0.021,0.9,0.577,0.897,0.894C223.672-415.541,223.112-415.211,222.621-414.696z"/>
		<path fill="#FFFFFF" d="M177.556-392.487c-0.41-0.565-0.661-0.911-0.911-1.257c0.418-0.277,0.836-0.766,1.256-0.769
			c0.348-0.002,0.699,0.567,1.049,0.884C178.555-393.306,178.159-392.982,177.556-392.487z"/>
		<path fill="#FFFFFF" d="M111.823-124.538c-0.457-0.624-0.928-0.988-0.924-1.348c0.003-0.287,0.611-0.82,0.902-0.789
			c0.401,0.043,0.756,0.515,1.13,0.803C112.636-125.517,112.34-125.16,111.823-124.538z"/>
		<path fill="#FFFFFF" d="M226.35-323.859c-0.482,0.58-0.965,1.161-1.447,1.741c-0.274-0.235-0.775-0.46-0.787-0.708
			c-0.063-1.346,1.213-0.925,1.836-1.391C226.084-324.098,226.217-323.978,226.35-323.859z"/>
		<path fill="#FFFFFF" d="M337.273-482.493c-0.403-0.546-0.908-0.95-0.842-1.208c0.086-0.331,0.654-0.783,0.968-0.75
			c0.401,0.043,0.757,0.52,1.132,0.809C338.182-483.324,337.833-483.005,337.273-482.493z"/>
		<path fill="#FFFFFF" d="M368.735-240.026c-0.605,0.514-0.938,1.008-1.31,1.04c-0.267,0.023-0.843-0.594-0.817-0.887
			c0.031-0.374,0.472-0.871,0.846-1C367.688-240.953,368.121-240.454,368.735-240.026z"/>
		<path fill="#FFFFFF" d="M224.033-473.25c-0.508,0.512-0.832,0.839-1.157,1.166c-0.262-0.348-0.744-0.706-0.728-1.04
			c0.02-0.386,0.479-0.75,0.746-1.124C223.211-473.97,223.528-473.691,224.033-473.25z"/>
		<path fill="#FFFFFF" d="M230.19-35.191c0.225,0.407,0.634,0.822,0.617,1.219c-0.015,0.33-0.53,0.638-0.825,0.956
			c-0.297-0.308-0.813-0.599-0.837-0.927c-0.03-0.397,0.355-0.825,0.56-1.24C229.867-35.187,230.028-35.188,230.19-35.191z"/>
		<path fill="#FFFFFF" d="M481.976-294.908c-0.596,0.513-0.916,0.992-1.297,1.047c-0.262,0.037-0.607-0.518-0.915-0.808
			c0.354-0.304,0.671-0.697,1.08-0.87C481.025-295.616,481.395-295.248,481.976-294.908z"/>
		<path fill="#FFFFFF" d="M210.063-109.647c-0.672,0.4-1.082,0.837-1.376,0.769c-0.33-0.075-0.783-0.626-0.76-0.937
			c0.025-0.321,0.547-0.819,0.875-0.838C209.111-110.672,209.449-110.166,210.063-109.647z"/>
		<path fill="#FFFFFF" d="M255.035-405.848c-0.222-0.352-0.646-0.725-0.611-1.049c0.039-0.348,0.51-0.648,0.791-0.971
			c0.301,0.308,0.792,0.585,0.847,0.932c0.051,0.32-0.364,0.716-0.573,1.078C255.337-405.853,255.186-405.851,255.035-405.848z"/>
		<path fill="#FFFFFF" d="M225.824-245.811c-0.447-0.666-0.908-1.057-0.854-1.352c0.062-0.336,0.584-0.811,0.906-0.811
			c0.301-0.002,0.802,0.518,0.843,0.854C226.758-246.817,226.291-246.453,225.824-245.811z"/>
		<path fill="#FFFFFF" d="M239.98-436.855c-0.378-0.691-0.758-1.076-0.721-1.415c0.031-0.291,0.539-0.53,0.836-0.792
			c0.281,0.318,0.73,0.611,0.789,0.967C240.928-437.832,240.464-437.484,239.98-436.855z"/>
		<path fill="#FFFFFF" d="M468.53-226.237c0.421,0.663,0.828,1.023,0.811,1.363c-0.014,0.291-0.583,0.829-0.781,0.777
			c-0.355-0.094-0.776-0.51-0.858-0.863C467.642-225.216,468.086-225.589,468.53-226.237z"/>
		<path fill="#FFFFFF" d="M193.822-249.078c-0.634,0.368-1.001,0.755-1.295,0.706c-0.316-0.053-0.564-0.515-0.843-0.798
			c0.318-0.281,0.608-0.726,0.965-0.788C192.904-250.003,193.248-249.533,193.822-249.078z"/>
		<path fill="#FFFFFF" d="M422.334-224.769c-0.702,0.351-1.099,0.715-1.439,0.667c-0.286-0.04-0.768-0.655-0.697-0.844
			c0.127-0.343,0.578-0.726,0.934-0.77C421.398-225.747,421.727-225.272,422.334-224.769z"/>
		<path fill="#FFFFFF" d="M197.625-361.176c-0.351,0.223-0.707,0.623-1.049,0.611c-0.285-0.009-0.77-0.498-0.774-0.78
			c-0.004-0.3,0.434-0.821,0.718-0.851c0.341-0.034,0.726,0.35,1.091,0.553C197.615-361.486,197.62-361.332,197.625-361.176z"/>
		<path fill="#FFFFFF" d="M146.33-155.113c-0.604,0.398-0.982,0.833-1.238,0.77c-0.355-0.087-0.618-0.549-0.92-0.85
			c0.325-0.276,0.622-0.715,0.983-0.774C145.415-156.011,145.759-155.551,146.33-155.113z"/>
		<path fill="#FFFFFF" d="M109.698-187.323c-0.35,0.23-0.703,0.643-1.047,0.635c-0.29-0.006-0.774-0.487-0.793-0.781
			c-0.018-0.283,0.427-0.807,0.715-0.843c0.341-0.042,0.733,0.326,1.102,0.517C109.683-187.639,109.69-187.48,109.698-187.323z"/>
		<path fill="#FFFFFF" d="M201.967-116.637c-0.682,0.375-1.092,0.778-1.344,0.696c-0.342-0.112-0.719-0.569-0.775-0.927
			c-0.032-0.204,0.554-0.719,0.843-0.704C201.03-117.556,201.35-117.117,201.967-116.637z"/>
		<path fill="#FFFFFF" d="M247.479-113.649c-0.692,0.394-1.072,0.78-1.416,0.751c-0.285-0.024-0.789-0.615-0.73-0.82
			c0.1-0.343,0.543-0.746,0.895-0.805C246.493-114.568,246.843-114.117,247.479-113.649z"/>
		<path fill="#FFFFFF" d="M372.832-110.747c-0.693,0.453-1.046,0.858-1.392,0.853c-0.275-0.004-0.542-0.512-0.813-0.796
			c0.313-0.287,0.59-0.712,0.955-0.813C371.817-111.569,372.185-111.16,372.832-110.747z"/>
		<path fill="#FFFFFF" d="M36.125-104.607c-0.596,0.405-0.961,0.843-1.23,0.79c-0.357-0.069-0.638-0.523-0.952-0.812
			c0.32-0.279,0.613-0.722,0.971-0.783C35.186-105.458,35.54-105.019,36.125-104.607z"/>
		<path fill="#FFFFFF" d="M289.611-33.606c-0.42-0.578-0.87-0.935-0.82-1.195c0.068-0.356,0.517-0.642,0.802-0.957
			c0.292,0.311,0.745,0.587,0.82,0.944C290.468-34.556,290.021-34.191,289.611-33.606z"/>
		<path fill="#FFFFFF" d="M318.214-345.087c-0.683,0.38-1.092,0.786-1.344,0.704c-0.345-0.111-0.571-0.592-0.849-0.914
			c0.303-0.26,0.613-0.733,0.906-0.723C317.268-346.006,317.591-345.566,318.214-345.087z"/>
		<path fill="#FFFFFF" d="M154.151-343.428c0.409,0.578,0.852,0.938,0.799,1.195c-0.075,0.355-0.521,0.634-0.81,0.945
			c-0.289-0.313-0.741-0.592-0.814-0.949C153.273-342.49,153.729-342.85,154.151-343.428z"/>
		<path fill="#FFFFFF" d="M47.958-319.599c-0.4-0.691-0.791-1.067-0.759-1.404c0.028-0.294,0.531-0.544,0.824-0.814
			c0.284,0.315,0.729,0.6,0.797,0.958C48.87-320.599,48.423-320.243,47.958-319.599z"/>
		<path fill="#FFFFFF" d="M114.643-222.146c0.434,0.603,0.856,0.938,0.868,1.286c0.009,0.265-0.505,0.547-0.787,0.821
			c-0.285-0.321-0.681-0.605-0.811-0.98C113.847-221.213,114.252-221.569,114.643-222.146z"/>
		<path fill="#FFFFFF" d="M412.847-353.043c-0.376-0.615-0.801-1.017-0.725-1.258c0.109-0.342,0.588-0.567,0.908-0.843
			c0.244,0.308,0.672,0.61,0.682,0.926C413.722-353.922,413.291-353.611,412.847-353.043z"/>
		<path fill="#FFFFFF" d="M423.049-147.77c-0.438-0.658-0.855-1.011-0.842-1.349c0.01-0.295,0.503-0.573,0.782-0.858
			c0.301,0.3,0.76,0.562,0.849,0.914C423.901-148.807,423.474-148.428,423.049-147.77z"/>
		<path fill="#FFFFFF" d="M140.004-86.165c-0.364,0.203-0.745,0.587-1.087,0.555c-0.289-0.027-0.743-0.538-0.738-0.83
			c0.004-0.287,0.481-0.78,0.771-0.796c0.343-0.018,0.707,0.38,1.063,0.597C140.009-86.481,140.007-86.323,140.004-86.165z"/>
		<path fill="#FFFFFF" d="M363.406-38.745c-0.344,0.238-0.688,0.657-1.032,0.656c-0.286,0-0.779-0.476-0.8-0.771
			c-0.021-0.286,0.411-0.819,0.697-0.858c0.34-0.047,0.735,0.318,1.107,0.505C363.388-39.057,363.397-38.9,363.406-38.745z"/>
		<path fill="#FFFFFF" d="M481.961-304.648c-0.685,0.377-1.099,0.782-1.347,0.699c-0.345-0.117-0.567-0.6-0.842-0.926
			c0.306-0.256,0.62-0.727,0.913-0.713C481.024-305.572,481.344-305.131,481.961-304.648z"/>
		<path fill="#FFFFFF" d="M484.62-208.487c-0.37-0.608-0.76-0.965-0.719-1.26c0.045-0.311,0.501-0.563,0.777-0.842
			c0.288,0.307,0.743,0.583,0.808,0.932C485.534-209.404,485.064-209.056,484.62-208.487z"/>
		<path fill="#FFFFFF" d="M284.544-183.224c-0.411-0.589-0.86-0.964-0.798-1.208c0.088-0.345,0.555-0.594,0.859-0.884
			c0.261,0.291,0.704,0.566,0.731,0.879C285.363-184.143,284.951-183.81,284.544-183.224z"/>
		<path fill="#FFFFFF" d="M246.137-432.895c0.588,0.692,1.058,1.247,1.528,1.801c-0.173,0.127-0.46,0.395-0.503,0.359
			c-0.541-0.436-1.058-0.904-1.539-1.405C245.59-432.176,245.881-432.524,246.137-432.895z"/>
		<path fill="#FFFFFF" d="M73.499-440.874c-0.313,0.138-0.67,0.439-0.931,0.371c-0.349-0.09-0.624-0.466-0.931-0.72
			c0.268-0.235,0.556-0.682,0.8-0.66c0.385,0.035,0.74,0.387,1.108,0.603C73.531-441.145,73.515-441.009,73.499-440.874z"/>
		<path fill="#FFFFFF" d="M345.292-253.451c0.366,0.642,0.755,1.018,0.697,1.305c-0.063,0.305-0.56,0.742-0.841,0.723
			c-0.278-0.019-0.712-0.522-0.729-0.833C344.403-252.549,344.84-252.867,345.292-253.451z"/>
		<path fill="#FFFFFF" d="M83.476-417.195c0.374,0.611,0.801,1.016,0.722,1.25c-0.114,0.34-0.592,0.558-0.915,0.828
			c-0.243-0.307-0.668-0.608-0.676-0.922C82.598-416.332,83.031-416.637,83.476-417.195z"/>
		<path fill="#FFFFFF" d="M476.855-279.386c-0.67,0.374-1.061,0.767-1.329,0.697c-0.303-0.079-0.642-0.561-0.68-0.899
			c-0.023-0.205,0.503-0.67,0.768-0.658C475.934-280.233,476.237-279.84,476.855-279.386z"/>
		<path fill="#FFFFFF" d="M214.052-387.592c-0.642,0.383-1.008,0.777-1.295,0.727c-0.309-0.057-0.763-0.542-0.747-0.818
			c0.016-0.284,0.502-0.728,0.815-0.757C213.115-388.467,213.445-388.036,214.052-387.592z"/>
		<path fill="#FFFFFF" d="M53.062-14.393c-0.406-0.654-0.81-1.019-0.759-1.3c0.055-0.303,0.511-0.675,0.842-0.733
			c0.199-0.035,0.689,0.468,0.695,0.735C53.847-15.369,53.476-15.041,53.062-14.393z"/>
		<path fill="#FFFFFF" d="M293.905-164.266c-0.65,0.411-1.012,0.817-1.292,0.768c-0.304-0.054-0.676-0.506-0.738-0.837
			c-0.036-0.196,0.462-0.688,0.73-0.695C292.925-165.04,293.255-164.673,293.905-164.266z"/>
		<path fill="#FFFFFF" d="M41.653-455.156c-0.128-0.375-0.409-0.782-0.342-1.119c0.063-0.322,0.486-0.789,0.758-0.794
			c0.297-0.005,0.602,0.448,0.904,0.7c-0.23,0.275-0.461,0.551-0.692,0.825C42.072-455.414,41.862-455.285,41.653-455.156z"/>
		<path fill="#FFFFFF" d="M412.003-370.411c-0.512,0.339-0.832,0.716-1.103,0.683c-0.286-0.033-0.524-0.459-0.783-0.715
			c0.284-0.268,0.537-0.686,0.863-0.754C411.201-371.244,411.525-370.799,412.003-370.411z"/>
		<path fill="#FFFFFF" d="M438.341-4.482c-0.572,0.337-0.91,0.692-1.223,0.671c-0.259-0.018-0.487-0.479-0.729-0.743
			c0.285-0.261,0.544-0.671,0.867-0.731C437.486-5.329,437.805-4.901,438.341-4.482z"/>
		<path fill="#FFFFFF" d="M365.484-261.327c-0.477,0.366-0.805,0.794-1.024,0.745c-0.319-0.072-0.559-0.488-0.834-0.759
			c0.262-0.244,0.508-0.657,0.789-0.683C364.685-262.049,364.991-261.67,365.484-261.327z"/>
		<path fill="#FFFFFF" d="M243.049-467.685c-0.235-0.488-0.483-0.854-0.427-0.909c0.475-0.466,1.003-0.878,1.532-1.282
			c0.017-0.013,0.362,0.336,0.344,0.361C244.086-468.958,243.645-468.422,243.049-467.685z"/>
		<path fill="#FFFFFF" d="M239.13-397.704c-0.5,0.329-0.857,0.73-1.07,0.663c-0.312-0.096-0.52-0.527-0.771-0.815
			c0.276-0.225,0.55-0.617,0.831-0.622C238.388-398.481,238.663-398.083,239.13-397.704z"/>
		<path fill="#FFFFFF" d="M43.038-423.131c0.32,0.549,0.68,0.891,0.631,1.157c-0.05,0.278-0.496,0.483-0.77,0.721
			c-0.235-0.275-0.644-0.544-0.654-0.827C42.236-422.352,42.642-422.637,43.038-423.131z"/>
		<path fill="#FFFFFF" d="M127.791-355.935c-0.41,0.35-0.684,0.582-0.957,0.814c-0.218-0.336-0.58-0.662-0.603-1.011
			c-0.016-0.226,0.462-0.486,0.718-0.731C127.19-356.597,127.432-356.33,127.791-355.935z"/>
		<path fill="#FFFFFF" d="M51.005-88.38c-0.336-0.52-0.705-0.84-0.667-1.1c0.04-0.274,0.47-0.491,0.73-0.732
			c0.241,0.26,0.652,0.507,0.674,0.785C51.764-89.166,51.374-88.872,51.005-88.38z"/>
		<path fill="#FFFFFF" d="M322.919-466.225c0.338,0.605,0.645,0.904,0.613,1.162c-0.04,0.326-0.357,0.617-0.555,0.924
			c-0.209-0.252-0.569-0.493-0.588-0.76C322.366-465.217,322.634-465.557,322.919-466.225z"/>
		<path fill="#FFFFFF" d="M409.947-276.387c-0.379-0.512-0.733-0.783-0.751-1.076c-0.015-0.235,0.414-0.721,0.583-0.695
			c0.307,0.049,0.736,0.357,0.796,0.628C410.63-277.279,410.27-276.935,409.947-276.387z"/>
		<path fill="#FFFFFF" d="M78.396-218.671c-0.371-0.541-0.748-0.85-0.721-1.116c0.028-0.276,0.449-0.513,0.699-0.767
			c0.231,0.231,0.638,0.455,0.648,0.695C79.033-219.558,78.718-219.244,78.396-218.671z"/>
		<path fill="#FFFFFF" d="M80.338-204.679c0.339,0.442,0.732,0.749,0.683,0.941c-0.076,0.297-0.456,0.516-0.707,0.767
			c-0.219-0.241-0.59-0.47-0.614-0.73C79.679-203.945,80.022-204.223,80.338-204.679z"/>
		<path fill="#FFFFFF" d="M238.084-442.253c0.316,0.501,0.648,0.8,0.641,1.09c-0.006,0.226-0.512,0.66-0.664,0.609
			c-0.293-0.099-0.627-0.446-0.688-0.743C237.331-441.501,237.723-441.793,238.084-442.253z"/>
		<path fill="#FFFFFF" d="M370.484-327.032c-0.465,0.362-0.761,0.756-0.965,0.713c-0.299-0.063-0.642-0.401-0.744-0.698
			c-0.05-0.147,0.392-0.654,0.617-0.658C369.685-327.682,369.984-327.349,370.484-327.032z"/>
		<path fill="#FFFFFF" d="M90.469-236.551c0.365-0.371,0.73-0.741,1.096-1.112c0.178,0.187,0.524,0.521,0.51,0.539
			c-0.341,0.387-0.722,0.74-1.095,1.099C90.809-236.2,90.639-236.376,90.469-236.551z"/>
		<path fill="#FFFFFF" d="M221.221-486.795c-0.341-0.314-0.682-0.63-1.023-0.945c0.233-0.217,0.466-0.433,0.699-0.649
			c0.291,0.371,0.582,0.741,0.873,1.112C221.586-487.116,221.404-486.955,221.221-486.795z"/>
		<path fill="#FFFFFF" d="M436.136-154.184c-0.404,0.341-0.684,0.745-0.887,0.709c-0.299-0.052-0.543-0.418-0.811-0.65
			c0.252-0.25,0.471-0.631,0.766-0.703C435.404-154.878,435.711-154.495,436.136-154.184z"/>
		<path fill="#FFFFFF" d="M235.1-215.726c-0.584,0.311-0.908,0.622-1.197,0.593c-0.227-0.022-0.582-0.478-0.566-0.72
			c0.014-0.236,0.436-0.635,0.662-0.624C234.29-216.464,234.566-216.113,235.1-215.726z"/>
		<path fill="#FFFFFF" d="M325.541-183.378c-0.61,0.241-0.938,0.493-1.211,0.443c-0.257-0.047-0.456-0.411-0.682-0.635
			c0.295-0.152,0.585-0.408,0.887-0.424C324.769-184.005,325.018-183.715,325.541-183.378z"/>
		<path fill="#FFFFFF" d="M160.244-305.761c0.316,0.459,0.659,0.739,0.636,0.983c-0.024,0.26-0.398,0.485-0.618,0.727
			c-0.25-0.253-0.629-0.474-0.703-0.77C159.511-305.015,159.904-305.318,160.244-305.761z"/>
		<path fill="#FFFFFF" d="M244.109-475.578c-0.457,0.322-0.775,0.703-0.969,0.647c-0.293-0.084-0.499-0.473-0.742-0.733
			c0.251-0.211,0.493-0.573,0.755-0.588C243.398-476.268,243.664-475.912,244.109-475.578z"/>
		<path fill="#FFFFFF" d="M61.142-19.691c0.332,0.437,0.691,0.702,0.679,0.949c-0.012,0.26-0.379,0.503-0.592,0.753
			c-0.261-0.243-0.651-0.448-0.736-0.741C60.438-18.924,60.823-19.244,61.142-19.691z"/>
		<path fill="#FFFFFF" d="M231.904-481.65c0.365,0.43,0.775,0.715,0.736,0.91c-0.059,0.299-0.43,0.537-0.668,0.801
			c-0.232-0.229-0.617-0.438-0.654-0.693C231.283-480.879,231.611-481.176,231.904-481.65z"/>
		<path fill="#FFFFFF" d="M37.885-26.853c-0.42,0.358-0.709,0.772-0.905,0.732c-0.299-0.062-0.534-0.437-0.795-0.679
			c0.231-0.233,0.441-0.623,0.699-0.657C37.129-27.487,37.423-27.149,37.885-26.853z"/>
		<path fill="#FFFFFF" d="M444.33-189.509c0.287,0.466,0.648,0.807,0.581,0.998c-0.101,0.286-0.501,0.467-0.774,0.692
			c-0.196-0.262-0.549-0.525-0.546-0.785C443.595-188.85,443.969-189.091,444.33-189.509z"/>
		<path fill="#FFFFFF" d="M256.17-283.552c-0.291-0.495-0.614-0.801-0.57-1.038c0.048-0.251,0.443-0.438,0.687-0.652
			c0.214,0.246,0.584,0.484,0.596,0.739C256.895-284.262,256.529-284.004,256.17-283.552z"/>
		<path fill="#FFFFFF" d="M219.848-75.366c-0.293-0.436-0.631-0.72-0.6-0.954c0.033-0.248,0.488-0.67,0.637-0.623
			c0.294,0.091,0.629,0.422,0.701,0.714C220.629-76.055,220.205-75.765,219.848-75.366z"/>
		<path fill="#FFFFFF" d="M474.503-55.907c-0.365,0.234-0.656,0.523-0.758,0.467c-0.306-0.167-0.537-0.47-0.798-0.72
			c0.227-0.186,0.503-0.558,0.67-0.514C473.901-56.6,474.117-56.264,474.503-55.907z"/>
		<path fill="#FFFFFF" d="M47.287-50.263c-0.365,0.678-0.521,1.146-0.83,1.466c-0.159,0.165-0.592,0.066-0.9,0.087
			c0.062-0.277,0.032-0.673,0.205-0.808C46.118-49.796,46.582-49.935,47.287-50.263z"/>
		<path fill="#FFFFFF" d="M24.705-46.036c-0.286-0.452-0.614-0.74-0.581-0.979c0.035-0.253,0.413-0.458,0.641-0.684
			c0.24,0.256,0.609,0.484,0.674,0.778C25.48-46.734,25.066-46.449,24.705-46.036z"/>
		<path fill="#FFFFFF" d="M158.174-194.658c-0.449,0.359-0.709,0.727-0.949,0.716c-0.254-0.014-0.666-0.378-0.682-0.61
			c-0.015-0.228,0.355-0.635,0.608-0.681C157.388-195.275,157.691-194.948,158.174-194.658z"/>
		<path fill="#FFFFFF" d="M398.748-1.479c-0.498,0.308-0.768,0.603-1.036,0.599c-0.207-0.003-0.604-0.425-0.568-0.579
			c0.063-0.273,0.369-0.641,0.617-0.678C397.986-2.17,398.27-1.817,398.748-1.479z"/>
		<path fill="#FFFFFF" d="M176.607-486.566c0.309,0.422,0.492,0.674,0.678,0.926c-0.268,0.18-0.527,0.479-0.806,0.498
			c-0.193,0.014-0.604-0.392-0.577-0.551C175.947-485.958,176.268-486.175,176.607-486.566z"/>
		<path fill="#FFFFFF" d="M56.085-287.559c-0.5,0.313-0.802,0.648-1.028,0.604c-0.247-0.05-0.532-0.428-0.59-0.707
			c-0.03-0.145,0.396-0.547,0.609-0.541C55.342-288.195,55.599-287.889,56.085-287.559z"/>
		<path fill="#FFFFFF" d="M25.755-336.053c-0.508,0.297-0.821,0.625-1.048,0.574c-0.245-0.056-0.517-0.447-0.566-0.729
			c-0.025-0.147,0.414-0.537,0.624-0.523C25.032-336.713,25.28-336.398,25.755-336.053z"/>
		<path fill="#FFFFFF" d="M2.454-212.764c0.355,0.47,0.674,0.712,0.696,0.978c0.018,0.211-0.364,0.658-0.51,0.635
			c-0.284-0.046-0.681-0.308-0.743-0.554C1.841-211.929,2.165-212.249,2.454-212.764z"/>
		<path fill="#FFFFFF" d="M484.653-212.861c-0.453,0.359-0.716,0.726-0.946,0.706c-0.247-0.021-0.574-0.373-0.65-0.642
			c-0.043-0.153,0.334-0.594,0.542-0.607C483.864-213.423,484.149-213.14,484.653-212.861z"/>
		<path fill="#FFFFFF" d="M394.665-452.385c-0.295-0.473-0.627-0.771-0.585-1.002c0.046-0.248,0.448-0.607,0.681-0.597
			c0.226,0.011,0.589,0.421,0.602,0.671C395.374-453.076,395.011-452.819,394.665-452.385z"/>
		<path fill="#FFFFFF" d="M294.643-75.328c-0.489,0.335-0.776,0.683-1.005,0.647c-0.249-0.04-0.549-0.407-0.616-0.684
			c-0.035-0.146,0.373-0.564,0.583-0.566C293.872-75.934,294.143-75.639,294.643-75.328z"/>
		<path fill="#FFFFFF" d="M52.005-475.432c-0.286-0.535-0.584-0.84-0.544-1.089c0.041-0.256,0.414-0.458,0.641-0.683
			c0.199,0.248,0.543,0.492,0.554,0.748C52.667-476.199,52.342-475.93,52.005-475.432z"/>
		<path fill="#FFFFFF" d="M456.295-342.1c0.357,0.404,0.723,0.646,0.696,0.829c-0.041,0.274-0.315,0.601-0.575,0.72
			c-0.122,0.057-0.612-0.304-0.63-0.503C455.763-341.317,456.038-341.608,456.295-342.1z"/>
		<path fill="#FFFFFF" d="M436.101-308.757c-0.477,0.277-0.753,0.563-1.016,0.552c-0.2-0.01-0.582-0.478-0.532-0.6
			c0.107-0.265,0.415-0.556,0.687-0.609C435.42-309.449,435.679-309.096,436.101-308.757z"/>
		<path fill="#FFFFFF" d="M214.73-397.716c-0.451,0.29-0.737,0.608-0.916,0.558c-0.262-0.077-0.446-0.418-0.664-0.645
			c0.207-0.195,0.424-0.556,0.621-0.546C214.033-398.336,214.281-398.033,214.73-397.716z"/>
		<path fill="#FFFFFF" d="M388.675-282.559c-0.32-0.477-0.66-0.762-0.627-0.992c0.035-0.242,0.402-0.538,0.673-0.602
			c0.145-0.034,0.557,0.371,0.556,0.576C389.274-283.31,388.981-283.045,388.675-282.559z"/>
		<path fill="#FFFFFF" d="M381.474-217.894c-0.286-0.492-0.613-0.808-0.556-1.022c0.063-0.24,0.463-0.497,0.742-0.53
			c0.156-0.019,0.532,0.416,0.511,0.615C382.143-218.567,381.823-218.335,381.474-217.894z"/>
	</g>
</pattern>
<g id="background">
	<g>
		<defs>
			<rect id="SVGID_1_" x="-22.831" y="-16.028" width="1745.662" height="1010.98"/>
		</defs>
		<clipPath id="SVGID_2_">
			<use xlink:href="#SVGID_1_"  overflow="visible"/>
		</clipPath>
		
			<linearGradient id="SVGID_3_" gradientUnits="userSpaceOnUse" x1="-40.7112" y1="490.7828" x2="1686.9073" y2="490.7828" gradientTransform="matrix(1 0 0 1 30.2615 0)">
			<stop  offset="0" style="stop-color:#DAACFF"/>
			<stop  offset="1" style="stop-color:#B62296"/>
		</linearGradient>
		<rect x="-10.45" y="-15.742" clip-path="url(#SVGID_2_)" fill="url(#SVGID_3_)" width="1727.619" height="1013.05"/>
		<g clip-path="url(#SVGID_2_)">
			<path fill="none" stroke="#FFFFFF" stroke-miterlimit="10" d="M-103.935,1205.29c0,0,276.793-336.149,723.096-252.98
				c162.491,30.28,472.842,185.063,922.119-228.432c117.473-108.119,247.428-451.638,247.428-451.638"/>
			<path fill="none" stroke="#FFFFFF" stroke-miterlimit="10" d="M-110.2,1195.557c0,0,285.629-361.109,731.932-277.94
				c162.491,30.28,472.842,185.063,922.119-228.432c117.473-108.119,240.39-425.956,240.39-425.956"/>
			<path fill="none" stroke="#FFFFFF" stroke-miterlimit="10" d="M-116.465,1185.825c0,0,294.466-386.07,740.769-302.901
				c162.491,30.28,472.842,185.063,922.119-228.433c117.473-108.119,233.352-400.273,233.352-400.273"/>
			<path fill="none" stroke="#FFFFFF" stroke-miterlimit="10" d="M-122.73,1176.092c0,0,303.302-411.031,749.605-327.862
				c162.491,30.28,472.842,185.063,922.119-228.433c117.473-108.119,226.314-374.591,226.314-374.591"/>
			<path fill="none" stroke="#FFFFFF" stroke-miterlimit="10" d="M-128.995,1166.36c0,0,312.139-435.992,758.441-352.823
				c162.491,30.28,472.843,185.063,922.119-228.433c117.473-108.118,219.276-348.908,219.276-348.908"/>
			<path fill="none" stroke="#FFFFFF" stroke-miterlimit="10" d="M-135.26,1156.627c0,0,320.975-460.953,767.278-377.784
				c162.491,30.28,472.843,185.063,922.119-228.433c117.473-108.118,212.238-323.225,212.238-323.225"/>
			<path fill="none" stroke="#FFFFFF" stroke-miterlimit="10" d="M-141.525,1146.895c0,0,329.811-485.914,776.114-402.745
				c162.491,30.28,472.843,185.063,922.119-228.433c117.474-108.118,205.2-297.543,205.2-297.543"/>
			<path fill="none" stroke="#FFFFFF" stroke-miterlimit="10" d="M-147.79,1137.162c0,0,338.648-510.875,784.95-427.705
				c162.491,30.28,472.842,185.063,922.118-228.433c117.474-108.118,198.162-271.86,198.162-271.86"/>
			<path fill="none" stroke="#FFFFFF" stroke-miterlimit="10" d="M-154.055,1127.429c0,0,347.484-535.835,793.786-452.666
				c162.491,30.28,472.842,185.063,922.118-228.434c117.474-108.118,191.124-246.178,191.124-246.178"/>
			<path fill="none" stroke="#FFFFFF" stroke-miterlimit="10" d="M-160.32,1117.697c0,0,356.32-560.796,802.623-477.627
				c162.492,30.28,472.842,185.063,922.118-228.434c117.474-108.118,184.086-220.495,184.086-220.495"/>
			<path fill="none" stroke="#FFFFFF" stroke-miterlimit="10" d="M-166.585,1107.964c0,0,365.157-585.757,811.459-502.588
				c162.492,30.28,472.842,185.063,922.118-228.434C1684.466,268.825,1744.04,182.13,1744.04,182.13"/>
			<path fill="none" stroke="#FFFFFF" stroke-miterlimit="10" d="M-172.85,1098.232c0,0,373.993-610.718,820.295-527.549
				c162.492,30.28,472.842,185.063,922.118-228.434c117.474-108.118,170.01-169.13,170.01-169.13"/>
		</g>
		<g opacity="0.5" clip-path="url(#SVGID_2_)">
			<path fill="none" stroke="#FFFFFF" stroke-miterlimit="10" d="M1819.235-181.796c0,0-361.137,243.291-765.21,36.34
				c-147.115-75.347-400.463-312.183-948.976-43.927C-38.371-119.24-260.866,172.976-260.866,172.976"/>
			<path fill="none" stroke="#FFFFFF" stroke-miterlimit="10" d="M1822.465-170.681c0,0-376.723,264.697-780.795,57.746
				c-147.116-75.347-400.463-312.183-948.976-43.927C-50.727-86.719-259.153,182.887-259.153,182.887"/>
			<path fill="none" stroke="#FFFFFF" stroke-miterlimit="10" d="M1825.696-159.566c0,0-392.308,286.103-796.381,79.152
				c-147.116-75.347-400.463-312.183-948.976-43.927c-143.421,70.143-337.78,317.138-337.78,317.138"/>
			<path fill="none" stroke="#FFFFFF" stroke-miterlimit="10" d="M1828.926-148.451c0,0-407.894,307.508-811.966,100.558
				C869.844-123.241,616.497-360.077,67.984-91.82C-75.437-21.678-255.728,202.708-255.728,202.708"/>
			<path fill="none" stroke="#FFFFFF" stroke-miterlimit="10" d="M1832.157-137.337c0,0-423.479,328.914-827.552,121.963
				C857.489-90.72,604.142-327.556,55.629-59.3C-87.792,10.843-254.015,212.618-254.015,212.618"/>
			<path fill="none" stroke="#FFFFFF" stroke-miterlimit="10" d="M1835.387-126.222c0,0-439.065,350.32-843.137,143.369
				C845.134-58.2,591.787-295.035,43.274-26.779c-143.421,70.142-295.577,249.307-295.577,249.307"/>
			<path fill="none" stroke="#FFFFFF" stroke-miterlimit="10" d="M1838.618-115.107c0,0-454.651,371.726-858.723,164.775
				C832.779-25.679,579.432-262.515,30.919,5.742C-112.502,75.884-250.59,232.439-250.59,232.439"/>
			<path fill="none" stroke="#FFFFFF" stroke-miterlimit="10" d="M1841.848-103.993c0,0-470.236,393.132-874.308,186.181
				C820.424,6.842,567.077-229.994,18.564,38.263c-143.421,70.142-267.442,204.086-267.442,204.086"/>
			<path fill="none" stroke="#FFFFFF" stroke-miterlimit="10" d="M1845.078-92.878c0,0-485.822,414.538-889.894,207.587
				C808.068,39.362,554.722-197.474,6.209,70.784C-137.213,140.925-247.165,252.26-247.165,252.26"/>
			<path fill="none" stroke="#FFFFFF" stroke-miterlimit="10" d="M1848.309-81.763c0,0-501.407,435.944-905.479,228.993
				C795.713,71.883,542.367-164.953-6.146,103.305C-149.568,173.446-245.452,262.17-245.452,262.17"/>
			<path fill="none" stroke="#FFFFFF" stroke-miterlimit="10" d="M1851.539-70.648c0,0-516.993,457.35-921.065,250.399
				c-147.116-75.347-400.463-312.183-948.975-43.925C-161.923,205.967-243.74,272.081-243.74,272.081"/>
			<path fill="none" stroke="#FFFFFF" stroke-miterlimit="10" d="M1854.77-59.534c0,0-532.578,478.756-936.65,271.805
				C771.003,136.924,517.657-99.912-30.856,168.346c-143.422,70.141-211.171,113.645-211.171,113.645"/>
		</g>
		<g clip-path="url(#SVGID_2_)">
			
				<linearGradient id="SVGID_4_" gradientUnits="userSpaceOnUse" x1="-40.7112" y1="488.4481" x2="2066.2617" y2="488.4481" gradientTransform="matrix(1 0 0 1 30.2615 0)">
				<stop  offset="0" style="stop-color:#B459FF"/>
				<stop  offset="1" style="stop-color:#FF09DA"/>
			</linearGradient>
			<path fill="url(#SVGID_4_)" d="M-10.45-121.666c0,0,169.22,543.902,678.433,783.055
				c319.171,149.898,682.165,155.018,1428.54-46.032v483.206H-10.45V-121.666z"/>
		</g>
		<g opacity="0.57" clip-path="url(#SVGID_2_)">
			
				<linearGradient id="SVGID_5_" gradientUnits="userSpaceOnUse" x1="-40.7112" y1="487.3752" x2="2066.2617" y2="487.3752" gradientTransform="matrix(1 0 0 1 30.2615 0)">
				<stop  offset="0" style="stop-color:#B459FF"/>
				<stop  offset="1" style="stop-color:#FF09DA"/>
			</linearGradient>
			<path fill="url(#SVGID_5_)" d="M-10.45-121.666l374.703-2.146c216.595,656.225,535.994,1263.213,1732.27,1174.049v48.325H-10.45
				V-121.666z"/>
		</g>
		<g opacity="0.57" clip-path="url(#SVGID_2_)">
			
				<linearGradient id="SVGID_6_" gradientUnits="userSpaceOnUse" x1="-44.1132" y1="677.246" x2="2070.2119" y2="677.246" gradientTransform="matrix(1 0 0 1 30.2615 0)">
				<stop  offset="0" style="stop-color:#50008B"/>
				<stop  offset="1" style="stop-color:#B459FF"/>
			</linearGradient>
			<path fill="url(#SVGID_6_)" d="M-13.852,871.551c0,0,1638.325,509.936,2114.325-619.567l-3.95,850.524l-2110.375-7.891V871.551z"
				/>
		</g>
		
			<linearGradient id="SVGID_7_" gradientUnits="userSpaceOnUse" x1="2107.4036" y1="538.671" x2="-2.9714" y2="538.671" gradientTransform="matrix(1 0 0 1 30.2615 0)">
			<stop  offset="0" style="stop-color:#B459FF"/>
			<stop  offset="1" style="stop-color:#FF09D4"/>
		</linearGradient>
		<path opacity="0.57" clip-path="url(#SVGID_2_)" fill="url(#SVGID_7_)" d="M-13.852,523.469c0,0,203.398,575.065,1049.278,575.065
			c65.644,0,1061.097-6.156,1061.097-1121.113c0-65.239,0,1125.087,0,1125.087l-2106.973-7.891L-13.852,523.469z"/>
		<g opacity="0.13" clip-path="url(#SVGID_2_)">
			<path fill="#EE75FF" d="M119.133,446.696l13.046-0.048c228.144-0.836,447.262,89.163,609.087,250.173l352.359,350.583h0
				c-222.797,0.816-437.207-85.005-598.036-239.373L119.133,446.696z"/>
			<path fill="#EE75FF" d="M2059.677,621.805l-12.828-2.377c-224.325-41.573-455.995,7.84-643.978,137.355L993.557,1038.79l0,0
				c219.068,40.599,445.36-5.544,631.175-128.703L2059.677,621.805z"/>
			<path fill="#EE75FF" d="M118.489,270.753l13.046-0.048c228.143-0.836,447.262,89.163,609.088,250.173l352.359,350.583h0
				c-222.797,0.816-437.207-85.005-598.036-239.373L118.489,270.753z"/>
			<path fill="#EE75FF" d="M2091.738,448.807l-12.828-2.377c-224.325-41.573-455.995,7.84-643.978,137.355l-409.314,282.007h0
				c219.068,40.599,445.36-5.544,631.175-128.703L2091.738,448.807z"/>
			<path fill="#EE75FF" d="M117.844,94.81l13.046-0.048c228.144-0.836,447.262,89.163,609.088,250.173l352.359,350.583h0
				c-222.797,0.816-437.207-85.005-598.036-239.373L117.844,94.81z"/>
			<path fill="#EE75FF" d="M2123.799,275.809l-12.828-2.377c-224.325-41.573-455.995,7.84-643.978,137.355l-409.314,282.007h0
				c219.068,40.599,445.36-5.544,631.175-128.703L2123.799,275.809z"/>
			<path fill="#EE75FF" d="M117.199-81.133l13.046-0.048c228.143-0.836,447.262,89.163,609.088,250.173l352.359,350.583h0
				c-222.797,0.816-437.207-85.005-598.036-239.373L117.199-81.133z"/>
			<path fill="#EE75FF" d="M2155.86,102.81l-12.828-2.377c-224.325-41.573-455.995,7.84-643.978,137.355L1089.74,519.795h0
				c219.068,40.599,445.36-5.544,631.175-128.703L2155.86,102.81z"/>
		</g>
		<g opacity="0.2" clip-path="url(#SVGID_2_)">
			
				<radialGradient id="SVGID_8_" cx="1067.76" cy="386.2215" r="116.5741" gradientTransform="matrix(0.998 -0.0638 0.0638 0.998 38.4438 124.2892)" gradientUnits="userSpaceOnUse">
				<stop  offset="0.7415" style="stop-color:#9AFFF9;stop-opacity:0.9561"/>
				<stop  offset="0.9512" style="stop-color:#9AFFF9;stop-opacity:0"/>
			</radialGradient>
			<path opacity="0.26" fill="url(#SVGID_8_)" d="M1235.578,488.136c-25.695,59.015-94.375,86.045-153.394,60.344
				c-59.019-25.688-86.037-94.362-60.338-153.387c25.685-59.01,94.361-86.039,153.389-60.347
				C1234.254,360.441,1261.266,429.116,1235.578,488.136z"/>
			
				<radialGradient id="SVGID_9_" cx="974.0169" cy="481.2686" r="116.574" gradientTransform="matrix(0.998 -0.0638 0.0638 0.998 38.4438 124.2892)" gradientUnits="userSpaceOnUse">
				<stop  offset="0.7415" style="stop-color:#28FFF2;stop-opacity:0.9561"/>
				<stop  offset="0.9512" style="stop-color:#9AFFF9;stop-opacity:0"/>
			</radialGradient>
			<path opacity="0.6" fill="url(#SVGID_9_)" d="M1148.085,588.974c-25.695,59.015-94.376,86.044-153.393,60.344
				c-59.019-25.688-86.037-94.362-60.338-153.387c25.685-59.011,94.361-86.039,153.387-60.347
				C1146.763,461.278,1173.776,529.954,1148.085,588.974z"/>
			
				<radialGradient id="SVGID_10_" cx="818.9871" cy="345.9467" r="116.5739" gradientTransform="matrix(0.998 -0.0638 0.0638 0.998 38.4438 124.2892)" gradientUnits="userSpaceOnUse">
				<stop  offset="0.7415" style="stop-color:#9AFFF9;stop-opacity:0.9561"/>
				<stop  offset="0.9512" style="stop-color:#9AFFF9;stop-opacity:0"/>
			</radialGradient>
			<path opacity="0.26" fill="url(#SVGID_10_)" d="M984.732,463.813c-25.694,59.016-94.376,86.046-153.394,60.344
				c-59.017-25.687-86.036-94.362-60.335-153.386c25.684-59.012,94.359-86.04,153.386-60.346
				C983.41,336.12,1010.422,404.794,984.732,463.813z"/>
			
				<radialGradient id="SVGID_11_" cx="512.3889" cy="582.3487" r="116.5744" gradientTransform="matrix(0.998 -0.0638 0.0638 0.998 38.4438 124.2892)" gradientUnits="userSpaceOnUse">
				<stop  offset="0.8927" style="stop-color:#9AFFF9;stop-opacity:0.9561"/>
				<stop  offset="0.9512" style="stop-color:#9AFFF9;stop-opacity:0"/>
			</radialGradient>
			<path opacity="0.6" fill="url(#SVGID_11_)" d="M693.832,719.303c-25.697,59.017-94.379,86.045-153.398,60.345
				c-59.015-25.689-86.035-94.361-60.335-153.386c25.686-59.012,94.361-86.041,153.387-60.349
				C692.507,591.61,719.519,660.284,693.832,719.303z"/>
			
				<radialGradient id="SVGID_12_" cx="418.8253" cy="467.6015" r="116.5741" gradientTransform="matrix(0.998 -0.0638 0.0638 0.998 38.4438 124.2892)" gradientUnits="userSpaceOnUse">
				<stop  offset="0.7415" style="stop-color:#9AFFF9;stop-opacity:0.9561"/>
				<stop  offset="0.9512" style="stop-color:#9AFFF9;stop-opacity:0"/>
			</radialGradient>
			<path opacity="0.3" fill="url(#SVGID_12_)" d="M593.133,610.757c-25.695,59.013-94.378,86.044-153.396,60.342
				c-59.016-25.687-86.036-94.362-60.336-153.387c25.686-59.009,94.361-86.039,153.387-60.344
				C591.81,483.06,618.823,551.735,593.133,610.757z"/>
			
				<radialGradient id="SVGID_13_" cx="154.143" cy="539.3649" r="116.5741" gradientTransform="matrix(0.998 -0.0638 0.0638 0.998 38.4438 124.2892)" gradientUnits="userSpaceOnUse">
				<stop  offset="0.8537" style="stop-color:#9AFFF9;stop-opacity:0.9561"/>
				<stop  offset="0.9512" style="stop-color:#9AFFF9;stop-opacity:0"/>
			</radialGradient>
			<path opacity="0.6" fill="url(#SVGID_13_)" d="M333.559,699.264c-25.698,59.015-94.377,86.043-153.396,60.341
				c-59.016-25.687-86.036-94.362-60.336-153.386c25.686-59.01,94.36-86.039,153.386-60.346
				C332.234,571.569,359.248,640.242,333.559,699.264z"/>
			
				<radialGradient id="SVGID_14_" cx="379.6269" cy="309.1375" r="116.574" gradientTransform="matrix(0.998 -0.0638 0.0638 0.998 38.4438 124.2892)" gradientUnits="userSpaceOnUse">
				<stop  offset="0.7415" style="stop-color:#28FFF2;stop-opacity:0.9561"/>
				<stop  offset="0.9512" style="stop-color:#9AFFF9;stop-opacity:0"/>
			</radialGradient>
			<path opacity="0.6" fill="url(#SVGID_14_)" d="M543.902,455.109c-25.694,59.016-94.374,86.044-153.393,60.344
				c-59.017-25.688-86.037-94.363-60.337-153.387c25.686-59.012,94.362-86.04,153.387-60.345
				C542.58,327.414,569.592,396.088,543.902,455.109z"/>
			
				<radialGradient id="SVGID_15_" cx="22.1536" cy="429.4438" r="116.5742" gradientTransform="matrix(0.998 -0.0638 0.0638 0.998 38.4438 124.2892)" gradientUnits="userSpaceOnUse">
				<stop  offset="0.7415" style="stop-color:#9AFFF9;stop-opacity:0.9561"/>
				<stop  offset="0.9512" style="stop-color:#9AFFF9;stop-opacity:0"/>
			</radialGradient>
			<path opacity="0.2" fill="url(#SVGID_15_)" d="M194.819,597.981c-25.694,59.017-94.375,86.046-153.393,60.344
				c-59.019-25.688-86.037-94.362-60.337-153.387c25.683-59.011,94.359-86.04,153.387-60.347
				C193.498,470.287,220.509,538.96,194.819,597.981z"/>
			
				<radialGradient id="SVGID_16_" cx="92.0637" cy="212.7102" r="116.5737" gradientTransform="matrix(0.998 -0.0638 0.0638 0.998 38.4438 124.2892)" gradientUnits="userSpaceOnUse">
				<stop  offset="0.878" style="stop-color:#9AFFF9;stop-opacity:0.9561"/>
				<stop  offset="0.9512" style="stop-color:#9AFFF9;stop-opacity:0"/>
			</radialGradient>
			<path opacity="0.6" fill="url(#SVGID_16_)" d="M250.762,377.223c-25.695,59.015-94.374,86.042-153.393,60.342
				c-59.018-25.686-86.037-94.362-60.338-153.386c25.684-59.011,94.36-86.039,153.387-60.347
				C249.44,249.526,276.452,318.201,250.762,377.223z"/>
			
				<radialGradient id="SVGID_17_" cx="371.3756" cy="12.7888" r="116.5742" gradientTransform="matrix(0.998 -0.0638 0.0638 0.998 38.4438 124.2892)" gradientUnits="userSpaceOnUse">
				<stop  offset="0.878" style="stop-color:#9AFFF9;stop-opacity:0.9561"/>
				<stop  offset="0.9512" style="stop-color:#9AFFF9;stop-opacity:0"/>
			</radialGradient>
			<path opacity="0.3" fill="url(#SVGID_17_)" d="M516.761,159.88c-25.694,59.016-94.375,86.045-153.394,60.343
				c-59.018-25.688-86.036-94.36-60.337-153.388c25.684-59.009,94.36-86.038,153.387-60.346
				C515.438,32.185,542.45,100.859,516.761,159.88z"/>
			
				<radialGradient id="SVGID_18_" cx="761.2114" cy="37.7104" r="86.0002" gradientTransform="matrix(0.998 -0.0638 0.0638 0.998 38.4438 124.2892)" gradientUnits="userSpaceOnUse">
				<stop  offset="0.878" style="stop-color:#9AFFF9;stop-opacity:0.9561"/>
				<stop  offset="0.9512" style="stop-color:#9AFFF9;stop-opacity:0"/>
			</radialGradient>
			<path opacity="0.26" fill="url(#SVGID_18_)" d="M879.379,147.679c-18.956,43.537-69.625,63.478-113.164,44.516
				c-43.54-18.95-63.472-69.612-44.512-113.16c18.948-43.532,69.612-63.471,113.158-44.517
				C878.404,53.474,898.329,104.137,879.379,147.679z"/>
			
				<radialGradient id="SVGID_19_" cx="532.7252" cy="513.2193" r="116.5741" gradientTransform="matrix(0.998 -0.0638 0.0638 0.998 38.4438 124.2892)" gradientUnits="userSpaceOnUse">
				<stop  offset="0.7415" style="stop-color:#9AFFF9;stop-opacity:0.9561"/>
				<stop  offset="0.9512" style="stop-color:#9AFFF9;stop-opacity:0"/>
			</radialGradient>
			<path opacity="0.2" fill="url(#SVGID_19_)" d="M709.716,649.016c-25.694,59.015-94.376,86.043-153.395,60.344
				c-59.017-25.688-86.038-94.363-60.336-153.388c25.685-59.011,94.36-86.039,153.386-60.345
				C708.392,521.321,735.404,589.995,709.716,649.016z"/>
			
				<radialGradient id="SVGID_20_" cx="1052.0795" cy="631.5048" r="116.5742" gradientTransform="matrix(0.998 -0.0638 0.0638 0.998 38.4438 124.2892)" gradientUnits="userSpaceOnUse">
				<stop  offset="0.7415" style="stop-color:#9AFFF9;stop-opacity:0.9561"/>
				<stop  offset="0.9512" style="stop-color:#9AFFF9;stop-opacity:0"/>
			</radialGradient>
			<path opacity="0.8" fill="url(#SVGID_20_)" d="M1235.578,733.929c-25.695,59.016-94.375,86.044-153.394,60.344
				c-59.019-25.689-86.037-94.362-60.338-153.388c25.685-59.011,94.361-86.039,153.389-60.346
				C1234.254,606.236,1261.266,674.907,1235.578,733.929z"/>
			
				<radialGradient id="SVGID_21_" cx="245.1877" cy="30.5827" r="116.5739" gradientTransform="matrix(0.998 -0.0638 0.0638 0.998 38.4438 124.2892)" gradientUnits="userSpaceOnUse">
				<stop  offset="0.7415" style="stop-color:#FFBC45;stop-opacity:0.9561"/>
				<stop  offset="0.9512" style="stop-color:#9AFFF9;stop-opacity:0"/>
			</radialGradient>
			<path opacity="0.3" fill="url(#SVGID_21_)" d="M391.96,185.689c-25.696,59.016-94.376,86.044-153.395,60.344
				c-59.016-25.688-86.035-94.361-60.336-153.387c25.686-59.01,94.361-86.039,153.386-60.347
				C390.637,57.996,417.651,126.671,391.96,185.689z"/>
			
				<radialGradient id="SVGID_22_" cx="541.8275" cy="861.8743" r="116.574" gradientTransform="matrix(0.998 -0.0638 0.0638 0.998 38.4438 124.2892)" gradientUnits="userSpaceOnUse">
				<stop  offset="0.7415" style="stop-color:#FFBC45;stop-opacity:0.9561"/>
				<stop  offset="0.9512" style="stop-color:#9AFFF9;stop-opacity:0"/>
			</radialGradient>
			<path opacity="0.3" fill="url(#SVGID_22_)" d="M741.045,996.393c-25.696,59.014-94.378,86.043-153.397,60.342
				c-59.016-25.688-86.035-94.362-60.336-153.387c25.685-59.008,94.361-86.039,153.389-60.344
				C739.719,868.696,766.733,937.371,741.045,996.393z"/>
			
				<radialGradient id="SVGID_23_" cx="439.568" cy="143.1313" r="116.5742" gradientTransform="matrix(0.998 -0.0638 0.0638 0.998 38.4438 124.2892)" gradientUnits="userSpaceOnUse">
				<stop  offset="0.7415" style="stop-color:#FFBC45;stop-opacity:0.9561"/>
				<stop  offset="0.9512" style="stop-color:#9AFFF9;stop-opacity:0"/>
			</radialGradient>
			<path opacity="0.3" fill="url(#SVGID_23_)" d="M593.133,285.612c-25.695,59.016-94.378,86.043-153.395,60.342
				c-59.017-25.687-86.037-94.361-60.337-153.386c25.686-59.01,94.361-86.041,153.387-60.346
				C591.81,157.916,618.823,226.591,593.133,285.612z"/>
			
				<radialGradient id="SVGID_24_" cx="1153.0826" cy="763.225" r="116.5739" gradientTransform="matrix(0.998 -0.0638 0.0638 0.998 38.4438 124.2892)" gradientUnits="userSpaceOnUse">
				<stop  offset="0.7415" style="stop-color:#FFBC45;stop-opacity:0.9561"/>
				<stop  offset="0.9512" style="stop-color:#9AFFF9;stop-opacity:0"/>
			</radialGradient>
			<path opacity="0.2" fill="url(#SVGID_24_)" d="M1344.784,858.942c-25.694,59.016-94.377,86.044-153.395,60.342
				c-59.019-25.686-86.037-94.361-60.337-153.386c25.685-59.01,94.36-86.04,153.387-60.345
				C1343.46,731.247,1370.471,799.923,1344.784,858.942z"/>
			
				<radialGradient id="SVGID_25_" cx="491.9552" cy="48.6271" r="116.5739" gradientTransform="matrix(0.998 -0.0638 0.0638 0.998 38.4438 124.2892)" gradientUnits="userSpaceOnUse">
				<stop  offset="0.7415" style="stop-color:#FFBC45;stop-opacity:0.9561"/>
				<stop  offset="0.9512" style="stop-color:#9AFFF9;stop-opacity:0"/>
			</radialGradient>
			<path opacity="0.2" fill="url(#SVGID_25_)" d="M639.385,187.954c-25.694,59.017-94.375,86.043-153.394,60.342
				c-59.017-25.686-86.036-94.362-60.337-153.385C451.34,35.9,520.016,8.869,579.042,34.565
				C638.063,60.258,665.076,128.933,639.385,187.954z"/>
			
				<radialGradient id="SVGID_26_" cx="78.4586" cy="811.3444" r="116.5738" gradientTransform="matrix(0.998 -0.0638 0.0638 0.998 38.4438 124.2892)" gradientUnits="userSpaceOnUse">
				<stop  offset="0.8585" style="stop-color:#9AFFF9;stop-opacity:0.9561"/>
				<stop  offset="0.9512" style="stop-color:#9AFFF9;stop-opacity:0"/>
			</radialGradient>
			<path opacity="0.2" fill="url(#SVGID_26_)" d="M275.377,975.528c-25.694,59.015-94.376,86.043-153.394,60.341
				c-59.017-25.687-86.035-94.361-60.336-153.384c25.684-59.011,94.36-86.041,153.386-60.347
				C274.055,847.831,301.067,916.505,275.377,975.528z"/>
			
				<radialGradient id="SVGID_27_" cx="798.9601" cy="659.223" r="116.5739" gradientTransform="matrix(0.998 -0.0638 0.0638 0.998 38.4438 124.2892)" gradientUnits="userSpaceOnUse">
				<stop  offset="0.7415" style="stop-color:#9AFFF9;stop-opacity:0.9561"/>
				<stop  offset="0.9512" style="stop-color:#9AFFF9;stop-opacity:0"/>
			</radialGradient>
			<path opacity="0.2" fill="url(#SVGID_27_)" d="M984.732,777.742c-25.694,59.016-94.376,86.043-153.394,60.343
				c-59.017-25.689-86.036-94.363-60.335-153.387c25.684-59.01,94.359-86.04,153.386-60.344
				C983.41,650.046,1010.422,718.72,984.732,777.742z"/>
			
				<radialGradient id="SVGID_28_" cx="586.1089" cy="169.1955" r="116.5742" gradientTransform="matrix(0.998 -0.0638 0.0638 0.998 38.4438 124.2892)" gradientUnits="userSpaceOnUse">
				<stop  offset="0.7415" style="stop-color:#9AFFF9;stop-opacity:0.9561"/>
				<stop  offset="0.9512" style="stop-color:#9AFFF9;stop-opacity:0"/>
			</radialGradient>
			<path opacity="0.2" fill="url(#SVGID_28_)" d="M741.045,302.273c-25.696,59.015-94.378,86.045-153.397,60.344
				c-59.016-25.69-86.035-94.362-60.336-153.388c25.685-59.009,94.361-86.038,153.389-60.346
				C739.719,174.579,766.733,243.252,741.045,302.273z"/>
			
				<radialGradient id="SVGID_29_" cx="710.7561" cy="211.6442" r="116.5741" gradientTransform="matrix(0.998 -0.0638 0.0638 0.998 38.4438 124.2892)" gradientUnits="userSpaceOnUse">
				<stop  offset="0.8927" style="stop-color:#9AFFF9;stop-opacity:0.9561"/>
				<stop  offset="0.9512" style="stop-color:#9AFFF9;stop-opacity:0"/>
			</radialGradient>
			<path opacity="0.26" fill="url(#SVGID_29_)" d="M868.15,336.686c-25.695,59.015-94.377,86.044-153.395,60.342
				c-59.017-25.686-86.036-94.361-60.336-153.386c25.685-59.011,94.361-86.04,153.385-60.346
				C866.826,208.99,893.838,277.665,868.15,336.686z"/>
			
				<radialGradient id="SVGID_30_" cx="1337.4926" cy="586.2132" r="116.5745" gradientTransform="matrix(0.998 -0.0638 0.0638 0.998 38.4438 124.2892)" gradientUnits="userSpaceOnUse">
				<stop  offset="0.878" style="stop-color:#9AFFF9;stop-opacity:0.9561"/>
				<stop  offset="0.9512" style="stop-color:#9AFFF9;stop-opacity:0"/>
			</radialGradient>
			<path opacity="0.6" fill="url(#SVGID_30_)" d="M1517.531,670.52c-25.695,59.015-94.378,86.044-153.395,60.343
				c-59.019-25.689-86.036-94.363-60.337-153.389c25.685-59.008,94.361-86.04,153.386-60.346
				C1516.207,542.824,1543.219,611.499,1517.531,670.52z"/>
			
				<radialGradient id="SVGID_31_" cx="1422.3409" cy="205.9577" r="116.574" gradientTransform="matrix(0.998 -0.0638 0.0638 0.998 38.4438 124.2892)" gradientUnits="userSpaceOnUse">
				<stop  offset="0.7415" style="stop-color:#28FFF2;stop-opacity:0.9561"/>
				<stop  offset="0.9512" style="stop-color:#9AFFF9;stop-opacity:0"/>
			</radialGradient>
			<path opacity="0.26" fill="url(#SVGID_31_)" d="M1577.949,285.612c-25.695,59.016-94.376,86.043-153.396,60.342
				c-59.017-25.687-86.035-94.361-60.335-153.387c25.685-59.01,94.36-86.039,153.385-60.345
				C1576.625,157.916,1603.637,226.591,1577.949,285.612z"/>
			
				<radialGradient id="SVGID_32_" cx="1242.1984" cy="249.5364" r="116.5743" gradientTransform="matrix(0.998 -0.0638 0.0638 0.998 38.4438 124.2892)" gradientUnits="userSpaceOnUse">
				<stop  offset="0.7415" style="stop-color:#9AFFF9;stop-opacity:0.9561"/>
				<stop  offset="0.9512" style="stop-color:#9AFFF9;stop-opacity:0"/>
			</radialGradient>
			<path opacity="0.26" fill="url(#SVGID_32_)" d="M1400.948,340.595c-25.696,59.017-94.377,86.045-153.396,60.344
				c-59.018-25.688-86.037-94.36-60.337-153.388c25.687-59.01,94.362-86.039,153.387-60.345
				C1399.624,212.901,1426.635,281.577,1400.948,340.595z"/>
			
				<radialGradient id="SVGID_33_" cx="1488.3291" cy="54.0495" r="116.5741" gradientTransform="matrix(0.998 -0.0638 0.0638 0.998 38.4438 124.2892)" gradientUnits="userSpaceOnUse">
				<stop  offset="0.8829" style="stop-color:#9AFFF9;stop-opacity:0.9561"/>
				<stop  offset="0.9512" style="stop-color:#9AFFF9;stop-opacity:0"/>
			</radialGradient>
			<path opacity="0.26" fill="url(#SVGID_33_)" d="M1634.112,129.797c-25.694,59.015-94.374,86.044-153.394,60.344
				c-59.017-25.688-86.035-94.363-60.336-153.387c25.685-59.012,94.361-86.041,153.387-60.345
				C1632.791,2.101,1659.802,70.776,1634.112,129.797z"/>
			
				<radialGradient id="SVGID_34_" cx="1404.1533" cy="490.4588" r="116.5741" gradientTransform="matrix(0.998 -0.0638 0.0638 0.998 38.4438 124.2892)" gradientUnits="userSpaceOnUse">
				<stop  offset="0.7415" style="stop-color:#9AFFF9;stop-opacity:0.9561"/>
				<stop  offset="0.9512" style="stop-color:#9AFFF9;stop-opacity:0"/>
			</radialGradient>
			<path opacity="0.3" fill="url(#SVGID_34_)" d="M1577.949,570.703c-25.695,59.015-94.376,86.044-153.396,60.346
				c-59.017-25.69-86.035-94.362-60.335-153.389c25.685-59.01,94.36-86.04,153.385-60.346
				C1576.625,443.009,1603.637,511.684,1577.949,570.703z"/>
			
				<radialGradient id="SVGID_35_" cx="1455.2251" cy="832.6276" r="116.574" gradientTransform="matrix(0.998 -0.0638 0.0638 0.998 38.4438 124.2892)" gradientUnits="userSpaceOnUse">
				<stop  offset="0.7415" style="stop-color:#28FFF2;stop-opacity:0.9561"/>
				<stop  offset="0.9512" style="stop-color:#9AFFF9;stop-opacity:0"/>
			</radialGradient>
			<path opacity="0.2" fill="url(#SVGID_35_)" d="M1650.749,908.928c-25.696,59.016-94.375,86.046-153.395,60.344
				c-59.016-25.688-86.036-94.361-60.336-153.388c25.684-59.008,94.361-86.04,153.386-60.345
				C1649.425,781.235,1676.437,849.91,1650.749,908.928z"/>
			
				<radialGradient id="SVGID_36_" cx="969.2137" cy="100.4361" r="116.5741" gradientTransform="matrix(0.998 -0.0638 0.0638 0.998 38.4438 124.2892)" gradientUnits="userSpaceOnUse">
				<stop  offset="0.7415" style="stop-color:#28FFF2;stop-opacity:0.9561"/>
				<stop  offset="0.9512" style="stop-color:#9AFFF9;stop-opacity:0"/>
			</radialGradient>
			<path opacity="0.26" fill="url(#SVGID_36_)" d="M1118.994,209.209c-25.693,59.015-94.375,86.046-153.393,60.344
				c-59.017-25.689-86.038-94.362-60.336-153.388c25.684-59.008,94.36-86.039,153.386-60.345
				C1117.673,81.515,1144.685,150.189,1118.994,209.209z"/>
			
				<radialGradient id="SVGID_37_" cx="1123.5215" cy="278.6486" r="116.5742" gradientTransform="matrix(0.998 -0.0638 0.0638 0.998 38.4438 124.2892)" gradientUnits="userSpaceOnUse">
				<stop  offset="0.878" style="stop-color:#9AFFF9;stop-opacity:0.9561"/>
				<stop  offset="0.9512" style="stop-color:#9AFFF9;stop-opacity:0"/>
			</radialGradient>
			<path opacity="0.26" fill="url(#SVGID_37_)" d="M1284.365,377.222c-25.694,59.016-94.377,86.043-153.394,60.342
				c-59.018-25.686-86.038-94.362-60.337-153.386c25.684-59.011,94.361-86.041,153.387-60.347
				C1283.041,249.526,1310.054,318.201,1284.365,377.222z"/>
			
				<radialGradient id="SVGID_38_" cx="-22.0178" cy="555.7368" r="116.5741" gradientTransform="matrix(0.998 -0.0638 0.0638 0.998 38.4438 124.2892)" gradientUnits="userSpaceOnUse">
				<stop  offset="0.7415" style="stop-color:#28FFF2;stop-opacity:0.9561"/>
				<stop  offset="0.9512" style="stop-color:#9AFFF9;stop-opacity:0"/>
			</radialGradient>
			<path opacity="0.6" fill="url(#SVGID_38_)" d="M158.795,726.841C133.1,785.855,64.42,812.885,5.401,787.183
				c-59.019-25.688-86.037-94.363-60.338-153.387c25.685-59.011,94.361-86.039,153.388-60.346
				C157.471,599.147,184.483,667.82,158.795,726.841z"/>
			
				<radialGradient id="SVGID_39_" cx="100.1403" cy="472.1844" r="116.5739" gradientTransform="matrix(0.998 -0.0638 0.0638 0.998 38.4438 124.2892)" gradientUnits="userSpaceOnUse">
				<stop  offset="0.7415" style="stop-color:#9AFFF9;stop-opacity:0.9561"/>
				<stop  offset="0.9512" style="stop-color:#9AFFF9;stop-opacity:0"/>
			</radialGradient>
			<path opacity="0.6" fill="url(#SVGID_39_)" d="M275.377,635.662c-25.694,59.014-94.376,86.044-153.394,60.343
				c-59.017-25.686-86.035-94.36-60.336-153.387c25.684-59.01,94.36-86.04,153.386-60.346
				C274.055,507.967,301.067,576.642,275.377,635.662z"/>
			
				<radialGradient id="SVGID_40_" cx="525.565" cy="376.2401" r="116.5743" gradientTransform="matrix(0.998 -0.0638 0.0638 0.998 38.4438 124.2892)" gradientUnits="userSpaceOnUse">
				<stop  offset="0.8537" style="stop-color:#9AFFF9;stop-opacity:0.9561"/>
				<stop  offset="0.9512" style="stop-color:#9AFFF9;stop-opacity:0"/>
			</radialGradient>
			<path opacity="0.6" fill="url(#SVGID_40_)" d="M693.832,512.766c-25.697,59.016-94.379,86.046-153.398,60.345
				c-59.015-25.688-86.035-94.362-60.335-153.387c25.686-59.009,94.361-86.041,153.387-60.345
				C692.507,385.072,719.519,453.748,693.832,512.766z"/>
			
				<radialGradient id="SVGID_41_" cx="1508.6461" cy="430.2336" r="116.5741" gradientTransform="matrix(0.998 -0.0638 0.0638 0.998 38.4438 124.2892)" gradientUnits="userSpaceOnUse">
				<stop  offset="0.878" style="stop-color:#9AFFF9;stop-opacity:0.9561"/>
				<stop  offset="0.9512" style="stop-color:#9AFFF9;stop-opacity:0"/>
			</radialGradient>
			<path opacity="0.6" fill="url(#SVGID_41_)" d="M1678.39,503.931c-25.695,59.016-94.377,86.046-153.396,60.345
				c-59.017-25.688-86.035-94.362-60.334-153.388c25.683-59.011,94.36-86.04,153.385-60.345
				C1677.068,376.237,1704.078,444.911,1678.39,503.931z"/>
		</g>
		
			<linearGradient id="SVGID_42_" gradientUnits="userSpaceOnUse" x1="1657.7904" y1="44.5619" x2="25.0867" y2="947.663" gradientTransform="matrix(-1 0 0 1 1700 0)">
			<stop  offset="0" style="stop-color:#DAACFF;stop-opacity:0"/>
			<stop  offset="1" style="stop-color:#150007;stop-opacity:0.6"/>
		</linearGradient>
		<rect x="-54.831" y="-39.742" clip-path="url(#SVGID_2_)" fill="url(#SVGID_42_)" width="1802" height="1058"/>
	</g>
	<pattern  id="SVGID_43_" xlink:href="#Motivo_nuevo_3" patternTransform="matrix(2.6715 0 0 1.413 8825.1973 2823.2859)">
	</pattern>
	<rect x="-16.519" y="-12.848" opacity="0.2" fill="url(#SVGID_43_)" width="1733.037" height="1004.619"/>
</g>
<g id="Vexels">
	<g>
		<g>
			<path fill="#FFFFFF" d="M855.116,920.015l-0.97-2.099c-0.477-1.007-1.743-1.476-2.811-1.043
				c-1.151,0.394-1.666,1.585-1.189,2.559l1.09,2.362l8.612,18.69c0.081,0.073,0.161,0.215,0.196,0.287
				c0,0.036,0.044,0.036,0.044,0.036c0.039,0.073,0.12,0.145,0.198,0.218c0,0.071,0.039,0.071,0.039,0.106
				c0.117,0.074,0.197,0.108,0.273,0.182c0.042,0,0.042,0,0.042,0c0.121,0.072,0.279,0.178,0.359,0.215c0.039,0,0.039,0,0.039,0
				s0.04,0,0.04,0.037c0.08,0,0.238,0.037,0.318,0.069c0.036,0,0.078,0,0.078,0c0.117,0.039,0.278,0.039,0.398,0.039
				c0.117,0,0.237,0,0.396-0.039c0.038,0,0.076,0,0.076,0c0.119-0.032,0.197-0.069,0.319-0.069c0.041-0.037,0.041-0.037,0.077-0.037
				c0.121-0.037,0.238-0.143,0.318-0.18c0.08-0.035,0.08-0.035,0.08-0.035c0.078-0.074,0.157-0.108,0.236-0.182
				c0.041-0.035,0.041-0.035,0.079-0.106c0.041-0.073,0.159-0.146,0.196-0.218c0.039,0,0.039,0,0.039-0.036
				c0.08-0.073,0.125-0.214,0.162-0.287l0.368-0.795l-2.348-5.083L855.116,920.015z M939.132,919.864
				c0.672-0.901,0.516-2.125-0.471-2.739c-0.99-0.684-2.3-0.504-3.05,0.433l-4.515,5.632l2.69,3.287L939.132,919.864z
				 M872.443,916.873c-1.068-0.433-2.373,0.036-2.851,1.043l-5.735,12.397l2.354,5.089l7.421-15.971
				C874.068,918.459,873.555,917.267,872.443,916.873z M821.32,909.253c-0.933-0.931-2.171-1.443-3.487-1.443
				c-1.317,0-2.553,0.512-3.483,1.443l-15.958,15.961c-1.92,1.924-1.92,5.046,0,6.965l15.958,15.959
				c0.93,0.931,2.166,1.442,3.483,1.442c1.317,0,2.554-0.511,3.487-1.439l15.955-15.963c0.934-0.934,1.445-2.165,1.445-3.485
				c0-1.311-0.512-2.551-1.445-3.48L821.32,909.253z M834.799,930.128l-15.534,15.534c-0.767,0.764-2.099,0.764-2.859,0
				l-15.535-15.534c-0.789-0.79-0.789-2.073-0.004-2.862l15.539-15.535c0.012-0.014,0.027-0.026,0.04-0.035v12.873
				c-0.632,0.213-1.214,0.551-1.701,1.04c-0.823,0.823-1.278,1.92-1.278,3.086c0,1.168,0.455,2.268,1.278,3.087
				c0.824,0.828,1.923,1.283,3.086,1.283c1.168,0,2.266-0.451,3.092-1.283c1.701-1.699,1.701-4.47,0-6.177
				c-0.485-0.486-1.069-0.822-1.703-1.035v-12.873c0.014,0.009,0.032,0.021,0.045,0.035l15.534,15.535
				c0.382,0.381,0.588,0.889,0.588,1.428C835.388,929.234,835.182,929.738,834.799,930.128z M931.61,929.164l-2.657-3.316
				l-6.687-8.29c-0.679-0.937-2.065-1.117-3.016-0.433c-0.991,0.615-1.185,1.839-0.513,2.739l7.524,9.299l-7.524,9.372
				c-0.672,0.864-0.478,2.128,0.513,2.739c0.356,0.253,0.794,0.398,1.268,0.398c0.675,0,1.306-0.325,1.749-0.832l6.687-8.324
				l7.146,8.942c0.413,0.513,1.065,0.779,1.674,0.779c0.451,0,0.979-0.207,1.358-0.511c0.899-0.713,0.969-2.01,0.251-2.903
				L931.61,929.164z M896.586,916.482c-6.404,0-11.619,5.665-11.619,12.623c0,6.905,5.215,12.528,11.619,12.528
				c3.934,0,7.56-2.146,9.696-5.747c0.515-0.928,0.255-2.085-0.651-2.774c-0.293-0.19-0.638-0.289-0.99-0.289
				c-0.685,0-1.294,0.367-1.626,0.968c-1.342,2.364-3.805,3.829-6.429,3.829c-3.886,0-7.108-3.091-7.683-7.275h17.284
				c1.081,0,1.924-0.84,1.924-1.91l-0.001-0.256C907.618,921.513,902.663,916.482,896.586,916.482z M889.185,926.382
				c1.048-3.546,3.956-5.887,7.401-5.887c3.377,0,6.3,2.394,7.281,5.887H889.185z M995.606,937.557
				c-0.039-0.001-2.976-0.001-3.02-0.001c-1.119,0-2.422-0.643-2.422-2.452v-20.074c0-1.181-0.965-2.137-2.147-2.137
				c-1.143,0-2.141,0.998-2.141,2.137v20.074c0,3.968,2.633,6.53,6.71,6.53c0.052,0,2.998,0,3.047-0.002
				c1.057-0.076,1.89-0.962,1.89-2.036C997.524,938.515,996.674,937.619,995.606,937.557z M1028.381,930.933
				c-0.911-1.339-2.337-2.273-3.962-2.992c-1.583-0.687-3.445-1.154-5.465-1.514h-0.081c-2.136-0.361-3.918-0.942-4.949-1.591
				c-0.514-0.319-0.873-0.646-1.072-0.936c-0.195-0.285-0.276-0.578-0.276-1.005c0-0.76,0.435-1.553,1.509-2.274
				c1.067-0.719,2.651-1.226,4.432-1.226c2.416,0,4.357,1.08,6.378,2.305c0.95,0.576,2.217,0.323,2.809-0.539
				c0.635-0.829,0.36-1.983-0.552-2.561c-2.021-1.186-4.835-2.883-8.635-2.883c-2.575,0-4.987,0.685-6.851,1.91
				c-1.824,1.231-3.17,3.101-3.17,5.268c0,1.078,0.317,2.09,0.911,2.952c0.87,1.263,2.178,2.165,3.68,2.812
				c1.505,0.648,3.254,1.083,5.11,1.406h0.084c2.334,0.398,4.276,1.01,5.424,1.694c0.594,0.362,0.95,0.721,1.189,1.081
				c0.237,0.362,0.354,0.684,0.354,1.152c0,0.903-0.512,1.804-1.703,2.596c-1.186,0.793-2.969,1.336-4.949,1.336
				c-2.813,0.035-5.824-1.479-7.567-2.775c-0.871-0.653-2.179-0.543-2.89,0.248c-0.675,0.795-0.554,1.985,0.318,2.631
				c2.259,1.627,5.859,3.574,10.139,3.606c2.812,0,5.386-0.754,7.329-2.052c1.978-1.302,3.403-3.28,3.403-5.59
				C1029.331,932.877,1028.977,931.798,1028.381,930.933z M962.724,916.482c-6.406,0-11.617,5.665-11.617,12.623
				c0,6.905,5.211,12.528,11.617,12.528c3.94,0,7.558-2.146,9.698-5.747c0.514-0.928,0.253-2.085-0.651-2.774
				c-0.295-0.19-0.638-0.289-0.992-0.289c-0.685,0-1.293,0.367-1.625,0.968c-1.341,2.364-3.805,3.829-6.431,3.829
				c-3.885,0-7.107-3.091-7.685-7.275h17.287c1.079,0,1.926-0.84,1.926-1.91l-0.002-0.256
				C973.76,921.513,968.805,916.482,962.724,916.482z M955.322,926.382c1.05-3.546,3.959-5.887,7.403-5.887
				c3.384,0,6.3,2.394,7.281,5.887H955.322z"/>
		</g>
		<g>
			<path fill="#FFFFFF" d="M679.745,930.37c0,0.749,0.008,1.429,0.023,2.038c0.016,0.609,0.08,1.208,0.197,1.796h-1.19l-0.439-1.564
				h-0.089c-0.293,0.514-0.719,0.94-1.277,1.279c-0.559,0.336-1.211,0.505-1.96,0.505c-1.469,0-2.559-0.462-3.27-1.387
				c-0.711-0.926-1.069-2.372-1.069-4.341c0-1.88,0.444-3.306,1.333-4.284c0.888-0.974,2.112-1.465,3.667-1.465
				c0.544,0,0.972,0.03,1.289,0.088c0.317,0.059,0.657,0.154,1.025,0.287v-4.583h1.762V930.37z M675.296,932.882
				c0.748,0,1.344-0.195,1.785-0.585c0.438-0.388,0.739-0.978,0.902-1.773v-5.463c-0.266-0.205-0.565-0.352-0.902-0.44
				c-0.34-0.089-0.787-0.132-1.344-0.132c-1.013,0-1.807,0.334-2.38,1c-0.572,0.67-0.858,1.738-0.858,3.206
				c0,0.603,0.047,1.16,0.143,1.674c0.093,0.516,0.252,0.956,0.471,1.323c0.222,0.368,0.512,0.658,0.871,0.871
				C674.344,932.775,674.783,932.882,675.296,932.882z"/>
			<path fill="#FFFFFF" d="M691.179,933.278c-0.441,0.352-0.996,0.632-1.664,0.837c-0.67,0.205-1.376,0.308-2.125,0.308
				c-0.839,0-1.565-0.135-2.182-0.408c-0.616-0.271-1.123-0.661-1.519-1.168c-0.397-0.505-0.691-1.112-0.882-1.817
				c-0.19-0.704-0.286-1.497-0.286-2.378c0-1.88,0.418-3.313,1.256-4.295c0.836-0.984,2.033-1.477,3.59-1.477
				c0.5,0,1,0.056,1.499,0.166c0.499,0.11,0.947,0.319,1.344,0.628c0.397,0.309,0.718,0.746,0.97,1.312
				c0.25,0.565,0.374,1.308,0.374,2.234c0,0.484-0.045,1.02-0.133,1.609h-7.07c0,0.645,0.065,1.218,0.198,1.717
				c0.131,0.501,0.338,0.922,0.616,1.266c0.279,0.346,0.643,0.611,1.09,0.794c0.448,0.184,0.995,0.276,1.641,0.276
				c0.5,0,0.998-0.09,1.498-0.265c0.499-0.177,0.874-0.382,1.124-0.616L691.179,933.278z M687.39,924.423
				c-0.868,0-1.562,0.227-2.084,0.683c-0.52,0.457-0.833,1.235-0.935,2.335h5.464c0-1.116-0.214-1.898-0.64-2.346
				C688.768,924.647,688.166,924.423,687.39,924.423z"/>
			<path fill="#FFFFFF" d="M699.175,931.165c0-0.444-0.133-0.787-0.397-1.036c-0.265-0.25-0.592-0.459-0.98-0.627
				c-0.39-0.17-0.816-0.332-1.278-0.486c-0.461-0.154-0.887-0.352-1.277-0.593c-0.39-0.244-0.717-0.555-0.98-0.936
				c-0.264-0.383-0.397-0.898-0.397-1.544c0-1.058,0.301-1.831,0.904-2.323c0.602-0.491,1.44-0.739,2.512-0.739
				c0.794,0,1.457,0.07,1.995,0.21c0.534,0.14,1.001,0.306,1.399,0.498l-0.419,1.453c-0.338-0.162-0.746-0.306-1.224-0.429
				c-0.477-0.126-0.986-0.188-1.53-0.188c-0.646,0-1.121,0.109-1.42,0.331c-0.302,0.22-0.453,0.602-0.453,1.144
				c0,0.382,0.134,0.679,0.399,0.893c0.262,0.212,0.589,0.404,0.979,0.573c0.389,0.167,0.815,0.333,1.278,0.496
				c0.463,0.16,0.889,0.373,1.276,0.639c0.39,0.264,0.717,0.598,0.981,1.003c0.263,0.402,0.396,0.933,0.396,1.596
				c0,0.471-0.077,0.91-0.231,1.322c-0.154,0.411-0.393,0.764-0.715,1.057c-0.325,0.295-0.725,0.526-1.201,0.695
				c-0.478,0.168-1.04,0.253-1.685,0.253c-0.837,0-1.551-0.081-2.137-0.243c-0.589-0.161-1.081-0.352-1.475-0.572l0.527-1.499
				c0.336,0.191,0.779,0.369,1.322,0.529c0.544,0.161,1.095,0.243,1.652,0.243c0.631,0,1.154-0.126,1.564-0.375
				C698.968,932.257,699.175,931.809,699.175,931.165z"/>
			<path fill="#FFFFFF" d="M703.601,919.797c0-0.338,0.113-0.628,0.341-0.87c0.227-0.244,0.517-0.363,0.869-0.363
				c0.352,0,0.655,0.12,0.903,0.363c0.25,0.243,0.375,0.532,0.375,0.87c0,0.337-0.125,0.617-0.375,0.836
				c-0.248,0.221-0.551,0.331-0.903,0.331c-0.353,0-0.642-0.11-0.869-0.331C703.714,920.413,703.601,920.134,703.601,919.797z
				 M703.974,923.144h1.763v11.014h-1.763V923.144z"/>
			<path fill="#FFFFFF" d="M717.942,934.667c0,1.423-0.378,2.474-1.135,3.149c-0.757,0.676-1.877,1.013-3.359,1.013
				c-0.882,0-1.589-0.055-2.127-0.167c-0.536-0.109-0.995-0.252-1.376-0.429l0.461-1.498c0.339,0.133,0.713,0.258,1.126,0.376
				c0.409,0.117,0.946,0.175,1.606,0.175c0.617,0,1.121-0.055,1.51-0.165c0.388-0.109,0.701-0.294,0.935-0.55
				c0.235-0.258,0.397-0.588,0.485-0.992c0.087-0.405,0.133-0.885,0.133-1.444v-1.056h-0.087c-0.296,0.425-0.669,0.753-1.125,0.98
				c-0.454,0.228-1.05,0.34-1.783,0.34c-1.486,0-2.574-0.462-3.272-1.386c-0.698-0.926-1.047-2.365-1.047-4.319
				c0-1.88,0.448-3.306,1.343-4.284c0.898-0.974,2.217-1.465,3.965-1.465c0.838,0,1.555,0.066,2.148,0.197
				c0.595,0.135,1.127,0.287,1.598,0.465V934.667z M713.512,932.859c0.749,0,1.336-0.186,1.763-0.562
				c0.424-0.373,0.727-0.958,0.903-1.75v-5.641c-0.588-0.278-1.336-0.416-2.245-0.416c-1.001,0-1.786,0.338-2.358,1.012
				c-0.574,0.675-0.86,1.734-0.86,3.172c0,0.617,0.051,1.182,0.155,1.696c0.102,0.516,0.264,0.956,0.485,1.323
				c0.219,0.368,0.505,0.653,0.858,0.859C712.566,932.756,712.999,932.859,713.512,932.859z"/>
			<path fill="#FFFFFF" d="M728.404,934.158v-6.277c0-1.145-0.166-2.008-0.495-2.588c-0.332-0.581-0.936-0.87-1.819-0.87
				c-0.779,0-1.419,0.21-1.927,0.629c-0.507,0.416-0.863,0.94-1.069,1.572v7.534h-1.762v-11.014h1.234l0.33,1.346h0.088
				c0.352-0.472,0.827-0.856,1.421-1.157c0.594-0.3,1.303-0.452,2.126-0.452c0.602,0,1.13,0.07,1.586,0.21
				c0.456,0.14,0.832,0.384,1.134,0.738c0.3,0.353,0.528,0.828,0.684,1.421c0.153,0.595,0.23,1.348,0.23,2.258v6.651H728.404z"/>
			<path fill="#FFFFFF" d="M741.423,933.278c-0.441,0.352-0.996,0.632-1.663,0.837c-0.669,0.205-1.377,0.308-2.125,0.308
				c-0.838,0-1.566-0.135-2.181-0.408c-0.618-0.271-1.124-0.661-1.522-1.168c-0.395-0.505-0.691-1.112-0.88-1.817
				c-0.191-0.704-0.286-1.497-0.286-2.378c0-1.88,0.417-3.313,1.257-4.295c0.835-0.984,2.032-1.477,3.588-1.477
				c0.5,0,0.999,0.056,1.498,0.166c0.5,0.11,0.949,0.319,1.346,0.628c0.394,0.309,0.717,0.746,0.968,1.312
				c0.249,0.565,0.375,1.308,0.375,2.234c0,0.484-0.045,1.02-0.133,1.609h-7.072c0,0.645,0.067,1.218,0.2,1.717
				c0.131,0.501,0.336,0.922,0.616,1.266c0.28,0.346,0.643,0.611,1.09,0.794c0.449,0.184,0.995,0.276,1.641,0.276
				c0.5,0,0.999-0.09,1.498-0.265c0.499-0.177,0.875-0.382,1.124-0.616L741.423,933.278z M737.635,924.423
				c-0.868,0-1.563,0.227-2.084,0.683c-0.521,0.457-0.834,1.235-0.935,2.335h5.462c0-1.116-0.213-1.898-0.638-2.346
				C739.015,924.647,738.412,924.423,737.635,924.423z"/>
			<path fill="#FFFFFF" d="M753.031,930.37c0,0.749,0.008,1.429,0.023,2.038c0.014,0.609,0.081,1.208,0.198,1.796h-1.19
				l-0.441-1.564h-0.088c-0.293,0.514-0.719,0.94-1.276,1.279c-0.559,0.336-1.212,0.505-1.962,0.505
				c-1.467,0-2.558-0.462-3.271-1.387c-0.712-0.926-1.067-2.372-1.067-4.341c0-1.88,0.443-3.306,1.333-4.284
				c0.888-0.974,2.109-1.465,3.666-1.465c0.544,0,0.974,0.03,1.29,0.088c0.314,0.059,0.656,0.154,1.024,0.287v-4.583h1.762V930.37z
				 M748.581,932.882c0.749,0,1.344-0.195,1.785-0.585c0.44-0.388,0.74-0.978,0.902-1.773v-5.463
				c-0.265-0.205-0.565-0.352-0.902-0.44c-0.338-0.089-0.786-0.132-1.344-0.132c-1.014,0-1.807,0.334-2.378,1
				c-0.573,0.67-0.861,1.738-0.861,3.206c0,0.603,0.05,1.16,0.143,1.674c0.096,0.516,0.253,0.956,0.475,1.323
				c0.218,0.368,0.51,0.658,0.87,0.871C747.631,932.775,748.067,932.882,748.581,932.882z"/>
			<path fill="#FFFFFF" d="M762.306,918.739h1.762v5.484h0.089c0.337-0.423,0.766-0.754,1.288-0.989
				c0.521-0.234,1.089-0.354,1.708-0.354c1.424,0,2.493,0.456,3.205,1.365c0.711,0.912,1.069,2.321,1.069,4.23
				c0,1.923-0.472,3.384-1.411,4.383c-0.94,0.999-2.262,1.499-3.965,1.499c-0.822,0-1.568-0.088-2.235-0.265
				c-0.669-0.175-1.172-0.367-1.509-0.573V918.739z M766.843,924.423c-0.734,0-1.329,0.205-1.783,0.617
				c-0.457,0.409-0.787,0.991-0.993,1.74v5.551c0.278,0.161,0.617,0.283,1.014,0.363c0.397,0.081,0.807,0.12,1.234,0.12
				c0.997,0,1.795-0.353,2.388-1.056c0.595-0.706,0.892-1.807,0.892-3.303c0-0.574-0.051-1.11-0.154-1.61
				c-0.104-0.499-0.264-0.924-0.484-1.279c-0.22-0.352-0.502-0.63-0.848-0.835C767.765,924.526,767.341,924.423,766.843,924.423z"/>
			<path fill="#FFFFFF" d="M777.184,930.282l0.62,2.114h0.111l0.486-2.136l2.144-7.117h1.762l-3.26,9.893
				c-0.25,0.717-0.496,1.418-0.737,2.091c-0.244,0.675-0.511,1.279-0.805,1.807c-0.293,0.529-0.626,0.95-0.991,1.267
				c-0.368,0.314-0.794,0.473-1.279,0.473c-0.528,0-0.96-0.074-1.299-0.22l0.308-1.52c0.191,0.071,0.375,0.11,0.551,0.11
				c0.41,0,0.807-0.217,1.191-0.651c0.381-0.433,0.696-1.178,0.946-2.236l-4.428-11.014h2.027L777.184,930.282z"/>
		</g>
	</g>
</g>
<g id="Layer_3">
</g>
</svg>
