<?xml version="1.0" encoding="UTF-8" standalone="no"?>
<!DOCTYPE svg PUBLIC "-//W3C//DTD SVG 1.1//EN"
 "http://www.w3.org/Graphics/SVG/1.1/DTD/svg11.dtd">
<!-- Generated by graphviz version 2.47.3 (20210619.1520)
 -->
<!-- Title: dependencies Pages: 1 -->
<svg width="490pt" height="174pt"
 viewBox="0.00 0.00 490.00 173.80" xmlns="http://www.w3.org/2000/svg" xmlns:xlink="http://www.w3.org/1999/xlink">
<g id="graph0" class="graph" transform="scale(1 1) rotate(0) translate(4 169.8)">
<title>dependencies</title>
<polygon fill="white" stroke="transparent" points="-4,4 -4,-169.8 486,-169.8 486,4 -4,4"/>
<text text-anchor="middle" x="241" y="-8.2" font-family="sans-serif" font-size="14.00">dependencies</text>
<g id="clust1" class="cluster">
<title>cluster_LakePageModule</title>
<polygon fill="none" stroke="black" stroke-dasharray="1,5" points="8,-32.8 8,-157.8 474,-157.8 474,-32.8 8,-32.8"/>
</g>
<g id="clust2" class="cluster">
<title>cluster_LakePageModule_declarations</title>
<polygon fill="none" stroke="black" points="200,-40.8 200,-92.8 466,-92.8 466,-40.8 200,-40.8"/>
</g>
<g id="clust5" class="cluster">
<title>cluster_LakePageModule_imports</title>
<polygon fill="none" stroke="black" points="16,-40.8 16,-92.8 192,-92.8 192,-40.8 16,-40.8"/>
</g>
<!-- LakePage -->
<g id="node1" class="node">
<title>LakePage</title>
<polygon fill="#ffffb3" stroke="black" points="457.69,-84.8 386.31,-84.8 386.31,-48.8 457.69,-48.8 457.69,-84.8"/>
<text text-anchor="middle" x="422" y="-62.6" font-family="Times,serif" font-size="14.00">LakePage</text>
</g>
<!-- LakePageModule -->
<g id="node3" class="node">
<title>LakePageModule</title>
<polygon fill="#8dd3c7" stroke="black" points="345.24,-149.8 342.24,-153.8 321.24,-153.8 318.24,-149.8 230.76,-149.8 230.76,-113.8 345.24,-113.8 345.24,-149.8"/>
<text text-anchor="middle" x="288" y="-127.6" font-family="Times,serif" font-size="14.00">LakePageModule</text>
</g>
<!-- LakePage&#45;&gt;LakePageModule -->
<g id="edge1" class="edge">
<title>LakePage&#45;&gt;LakePageModule</title>
<path fill="none" stroke="black" d="M422,-84.91C422,-104.14 422,-131.8 422,-131.8 422,-131.8 355.61,-131.8 355.61,-131.8"/>
<polygon fill="black" stroke="black" points="355.61,-128.3 345.61,-131.8 355.61,-135.3 355.61,-128.3"/>
</g>
<!-- LakeTrailcardComponent -->
<g id="node2" class="node">
<title>LakeTrailcardComponent</title>
<polygon fill="#ffffb3" stroke="black" points="368.11,-84.8 207.89,-84.8 207.89,-48.8 368.11,-48.8 368.11,-84.8"/>
<text text-anchor="middle" x="288" y="-62.6" font-family="Times,serif" font-size="14.00">LakeTrailcardComponent</text>
</g>
<!-- LakeTrailcardComponent&#45;&gt;LakePageModule -->
<g id="edge2" class="edge">
<title>LakeTrailcardComponent&#45;&gt;LakePageModule</title>
<path fill="none" stroke="black" d="M288,-84.91C288,-84.91 288,-103.79 288,-103.79"/>
<polygon fill="black" stroke="black" points="284.5,-103.79 288,-113.79 291.5,-103.79 284.5,-103.79"/>
</g>
<!-- LakePageRoutingModule -->
<g id="node4" class="node">
<title>LakePageRoutingModule</title>
<polygon fill="#8dd3c7" stroke="black" points="183.86,-84.8 180.86,-88.8 159.86,-88.8 156.86,-84.8 24.14,-84.8 24.14,-48.8 183.86,-48.8 183.86,-84.8"/>
<text text-anchor="middle" x="104" y="-62.6" font-family="Times,serif" font-size="14.00">LakePageRoutingModule</text>
</g>
<!-- LakePageRoutingModule&#45;&gt;LakePageModule -->
<g id="edge3" class="edge">
<title>LakePageRoutingModule&#45;&gt;LakePageModule</title>
<path fill="none" stroke="black" d="M104,-84.91C104,-104.14 104,-131.8 104,-131.8 104,-131.8 220.54,-131.8 220.54,-131.8"/>
<polygon fill="black" stroke="black" points="220.54,-135.3 230.54,-131.8 220.54,-128.3 220.54,-135.3"/>
</g>
</g>
</svg>
