<?xml version="1.0" encoding="UTF-8" standalone="no"?>
<!DOCTYPE svg PUBLIC "-//W3C//DTD SVG 1.1//EN"
 "http://www.w3.org/Graphics/SVG/1.1/DTD/svg11.dtd">
<!-- Generated by graphviz version 2.47.3 (20210619.1520)
 -->
<!-- Title: dependencies Pages: 1 -->
<svg width="312pt" height="174pt"
 viewBox="0.00 0.00 312.00 173.80" xmlns="http://www.w3.org/2000/svg" xmlns:xlink="http://www.w3.org/1999/xlink">
<g id="graph0" class="graph" transform="scale(1 1) rotate(0) translate(4 169.8)">
<title>dependencies</title>
<polygon fill="white" stroke="transparent" points="-4,4 -4,-169.8 308,-169.8 308,4 -4,4"/>
<text text-anchor="middle" x="152" y="-8.2" font-family="sans-serif" font-size="14.00">dependencies</text>
<g id="clust1" class="cluster">
<title>cluster_LakePageModule</title>
<polygon fill="none" stroke="black" stroke-dasharray="1,5" points="8,-32.8 8,-157.8 296,-157.8 296,-32.8 8,-32.8"/>
</g>
<g id="clust4" class="cluster">
<title>cluster_LakePageModule_imports</title>
<polygon fill="none" stroke="black" points="112,-40.8 112,-92.8 288,-92.8 288,-40.8 112,-40.8"/>
</g>
<g id="clust2" class="cluster">
<title>cluster_LakePageModule_declarations</title>
<polygon fill="none" stroke="black" points="16,-40.8 16,-92.8 104,-92.8 104,-40.8 16,-40.8"/>
</g>
<!-- LakePage -->
<g id="node1" class="node">
<title>LakePage</title>
<polygon fill="#ffffb3" stroke="black" points="95.69,-84.8 24.31,-84.8 24.31,-48.8 95.69,-48.8 95.69,-84.8"/>
<text text-anchor="middle" x="60" y="-62.6" font-family="Times,serif" font-size="14.00">LakePage</text>
</g>
<!-- LakePageModule -->
<g id="node2" class="node">
<title>LakePageModule</title>
<polygon fill="#8dd3c7" stroke="black" points="193.24,-149.8 190.24,-153.8 169.24,-153.8 166.24,-149.8 78.76,-149.8 78.76,-113.8 193.24,-113.8 193.24,-149.8"/>
<text text-anchor="middle" x="136" y="-127.6" font-family="Times,serif" font-size="14.00">LakePageModule</text>
</g>
<!-- LakePage&#45;&gt;LakePageModule -->
<g id="edge1" class="edge">
<title>LakePage&#45;&gt;LakePageModule</title>
<path fill="none" stroke="black" d="M87.11,-84.91C87.11,-84.91 87.11,-103.79 87.11,-103.79"/>
<polygon fill="black" stroke="black" points="83.61,-103.79 87.11,-113.79 90.61,-103.79 83.61,-103.79"/>
</g>
<!-- LakePageRoutingModule -->
<g id="node3" class="node">
<title>LakePageRoutingModule</title>
<polygon fill="#8dd3c7" stroke="black" points="279.86,-84.8 276.86,-88.8 255.86,-88.8 252.86,-84.8 120.14,-84.8 120.14,-48.8 279.86,-48.8 279.86,-84.8"/>
<text text-anchor="middle" x="200" y="-62.6" font-family="Times,serif" font-size="14.00">LakePageRoutingModule</text>
</g>
<!-- LakePageRoutingModule&#45;&gt;LakePageModule -->
<g id="edge2" class="edge">
<title>LakePageRoutingModule&#45;&gt;LakePageModule</title>
<path fill="none" stroke="black" d="M156.72,-84.91C156.72,-84.91 156.72,-103.79 156.72,-103.79"/>
<polygon fill="black" stroke="black" points="153.22,-103.79 156.72,-113.79 160.22,-103.79 153.22,-103.79"/>
</g>
</g>
</svg>
