<?xml version="1.0" encoding="UTF-8" standalone="no"?>
<!DOCTYPE svg PUBLIC "-//W3C//DTD SVG 1.1//EN"
 "http://www.w3.org/Graphics/SVG/1.1/DTD/svg11.dtd">
<!-- Generated by graphviz version 2.47.3 (20210619.1520)
 -->
<!-- Title: dependencies Pages: 1 -->
<svg width="226pt" height="174pt"
 viewBox="0.00 0.00 226.00 173.80" xmlns="http://www.w3.org/2000/svg" xmlns:xlink="http://www.w3.org/1999/xlink">
<g id="graph0" class="graph" transform="scale(1 1) rotate(0) translate(4 169.8)">
<title>dependencies</title>
<polygon fill="white" stroke="transparent" points="-4,4 -4,-169.8 222,-169.8 222,4 -4,4"/>
<text text-anchor="middle" x="109" y="-8.2" font-family="sans-serif" font-size="14.00">dependencies</text>
<g id="clust1" class="cluster">
<title>cluster_HomeComponentPageModule</title>
<polygon fill="none" stroke="black" stroke-dasharray="1,5" points="8,-32.8 8,-157.8 210,-157.8 210,-32.8 8,-32.8"/>
</g>
<g id="clust2" class="cluster">
<title>cluster_HomeComponentPageModule_declarations</title>
<polygon fill="none" stroke="black" points="30,-40.8 30,-92.8 188,-92.8 188,-40.8 30,-40.8"/>
</g>
<!-- HomeComponentPage -->
<g id="node1" class="node">
<title>HomeComponentPage</title>
<polygon fill="#ffffb3" stroke="black" points="180.26,-84.8 37.74,-84.8 37.74,-48.8 180.26,-48.8 180.26,-84.8"/>
<text text-anchor="middle" x="109" y="-62.6" font-family="Times,serif" font-size="14.00">HomeComponentPage</text>
</g>
<!-- HomeComponentPageModule -->
<g id="node2" class="node">
<title>HomeComponentPageModule</title>
<polygon fill="#8dd3c7" stroke="black" points="202.31,-149.8 199.31,-153.8 178.31,-153.8 175.31,-149.8 15.69,-149.8 15.69,-113.8 202.31,-113.8 202.31,-149.8"/>
<text text-anchor="middle" x="109" y="-127.6" font-family="Times,serif" font-size="14.00">HomeComponentPageModule</text>
</g>
<!-- HomeComponentPage&#45;&gt;HomeComponentPageModule -->
<g id="edge1" class="edge">
<title>HomeComponentPage&#45;&gt;HomeComponentPageModule</title>
<path fill="none" stroke="black" d="M109,-84.91C109,-84.91 109,-103.79 109,-103.79"/>
<polygon fill="black" stroke="black" points="105.5,-103.79 109,-113.79 112.5,-103.79 105.5,-103.79"/>
</g>
</g>
</svg>
