<?xml version="1.0" encoding="UTF-8" standalone="no"?>
<!DOCTYPE svg PUBLIC "-//W3C//DTD SVG 1.1//EN"
 "http://www.w3.org/Graphics/SVG/1.1/DTD/svg11.dtd">
<!-- Generated by graphviz version 2.47.3 (20210619.1520)
 -->
<!-- Title: dependencies Pages: 1 -->
<svg width="874pt" height="174pt"
 viewBox="0.00 0.00 874.00 173.80" xmlns="http://www.w3.org/2000/svg" xmlns:xlink="http://www.w3.org/1999/xlink">
<g id="graph0" class="graph" transform="scale(1 1) rotate(0) translate(4 169.8)">
<title>dependencies</title>
<polygon fill="white" stroke="transparent" points="-4,4 -4,-169.8 870,-169.8 870,4 -4,4"/>
<text text-anchor="middle" x="433" y="-8.2" font-family="sans-serif" font-size="14.00">dependencies</text>
<g id="clust1" class="cluster">
<title>cluster_HomeComponentPageModule</title>
<polygon fill="none" stroke="black" stroke-dasharray="1,5" points="8,-32.8 8,-157.8 858,-157.8 858,-32.8 8,-32.8"/>
</g>
<g id="clust2" class="cluster">
<title>cluster_HomeComponentPageModule_declarations</title>
<polygon fill="none" stroke="black" points="16,-40.8 16,-92.8 850,-92.8 850,-40.8 16,-40.8"/>
</g>
<!-- CategoryComponent -->
<g id="node1" class="node">
<title>CategoryComponent</title>
<polygon fill="#ffffb3" stroke="black" points="842.15,-84.8 709.85,-84.8 709.85,-48.8 842.15,-48.8 842.15,-84.8"/>
<text text-anchor="middle" x="776" y="-62.6" font-family="Times,serif" font-size="14.00">CategoryComponent</text>
</g>
<!-- HomeComponentPageModule -->
<g id="node6" class="node">
<title>HomeComponentPageModule</title>
<polygon fill="#8dd3c7" stroke="black" points="524.31,-149.8 521.31,-153.8 500.31,-153.8 497.31,-149.8 337.69,-149.8 337.69,-113.8 524.31,-113.8 524.31,-149.8"/>
<text text-anchor="middle" x="431" y="-127.6" font-family="Times,serif" font-size="14.00">HomeComponentPageModule</text>
</g>
<!-- CategoryComponent&#45;&gt;HomeComponentPageModule -->
<g id="edge1" class="edge">
<title>CategoryComponent&#45;&gt;HomeComponentPageModule</title>
<path fill="none" stroke="black" d="M776,-84.91C776,-104.14 776,-131.8 776,-131.8 776,-131.8 534.36,-131.8 534.36,-131.8"/>
<polygon fill="black" stroke="black" points="534.36,-128.3 524.36,-131.8 534.36,-135.3 534.36,-128.3"/>
</g>
<!-- CategoryvariantComponent -->
<g id="node2" class="node">
<title>CategoryvariantComponent</title>
<polygon fill="#ffffb3" stroke="black" points="691.52,-84.8 520.48,-84.8 520.48,-48.8 691.52,-48.8 691.52,-84.8"/>
<text text-anchor="middle" x="606" y="-62.6" font-family="Times,serif" font-size="14.00">CategoryvariantComponent</text>
</g>
<!-- CategoryvariantComponent&#45;&gt;HomeComponentPageModule -->
<g id="edge2" class="edge">
<title>CategoryvariantComponent&#45;&gt;HomeComponentPageModule</title>
<path fill="none" stroke="black" d="M520.39,-66.8C514.78,-66.8 511.31,-66.8 511.31,-66.8 511.31,-66.8 511.31,-103.69 511.31,-103.69"/>
<polygon fill="black" stroke="black" points="507.81,-103.69 511.31,-113.69 514.81,-103.69 507.81,-103.69"/>
</g>
<!-- HomeComponentPage -->
<g id="node3" class="node">
<title>HomeComponentPage</title>
<polygon fill="#ffffb3" stroke="black" points="502.26,-84.8 359.74,-84.8 359.74,-48.8 502.26,-48.8 502.26,-84.8"/>
<text text-anchor="middle" x="431" y="-62.6" font-family="Times,serif" font-size="14.00">HomeComponentPage</text>
</g>
<!-- HomeComponentPage&#45;&gt;HomeComponentPageModule -->
<g id="edge3" class="edge">
<title>HomeComponentPage&#45;&gt;HomeComponentPageModule</title>
<path fill="none" stroke="black" d="M431,-84.91C431,-84.91 431,-103.79 431,-103.79"/>
<polygon fill="black" stroke="black" points="427.5,-103.79 431,-113.79 434.5,-103.79 427.5,-103.79"/>
</g>
<!-- SavedTrailcardComponent -->
<g id="node4" class="node">
<title>SavedTrailcardComponent</title>
<polygon fill="#ffffb3" stroke="black" points="341.34,-84.8 174.66,-84.8 174.66,-48.8 341.34,-48.8 341.34,-84.8"/>
<text text-anchor="middle" x="258" y="-62.6" font-family="Times,serif" font-size="14.00">SavedTrailcardComponent</text>
</g>
<!-- SavedTrailcardComponent&#45;&gt;HomeComponentPageModule -->
<g id="edge4" class="edge">
<title>SavedTrailcardComponent&#45;&gt;HomeComponentPageModule</title>
<path fill="none" stroke="black" d="M341.65,-66.8C347.13,-66.8 350.52,-66.8 350.52,-66.8 350.52,-66.8 350.52,-103.69 350.52,-103.69"/>
<polygon fill="black" stroke="black" points="347.02,-103.69 350.52,-113.69 354.02,-103.69 347.02,-103.69"/>
</g>
<!-- TrailcardComponent -->
<g id="node5" class="node">
<title>TrailcardComponent</title>
<polygon fill="#ffffb3" stroke="black" points="156.13,-84.8 23.87,-84.8 23.87,-48.8 156.13,-48.8 156.13,-84.8"/>
<text text-anchor="middle" x="90" y="-62.6" font-family="Times,serif" font-size="14.00">TrailcardComponent</text>
</g>
<!-- TrailcardComponent&#45;&gt;HomeComponentPageModule -->
<g id="edge5" class="edge">
<title>TrailcardComponent&#45;&gt;HomeComponentPageModule</title>
<path fill="none" stroke="black" d="M90,-84.91C90,-104.14 90,-131.8 90,-131.8 90,-131.8 327.82,-131.8 327.82,-131.8"/>
<polygon fill="black" stroke="black" points="327.82,-135.3 337.82,-131.8 327.82,-128.3 327.82,-135.3"/>
</g>
</g>
</svg>
