<?xml version="1.0" encoding="UTF-8" standalone="no"?>
<!DOCTYPE svg PUBLIC "-//W3C//DTD SVG 1.1//EN"
 "http://www.w3.org/Graphics/SVG/1.1/DTD/svg11.dtd">
<!-- Generated by graphviz version 2.47.3 (20210619.1520)
 -->
<!-- Title: dependencies Pages: 1 -->
<svg width="344pt" height="174pt"
 viewBox="0.00 0.00 344.00 173.80" xmlns="http://www.w3.org/2000/svg" xmlns:xlink="http://www.w3.org/1999/xlink">
<g id="graph0" class="graph" transform="scale(1 1) rotate(0) translate(4 169.8)">
<title>dependencies</title>
<polygon fill="white" stroke="transparent" points="-4,4 -4,-169.8 340,-169.8 340,4 -4,4"/>
<text text-anchor="middle" x="168" y="-8.2" font-family="sans-serif" font-size="14.00">dependencies</text>
<g id="clust1" class="cluster">
<title>cluster_ExplorePageModule</title>
<polygon fill="none" stroke="black" stroke-dasharray="1,5" points="8,-32.8 8,-157.8 328,-157.8 328,-32.8 8,-32.8"/>
</g>
<g id="clust2" class="cluster">
<title>cluster_ExplorePageModule_declarations</title>
<polygon fill="none" stroke="black" points="216,-40.8 216,-92.8 320,-92.8 320,-40.8 216,-40.8"/>
</g>
<g id="clust4" class="cluster">
<title>cluster_ExplorePageModule_imports</title>
<polygon fill="none" stroke="black" points="16,-40.8 16,-92.8 208,-92.8 208,-40.8 16,-40.8"/>
</g>
<!-- ExplorePage -->
<g id="node1" class="node">
<title>ExplorePage</title>
<polygon fill="#ffffb3" stroke="black" points="311.53,-84.8 224.47,-84.8 224.47,-48.8 311.53,-48.8 311.53,-84.8"/>
<text text-anchor="middle" x="268" y="-62.6" font-family="Times,serif" font-size="14.00">ExplorePage</text>
</g>
<!-- ExplorePageModule -->
<g id="node2" class="node">
<title>ExplorePageModule</title>
<polygon fill="#8dd3c7" stroke="black" points="248.58,-149.8 245.58,-153.8 224.58,-153.8 221.58,-149.8 117.42,-149.8 117.42,-113.8 248.58,-113.8 248.58,-149.8"/>
<text text-anchor="middle" x="183" y="-127.6" font-family="Times,serif" font-size="14.00">ExplorePageModule</text>
</g>
<!-- ExplorePage&#45;&gt;ExplorePageModule -->
<g id="edge1" class="edge">
<title>ExplorePage&#45;&gt;ExplorePageModule</title>
<path fill="none" stroke="black" d="M236.39,-84.91C236.39,-84.91 236.39,-103.79 236.39,-103.79"/>
<polygon fill="black" stroke="black" points="232.89,-103.79 236.39,-113.79 239.89,-103.79 232.89,-103.79"/>
</g>
<!-- ExplorePageRoutingModule -->
<g id="node3" class="node">
<title>ExplorePageRoutingModule</title>
<polygon fill="#8dd3c7" stroke="black" points="200.2,-84.8 197.2,-88.8 176.2,-88.8 173.2,-84.8 23.8,-84.8 23.8,-48.8 200.2,-48.8 200.2,-84.8"/>
<text text-anchor="middle" x="112" y="-62.6" font-family="Times,serif" font-size="14.00">ExplorePageRoutingModule</text>
</g>
<!-- ExplorePageRoutingModule&#45;&gt;ExplorePageModule -->
<g id="edge2" class="edge">
<title>ExplorePageRoutingModule&#45;&gt;ExplorePageModule</title>
<path fill="none" stroke="black" d="M158.78,-84.91C158.78,-84.91 158.78,-103.79 158.78,-103.79"/>
<polygon fill="black" stroke="black" points="155.28,-103.79 158.78,-113.79 162.28,-103.79 155.28,-103.79"/>
</g>
</g>
</svg>
