<?xml version="1.0" encoding="UTF-8" standalone="no"?>
<!DOCTYPE svg PUBLIC "-//W3C//DTD SVG 1.1//EN"
 "http://www.w3.org/Graphics/SVG/1.1/DTD/svg11.dtd">
<!-- Generated by graphviz version 2.47.3 (20210619.1520)
 -->
<!-- Title: dependencies Pages: 1 -->
<svg width="2094pt" height="247pt"
 viewBox="0.00 0.00 2094.00 246.80" xmlns="http://www.w3.org/2000/svg" xmlns:xlink="http://www.w3.org/1999/xlink">
<g id="graph0" class="graph" transform="scale(1 1) rotate(0) translate(4 242.8)">
<title>dependencies</title>
<polygon fill="white" stroke="transparent" points="-4,4 -4,-242.8 2090,-242.8 2090,4 -4,4"/>
<text text-anchor="middle" x="1043" y="-8.2" font-family="sans-serif" font-size="14.00">dependencies</text>
<g id="clust1" class="cluster">
<title>cluster_AppModule</title>
<polygon fill="none" stroke="black" stroke-dasharray="1,5" points="8,-32.8 8,-230.8 298,-230.8 298,-32.8 8,-32.8"/>
</g>
<g id="clust2" class="cluster">
<title>cluster_AppModule_declarations</title>
<polygon fill="none" stroke="black" points="168,-40.8 168,-92.8 290,-92.8 290,-40.8 168,-40.8"/>
</g>
<g id="clust4" class="cluster">
<title>cluster_AppModule_imports</title>
<polygon fill="none" stroke="black" points="16,-40.8 16,-92.8 160,-92.8 160,-40.8 16,-40.8"/>
</g>
<g id="clust6" class="cluster">
<title>cluster_AppModule_bootstrap</title>
<polygon fill="none" stroke="black" points="96,-170.8 96,-222.8 220,-222.8 220,-170.8 96,-170.8"/>
</g>
<g id="clust14" class="cluster">
<title>cluster_ExplorePageModule</title>
<polygon fill="none" stroke="black" stroke-dasharray="1,5" points="306,-32.8 306,-157.8 626,-157.8 626,-32.8 306,-32.8"/>
</g>
<g id="clust15" class="cluster">
<title>cluster_ExplorePageModule_declarations</title>
<polygon fill="none" stroke="black" points="514,-40.8 514,-92.8 618,-92.8 618,-40.8 514,-40.8"/>
</g>
<g id="clust17" class="cluster">
<title>cluster_ExplorePageModule_imports</title>
<polygon fill="none" stroke="black" points="314,-40.8 314,-92.8 506,-92.8 506,-40.8 314,-40.8"/>
</g>
<g id="clust27" class="cluster">
<title>cluster_GalleryPageModule</title>
<polygon fill="none" stroke="black" stroke-dasharray="1,5" points="634,-32.8 634,-157.8 950,-157.8 950,-32.8 634,-32.8"/>
</g>
<g id="clust28" class="cluster">
<title>cluster_GalleryPageModule_declarations</title>
<polygon fill="none" stroke="black" points="840,-40.8 840,-92.8 942,-92.8 942,-40.8 840,-40.8"/>
</g>
<g id="clust30" class="cluster">
<title>cluster_GalleryPageModule_imports</title>
<polygon fill="none" stroke="black" points="642,-40.8 642,-92.8 832,-92.8 832,-40.8 642,-40.8"/>
</g>
<g id="clust40" class="cluster">
<title>cluster_HomeComponentPageModule</title>
<polygon fill="none" stroke="black" stroke-dasharray="1,5" points="958,-32.8 958,-157.8 1160,-157.8 1160,-32.8 958,-32.8"/>
</g>
<g id="clust41" class="cluster">
<title>cluster_HomeComponentPageModule_declarations</title>
<polygon fill="none" stroke="black" points="980,-40.8 980,-92.8 1138,-92.8 1138,-40.8 980,-40.8"/>
</g>
<g id="clust53" class="cluster">
<title>cluster_HomePageModule</title>
<polygon fill="none" stroke="black" stroke-dasharray="1,5" points="1168,-32.8 1168,-157.8 1468,-157.8 1468,-32.8 1168,-32.8"/>
</g>
<g id="clust54" class="cluster">
<title>cluster_HomePageModule_declarations</title>
<polygon fill="none" stroke="black" points="1366,-40.8 1366,-92.8 1460,-92.8 1460,-40.8 1366,-40.8"/>
</g>
<g id="clust56" class="cluster">
<title>cluster_HomePageModule_imports</title>
<polygon fill="none" stroke="black" points="1176,-40.8 1176,-92.8 1358,-92.8 1358,-40.8 1176,-40.8"/>
</g>
<g id="clust66" class="cluster">
<title>cluster_IndexPageModule</title>
<polygon fill="none" stroke="black" stroke-dasharray="1,5" points="1476,-32.8 1476,-157.8 1772,-157.8 1772,-32.8 1476,-32.8"/>
</g>
<g id="clust67" class="cluster">
<title>cluster_IndexPageModule_declarations</title>
<polygon fill="none" stroke="black" points="1672,-40.8 1672,-92.8 1764,-92.8 1764,-40.8 1672,-40.8"/>
</g>
<g id="clust69" class="cluster">
<title>cluster_IndexPageModule_imports</title>
<polygon fill="none" stroke="black" points="1484,-40.8 1484,-92.8 1664,-92.8 1664,-40.8 1484,-40.8"/>
</g>
<g id="clust79" class="cluster">
<title>cluster_LoginPageModule</title>
<polygon fill="none" stroke="black" stroke-dasharray="1,5" points="1780,-32.8 1780,-157.8 2078,-157.8 2078,-32.8 1780,-32.8"/>
</g>
<g id="clust80" class="cluster">
<title>cluster_LoginPageModule_declarations</title>
<polygon fill="none" stroke="black" points="1978,-40.8 1978,-92.8 2070,-92.8 2070,-40.8 1978,-40.8"/>
</g>
<g id="clust82" class="cluster">
<title>cluster_LoginPageModule_imports</title>
<polygon fill="none" stroke="black" points="1788,-40.8 1788,-92.8 1970,-92.8 1970,-40.8 1788,-40.8"/>
</g>
<!-- AppComponent -->
<g id="node1" class="node">
<title>AppComponent</title>
<polygon fill="#ffffb3" stroke="black" points="281.94,-84.8 176.06,-84.8 176.06,-48.8 281.94,-48.8 281.94,-84.8"/>
<text text-anchor="middle" x="229" y="-62.6" font-family="Times,serif" font-size="14.00">AppComponent</text>
</g>
<!-- AppModule -->
<g id="node2" class="node">
<title>AppModule</title>
<polygon fill="#8dd3c7" stroke="black" points="199.66,-149.8 196.66,-153.8 175.66,-153.8 172.66,-149.8 116.34,-149.8 116.34,-113.8 199.66,-113.8 199.66,-149.8"/>
<text text-anchor="middle" x="158" y="-127.6" font-family="Times,serif" font-size="14.00">AppModule</text>
</g>
<!-- AppComponent&#45;&gt;AppModule -->
<g id="edge1" class="edge">
<title>AppComponent&#45;&gt;AppModule</title>
<path fill="none" stroke="black" d="M188.05,-84.91C188.05,-84.91 188.05,-103.79 188.05,-103.79"/>
<polygon fill="black" stroke="black" points="184.55,-103.79 188.05,-113.79 191.55,-103.79 184.55,-103.79"/>
</g>
<!-- AppComponent  -->
<g id="node4" class="node">
<title>AppComponent </title>
<polygon fill="#80b1d3" stroke="black" points="212.44,-214.8 103.56,-214.8 103.56,-178.8 212.44,-178.8 212.44,-214.8"/>
<text text-anchor="middle" x="158" y="-192.6" font-family="Times,serif" font-size="14.00">AppComponent </text>
</g>
<!-- AppModule&#45;&gt;AppComponent  -->
<g id="edge3" class="edge">
<title>AppModule&#45;&gt;AppComponent </title>
<path fill="none" stroke="black" stroke-dasharray="1,5" d="M158,-149.91C158,-149.91 158,-168.79 158,-168.79"/>
<polygon fill="black" stroke="black" points="154.5,-168.79 158,-178.79 161.5,-168.79 154.5,-168.79"/>
</g>
<!-- AppRoutingModule -->
<g id="node3" class="node">
<title>AppRoutingModule</title>
<polygon fill="#8dd3c7" stroke="black" points="152.27,-84.8 149.27,-88.8 128.27,-88.8 125.27,-84.8 23.73,-84.8 23.73,-48.8 152.27,-48.8 152.27,-84.8"/>
<text text-anchor="middle" x="88" y="-62.6" font-family="Times,serif" font-size="14.00">AppRoutingModule</text>
</g>
<!-- AppRoutingModule&#45;&gt;AppModule -->
<g id="edge2" class="edge">
<title>AppRoutingModule&#45;&gt;AppModule</title>
<path fill="none" stroke="black" d="M134.28,-84.91C134.28,-84.91 134.28,-103.79 134.28,-103.79"/>
<polygon fill="black" stroke="black" points="130.78,-103.79 134.28,-113.79 137.78,-103.79 130.78,-103.79"/>
</g>
<!-- ExplorePage -->
<g id="node5" class="node">
<title>ExplorePage</title>
<polygon fill="#ffffb3" stroke="black" points="609.53,-84.8 522.47,-84.8 522.47,-48.8 609.53,-48.8 609.53,-84.8"/>
<text text-anchor="middle" x="566" y="-62.6" font-family="Times,serif" font-size="14.00">ExplorePage</text>
</g>
<!-- ExplorePageModule -->
<g id="node6" class="node">
<title>ExplorePageModule</title>
<polygon fill="#8dd3c7" stroke="black" points="546.58,-149.8 543.58,-153.8 522.58,-153.8 519.58,-149.8 415.42,-149.8 415.42,-113.8 546.58,-113.8 546.58,-149.8"/>
<text text-anchor="middle" x="481" y="-127.6" font-family="Times,serif" font-size="14.00">ExplorePageModule</text>
</g>
<!-- ExplorePage&#45;&gt;ExplorePageModule -->
<g id="edge4" class="edge">
<title>ExplorePage&#45;&gt;ExplorePageModule</title>
<path fill="none" stroke="black" d="M534.39,-84.91C534.39,-84.91 534.39,-103.79 534.39,-103.79"/>
<polygon fill="black" stroke="black" points="530.89,-103.79 534.39,-113.79 537.89,-103.79 530.89,-103.79"/>
</g>
<!-- ExplorePageRoutingModule -->
<g id="node7" class="node">
<title>ExplorePageRoutingModule</title>
<polygon fill="#8dd3c7" stroke="black" points="498.2,-84.8 495.2,-88.8 474.2,-88.8 471.2,-84.8 321.8,-84.8 321.8,-48.8 498.2,-48.8 498.2,-84.8"/>
<text text-anchor="middle" x="410" y="-62.6" font-family="Times,serif" font-size="14.00">ExplorePageRoutingModule</text>
</g>
<!-- ExplorePageRoutingModule&#45;&gt;ExplorePageModule -->
<g id="edge5" class="edge">
<title>ExplorePageRoutingModule&#45;&gt;ExplorePageModule</title>
<path fill="none" stroke="black" d="M456.78,-84.91C456.78,-84.91 456.78,-103.79 456.78,-103.79"/>
<polygon fill="black" stroke="black" points="453.28,-103.79 456.78,-113.79 460.28,-103.79 453.28,-103.79"/>
</g>
<!-- GalleryPage -->
<g id="node8" class="node">
<title>GalleryPage</title>
<polygon fill="#ffffb3" stroke="black" points="933.69,-84.8 848.31,-84.8 848.31,-48.8 933.69,-48.8 933.69,-84.8"/>
<text text-anchor="middle" x="891" y="-62.6" font-family="Times,serif" font-size="14.00">GalleryPage</text>
</g>
<!-- GalleryPageModule -->
<g id="node9" class="node">
<title>GalleryPageModule</title>
<polygon fill="#8dd3c7" stroke="black" points="871.24,-149.8 868.24,-153.8 847.24,-153.8 844.24,-149.8 742.76,-149.8 742.76,-113.8 871.24,-113.8 871.24,-149.8"/>
<text text-anchor="middle" x="807" y="-127.6" font-family="Times,serif" font-size="14.00">GalleryPageModule</text>
</g>
<!-- GalleryPage&#45;&gt;GalleryPageModule -->
<g id="edge6" class="edge">
<title>GalleryPage&#45;&gt;GalleryPageModule</title>
<path fill="none" stroke="black" d="M859.89,-84.91C859.89,-84.91 859.89,-103.79 859.89,-103.79"/>
<polygon fill="black" stroke="black" points="856.39,-103.79 859.89,-113.79 863.39,-103.79 856.39,-103.79"/>
</g>
<!-- GalleryPageRoutingModule -->
<g id="node10" class="node">
<title>GalleryPageRoutingModule</title>
<polygon fill="#8dd3c7" stroke="black" points="823.86,-84.8 820.86,-88.8 799.86,-88.8 796.86,-84.8 650.14,-84.8 650.14,-48.8 823.86,-48.8 823.86,-84.8"/>
<text text-anchor="middle" x="737" y="-62.6" font-family="Times,serif" font-size="14.00">GalleryPageRoutingModule</text>
</g>
<!-- GalleryPageRoutingModule&#45;&gt;GalleryPageModule -->
<g id="edge7" class="edge">
<title>GalleryPageRoutingModule&#45;&gt;GalleryPageModule</title>
<path fill="none" stroke="black" d="M783.28,-84.91C783.28,-84.91 783.28,-103.79 783.28,-103.79"/>
<polygon fill="black" stroke="black" points="779.78,-103.79 783.28,-113.79 786.78,-103.79 779.78,-103.79"/>
</g>
<!-- HomeComponentPage -->
<g id="node11" class="node">
<title>HomeComponentPage</title>
<polygon fill="#ffffb3" stroke="black" points="1130.26,-84.8 987.74,-84.8 987.74,-48.8 1130.26,-48.8 1130.26,-84.8"/>
<text text-anchor="middle" x="1059" y="-62.6" font-family="Times,serif" font-size="14.00">HomeComponentPage</text>
</g>
<!-- HomeComponentPageModule -->
<g id="node12" class="node">
<title>HomeComponentPageModule</title>
<polygon fill="#8dd3c7" stroke="black" points="1152.31,-149.8 1149.31,-153.8 1128.31,-153.8 1125.31,-149.8 965.69,-149.8 965.69,-113.8 1152.31,-113.8 1152.31,-149.8"/>
<text text-anchor="middle" x="1059" y="-127.6" font-family="Times,serif" font-size="14.00">HomeComponentPageModule</text>
</g>
<!-- HomeComponentPage&#45;&gt;HomeComponentPageModule -->
<g id="edge8" class="edge">
<title>HomeComponentPage&#45;&gt;HomeComponentPageModule</title>
<path fill="none" stroke="black" d="M1059,-84.91C1059,-84.91 1059,-103.79 1059,-103.79"/>
<polygon fill="black" stroke="black" points="1055.5,-103.79 1059,-113.79 1062.5,-103.79 1055.5,-103.79"/>
</g>
<!-- HomePage -->
<g id="node13" class="node">
<title>HomePage</title>
<polygon fill="#ffffb3" stroke="black" points="1451.92,-84.8 1374.08,-84.8 1374.08,-48.8 1451.92,-48.8 1451.92,-84.8"/>
<text text-anchor="middle" x="1413" y="-62.6" font-family="Times,serif" font-size="14.00">HomePage</text>
</g>
<!-- HomePageModule -->
<g id="node14" class="node">
<title>HomePageModule</title>
<polygon fill="#8dd3c7" stroke="black" points="1393.47,-149.8 1390.47,-153.8 1369.47,-153.8 1366.47,-149.8 1272.53,-149.8 1272.53,-113.8 1393.47,-113.8 1393.47,-149.8"/>
<text text-anchor="middle" x="1333" y="-127.6" font-family="Times,serif" font-size="14.00">HomePageModule</text>
</g>
<!-- HomePage&#45;&gt;HomePageModule -->
<g id="edge9" class="edge">
<title>HomePage&#45;&gt;HomePageModule</title>
<path fill="none" stroke="black" d="M1383.89,-84.91C1383.89,-84.91 1383.89,-103.79 1383.89,-103.79"/>
<polygon fill="black" stroke="black" points="1380.39,-103.79 1383.89,-113.79 1387.39,-103.79 1380.39,-103.79"/>
</g>
<!-- HomePageRoutingModule -->
<g id="node15" class="node">
<title>HomePageRoutingModule</title>
<polygon fill="#8dd3c7" stroke="black" points="1350.09,-84.8 1347.09,-88.8 1326.09,-88.8 1323.09,-84.8 1183.91,-84.8 1183.91,-48.8 1350.09,-48.8 1350.09,-84.8"/>
<text text-anchor="middle" x="1267" y="-62.6" font-family="Times,serif" font-size="14.00">HomePageRoutingModule</text>
</g>
<!-- HomePageRoutingModule&#45;&gt;HomePageModule -->
<g id="edge10" class="edge">
<title>HomePageRoutingModule&#45;&gt;HomePageModule</title>
<path fill="none" stroke="black" d="M1311.28,-84.91C1311.28,-84.91 1311.28,-103.79 1311.28,-103.79"/>
<polygon fill="black" stroke="black" points="1307.78,-103.79 1311.28,-113.79 1314.78,-103.79 1307.78,-103.79"/>
</g>
<!-- IndexPage -->
<g id="node16" class="node">
<title>IndexPage</title>
<polygon fill="#ffffb3" stroke="black" points="1755.59,-84.8 1680.41,-84.8 1680.41,-48.8 1755.59,-48.8 1755.59,-84.8"/>
<text text-anchor="middle" x="1718" y="-62.6" font-family="Times,serif" font-size="14.00">IndexPage</text>
</g>
<!-- IndexPageModule -->
<g id="node17" class="node">
<title>IndexPageModule</title>
<polygon fill="#8dd3c7" stroke="black" points="1698.14,-149.8 1695.14,-153.8 1674.14,-153.8 1671.14,-149.8 1579.86,-149.8 1579.86,-113.8 1698.14,-113.8 1698.14,-149.8"/>
<text text-anchor="middle" x="1639" y="-127.6" font-family="Times,serif" font-size="14.00">IndexPageModule</text>
</g>
<!-- IndexPage&#45;&gt;IndexPageModule -->
<g id="edge11" class="edge">
<title>IndexPage&#45;&gt;IndexPageModule</title>
<path fill="none" stroke="black" d="M1689.39,-84.91C1689.39,-84.91 1689.39,-103.79 1689.39,-103.79"/>
<polygon fill="black" stroke="black" points="1685.89,-103.79 1689.39,-113.79 1692.89,-103.79 1685.89,-103.79"/>
</g>
<!-- IndexPageRoutingModule -->
<g id="node18" class="node">
<title>IndexPageRoutingModule</title>
<polygon fill="#8dd3c7" stroke="black" points="1655.75,-84.8 1652.75,-88.8 1631.75,-88.8 1628.75,-84.8 1492.25,-84.8 1492.25,-48.8 1655.75,-48.8 1655.75,-84.8"/>
<text text-anchor="middle" x="1574" y="-62.6" font-family="Times,serif" font-size="14.00">IndexPageRoutingModule</text>
</g>
<!-- IndexPageRoutingModule&#45;&gt;IndexPageModule -->
<g id="edge12" class="edge">
<title>IndexPageRoutingModule&#45;&gt;IndexPageModule</title>
<path fill="none" stroke="black" d="M1617.78,-84.91C1617.78,-84.91 1617.78,-103.79 1617.78,-103.79"/>
<polygon fill="black" stroke="black" points="1614.28,-103.79 1617.78,-113.79 1621.28,-103.79 1614.28,-103.79"/>
</g>
<!-- LoginPage -->
<g id="node19" class="node">
<title>LoginPage</title>
<polygon fill="#ffffb3" stroke="black" points="2062.16,-84.8 1985.84,-84.8 1985.84,-48.8 2062.16,-48.8 2062.16,-84.8"/>
<text text-anchor="middle" x="2024" y="-62.6" font-family="Times,serif" font-size="14.00">LoginPage</text>
</g>
<!-- LoginPageModule -->
<g id="node20" class="node">
<title>LoginPageModule</title>
<polygon fill="#8dd3c7" stroke="black" points="2004.2,-149.8 2001.2,-153.8 1980.2,-153.8 1977.2,-149.8 1883.8,-149.8 1883.8,-113.8 2004.2,-113.8 2004.2,-149.8"/>
<text text-anchor="middle" x="1944" y="-127.6" font-family="Times,serif" font-size="14.00">LoginPageModule</text>
</g>
<!-- LoginPage&#45;&gt;LoginPageModule -->
<g id="edge13" class="edge">
<title>LoginPage&#45;&gt;LoginPageModule</title>
<path fill="none" stroke="black" d="M1994.89,-84.91C1994.89,-84.91 1994.89,-103.79 1994.89,-103.79"/>
<polygon fill="black" stroke="black" points="1991.39,-103.79 1994.89,-113.79 1998.39,-103.79 1991.39,-103.79"/>
</g>
<!-- LoginPageRoutingModule -->
<g id="node21" class="node">
<title>LoginPageRoutingModule</title>
<polygon fill="#8dd3c7" stroke="black" points="1961.82,-84.8 1958.82,-88.8 1937.82,-88.8 1934.82,-84.8 1796.18,-84.8 1796.18,-48.8 1961.82,-48.8 1961.82,-84.8"/>
<text text-anchor="middle" x="1879" y="-62.6" font-family="Times,serif" font-size="14.00">LoginPageRoutingModule</text>
</g>
<!-- LoginPageRoutingModule&#45;&gt;LoginPageModule -->
<g id="edge14" class="edge">
<title>LoginPageRoutingModule&#45;&gt;LoginPageModule</title>
<path fill="none" stroke="black" d="M1922.78,-84.91C1922.78,-84.91 1922.78,-103.79 1922.78,-103.79"/>
<polygon fill="black" stroke="black" points="1919.28,-103.79 1922.78,-113.79 1926.28,-103.79 1919.28,-103.79"/>
</g>
</g>
</svg>
