<?xml version="1.0" encoding="UTF-8" standalone="no"?>
<!DOCTYPE svg PUBLIC "-//W3C//DTD SVG 1.1//EN"
 "http://www.w3.org/Graphics/SVG/1.1/DTD/svg11.dtd">
<!-- Generated by graphviz version 2.47.3 (20210619.1520)
 -->
<!-- Title: dependencies Pages: 1 -->
<svg width="1884pt" height="247pt"
 viewBox="0.00 0.00 1884.00 246.80" xmlns="http://www.w3.org/2000/svg" xmlns:xlink="http://www.w3.org/1999/xlink">
<g id="graph0" class="graph" transform="scale(1 1) rotate(0) translate(4 242.8)">
<title>dependencies</title>
<polygon fill="white" stroke="transparent" points="-4,4 -4,-242.8 1880,-242.8 1880,4 -4,4"/>
<text text-anchor="middle" x="938" y="-8.2" font-family="sans-serif" font-size="14.00">dependencies</text>
<g id="clust1" class="cluster">
<title>cluster_AppModule</title>
<polygon fill="none" stroke="black" stroke-dasharray="1,5" points="8,-32.8 8,-230.8 298,-230.8 298,-32.8 8,-32.8"/>
</g>
<g id="clust2" class="cluster">
<title>cluster_AppModule_declarations</title>
<polygon fill="none" stroke="black" points="168,-40.8 168,-92.8 290,-92.8 290,-40.8 168,-40.8"/>
</g>
<g id="clust4" class="cluster">
<title>cluster_AppModule_imports</title>
<polygon fill="none" stroke="black" points="16,-40.8 16,-92.8 160,-92.8 160,-40.8 16,-40.8"/>
</g>
<g id="clust6" class="cluster">
<title>cluster_AppModule_bootstrap</title>
<polygon fill="none" stroke="black" points="96,-170.8 96,-222.8 220,-222.8 220,-170.8 96,-170.8"/>
</g>
<g id="clust14" class="cluster">
<title>cluster_ExplorePageModule</title>
<polygon fill="none" stroke="black" stroke-dasharray="1,5" points="306,-32.8 306,-157.8 626,-157.8 626,-32.8 306,-32.8"/>
</g>
<g id="clust15" class="cluster">
<title>cluster_ExplorePageModule_declarations</title>
<polygon fill="none" stroke="black" points="514,-40.8 514,-92.8 618,-92.8 618,-40.8 514,-40.8"/>
</g>
<g id="clust17" class="cluster">
<title>cluster_ExplorePageModule_imports</title>
<polygon fill="none" stroke="black" points="314,-40.8 314,-92.8 506,-92.8 506,-40.8 314,-40.8"/>
</g>
<g id="clust27" class="cluster">
<title>cluster_GalleryPageModule</title>
<polygon fill="none" stroke="black" stroke-dasharray="1,5" points="634,-32.8 634,-157.8 950,-157.8 950,-32.8 634,-32.8"/>
</g>
<g id="clust28" class="cluster">
<title>cluster_GalleryPageModule_declarations</title>
<polygon fill="none" stroke="black" points="840,-40.8 840,-92.8 942,-92.8 942,-40.8 840,-40.8"/>
</g>
<g id="clust30" class="cluster">
<title>cluster_GalleryPageModule_imports</title>
<polygon fill="none" stroke="black" points="642,-40.8 642,-92.8 832,-92.8 832,-40.8 642,-40.8"/>
</g>
<g id="clust40" class="cluster">
<title>cluster_HomePageModule</title>
<polygon fill="none" stroke="black" stroke-dasharray="1,5" points="958,-32.8 958,-157.8 1258,-157.8 1258,-32.8 958,-32.8"/>
</g>
<g id="clust41" class="cluster">
<title>cluster_HomePageModule_declarations</title>
<polygon fill="none" stroke="black" points="1156,-40.8 1156,-92.8 1250,-92.8 1250,-40.8 1156,-40.8"/>
</g>
<g id="clust43" class="cluster">
<title>cluster_HomePageModule_imports</title>
<polygon fill="none" stroke="black" points="966,-40.8 966,-92.8 1148,-92.8 1148,-40.8 966,-40.8"/>
</g>
<g id="clust53" class="cluster">
<title>cluster_IndexPageModule</title>
<polygon fill="none" stroke="black" stroke-dasharray="1,5" points="1266,-32.8 1266,-157.8 1562,-157.8 1562,-32.8 1266,-32.8"/>
</g>
<g id="clust54" class="cluster">
<title>cluster_IndexPageModule_declarations</title>
<polygon fill="none" stroke="black" points="1462,-40.8 1462,-92.8 1554,-92.8 1554,-40.8 1462,-40.8"/>
</g>
<g id="clust56" class="cluster">
<title>cluster_IndexPageModule_imports</title>
<polygon fill="none" stroke="black" points="1274,-40.8 1274,-92.8 1454,-92.8 1454,-40.8 1274,-40.8"/>
</g>
<g id="clust66" class="cluster">
<title>cluster_LoginPageModule</title>
<polygon fill="none" stroke="black" stroke-dasharray="1,5" points="1570,-32.8 1570,-157.8 1868,-157.8 1868,-32.8 1570,-32.8"/>
</g>
<g id="clust67" class="cluster">
<title>cluster_LoginPageModule_declarations</title>
<polygon fill="none" stroke="black" points="1768,-40.8 1768,-92.8 1860,-92.8 1860,-40.8 1768,-40.8"/>
</g>
<g id="clust69" class="cluster">
<title>cluster_LoginPageModule_imports</title>
<polygon fill="none" stroke="black" points="1578,-40.8 1578,-92.8 1760,-92.8 1760,-40.8 1578,-40.8"/>
</g>
<!-- AppComponent -->
<g id="node1" class="node">
<title>AppComponent</title>
<polygon fill="#ffffb3" stroke="black" points="281.94,-84.8 176.06,-84.8 176.06,-48.8 281.94,-48.8 281.94,-84.8"/>
<text text-anchor="middle" x="229" y="-62.6" font-family="Times,serif" font-size="14.00">AppComponent</text>
</g>
<!-- AppModule -->
<g id="node2" class="node">
<title>AppModule</title>
<polygon fill="#8dd3c7" stroke="black" points="199.66,-149.8 196.66,-153.8 175.66,-153.8 172.66,-149.8 116.34,-149.8 116.34,-113.8 199.66,-113.8 199.66,-149.8"/>
<text text-anchor="middle" x="158" y="-127.6" font-family="Times,serif" font-size="14.00">AppModule</text>
</g>
<!-- AppComponent&#45;&gt;AppModule -->
<g id="edge1" class="edge">
<title>AppComponent&#45;&gt;AppModule</title>
<path fill="none" stroke="black" d="M188.05,-84.91C188.05,-84.91 188.05,-103.79 188.05,-103.79"/>
<polygon fill="black" stroke="black" points="184.55,-103.79 188.05,-113.79 191.55,-103.79 184.55,-103.79"/>
</g>
<!-- AppComponent  -->
<g id="node4" class="node">
<title>AppComponent </title>
<polygon fill="#80b1d3" stroke="black" points="212.44,-214.8 103.56,-214.8 103.56,-178.8 212.44,-178.8 212.44,-214.8"/>
<text text-anchor="middle" x="158" y="-192.6" font-family="Times,serif" font-size="14.00">AppComponent </text>
</g>
<!-- AppModule&#45;&gt;AppComponent  -->
<g id="edge3" class="edge">
<title>AppModule&#45;&gt;AppComponent </title>
<path fill="none" stroke="black" stroke-dasharray="1,5" d="M158,-149.91C158,-149.91 158,-168.79 158,-168.79"/>
<polygon fill="black" stroke="black" points="154.5,-168.79 158,-178.79 161.5,-168.79 154.5,-168.79"/>
</g>
<!-- AppRoutingModule -->
<g id="node3" class="node">
<title>AppRoutingModule</title>
<polygon fill="#8dd3c7" stroke="black" points="152.27,-84.8 149.27,-88.8 128.27,-88.8 125.27,-84.8 23.73,-84.8 23.73,-48.8 152.27,-48.8 152.27,-84.8"/>
<text text-anchor="middle" x="88" y="-62.6" font-family="Times,serif" font-size="14.00">AppRoutingModule</text>
</g>
<!-- AppRoutingModule&#45;&gt;AppModule -->
<g id="edge2" class="edge">
<title>AppRoutingModule&#45;&gt;AppModule</title>
<path fill="none" stroke="black" d="M134.28,-84.91C134.28,-84.91 134.28,-103.79 134.28,-103.79"/>
<polygon fill="black" stroke="black" points="130.78,-103.79 134.28,-113.79 137.78,-103.79 130.78,-103.79"/>
</g>
<!-- ExplorePage -->
<g id="node5" class="node">
<title>ExplorePage</title>
<polygon fill="#ffffb3" stroke="black" points="609.53,-84.8 522.47,-84.8 522.47,-48.8 609.53,-48.8 609.53,-84.8"/>
<text text-anchor="middle" x="566" y="-62.6" font-family="Times,serif" font-size="14.00">ExplorePage</text>
</g>
<!-- ExplorePageModule -->
<g id="node6" class="node">
<title>ExplorePageModule</title>
<polygon fill="#8dd3c7" stroke="black" points="546.58,-149.8 543.58,-153.8 522.58,-153.8 519.58,-149.8 415.42,-149.8 415.42,-113.8 546.58,-113.8 546.58,-149.8"/>
<text text-anchor="middle" x="481" y="-127.6" font-family="Times,serif" font-size="14.00">ExplorePageModule</text>
</g>
<!-- ExplorePage&#45;&gt;ExplorePageModule -->
<g id="edge4" class="edge">
<title>ExplorePage&#45;&gt;ExplorePageModule</title>
<path fill="none" stroke="black" d="M534.39,-84.91C534.39,-84.91 534.39,-103.79 534.39,-103.79"/>
<polygon fill="black" stroke="black" points="530.89,-103.79 534.39,-113.79 537.89,-103.79 530.89,-103.79"/>
</g>
<!-- ExplorePageRoutingModule -->
<g id="node7" class="node">
<title>ExplorePageRoutingModule</title>
<polygon fill="#8dd3c7" stroke="black" points="498.2,-84.8 495.2,-88.8 474.2,-88.8 471.2,-84.8 321.8,-84.8 321.8,-48.8 498.2,-48.8 498.2,-84.8"/>
<text text-anchor="middle" x="410" y="-62.6" font-family="Times,serif" font-size="14.00">ExplorePageRoutingModule</text>
</g>
<!-- ExplorePageRoutingModule&#45;&gt;ExplorePageModule -->
<g id="edge5" class="edge">
<title>ExplorePageRoutingModule&#45;&gt;ExplorePageModule</title>
<path fill="none" stroke="black" d="M456.78,-84.91C456.78,-84.91 456.78,-103.79 456.78,-103.79"/>
<polygon fill="black" stroke="black" points="453.28,-103.79 456.78,-113.79 460.28,-103.79 453.28,-103.79"/>
</g>
<!-- GalleryPage -->
<g id="node8" class="node">
<title>GalleryPage</title>
<polygon fill="#ffffb3" stroke="black" points="933.69,-84.8 848.31,-84.8 848.31,-48.8 933.69,-48.8 933.69,-84.8"/>
<text text-anchor="middle" x="891" y="-62.6" font-family="Times,serif" font-size="14.00">GalleryPage</text>
</g>
<!-- GalleryPageModule -->
<g id="node9" class="node">
<title>GalleryPageModule</title>
<polygon fill="#8dd3c7" stroke="black" points="871.24,-149.8 868.24,-153.8 847.24,-153.8 844.24,-149.8 742.76,-149.8 742.76,-113.8 871.24,-113.8 871.24,-149.8"/>
<text text-anchor="middle" x="807" y="-127.6" font-family="Times,serif" font-size="14.00">GalleryPageModule</text>
</g>
<!-- GalleryPage&#45;&gt;GalleryPageModule -->
<g id="edge6" class="edge">
<title>GalleryPage&#45;&gt;GalleryPageModule</title>
<path fill="none" stroke="black" d="M859.89,-84.91C859.89,-84.91 859.89,-103.79 859.89,-103.79"/>
<polygon fill="black" stroke="black" points="856.39,-103.79 859.89,-113.79 863.39,-103.79 856.39,-103.79"/>
</g>
<!-- GalleryPageRoutingModule -->
<g id="node10" class="node">
<title>GalleryPageRoutingModule</title>
<polygon fill="#8dd3c7" stroke="black" points="823.86,-84.8 820.86,-88.8 799.86,-88.8 796.86,-84.8 650.14,-84.8 650.14,-48.8 823.86,-48.8 823.86,-84.8"/>
<text text-anchor="middle" x="737" y="-62.6" font-family="Times,serif" font-size="14.00">GalleryPageRoutingModule</text>
</g>
<!-- GalleryPageRoutingModule&#45;&gt;GalleryPageModule -->
<g id="edge7" class="edge">
<title>GalleryPageRoutingModule&#45;&gt;GalleryPageModule</title>
<path fill="none" stroke="black" d="M783.28,-84.91C783.28,-84.91 783.28,-103.79 783.28,-103.79"/>
<polygon fill="black" stroke="black" points="779.78,-103.79 783.28,-113.79 786.78,-103.79 779.78,-103.79"/>
</g>
<!-- HomePage -->
<g id="node11" class="node">
<title>HomePage</title>
<polygon fill="#ffffb3" stroke="black" points="1241.92,-84.8 1164.08,-84.8 1164.08,-48.8 1241.92,-48.8 1241.92,-84.8"/>
<text text-anchor="middle" x="1203" y="-62.6" font-family="Times,serif" font-size="14.00">HomePage</text>
</g>
<!-- HomePageModule -->
<g id="node12" class="node">
<title>HomePageModule</title>
<polygon fill="#8dd3c7" stroke="black" points="1183.47,-149.8 1180.47,-153.8 1159.47,-153.8 1156.47,-149.8 1062.53,-149.8 1062.53,-113.8 1183.47,-113.8 1183.47,-149.8"/>
<text text-anchor="middle" x="1123" y="-127.6" font-family="Times,serif" font-size="14.00">HomePageModule</text>
</g>
<!-- HomePage&#45;&gt;HomePageModule -->
<g id="edge8" class="edge">
<title>HomePage&#45;&gt;HomePageModule</title>
<path fill="none" stroke="black" d="M1173.89,-84.91C1173.89,-84.91 1173.89,-103.79 1173.89,-103.79"/>
<polygon fill="black" stroke="black" points="1170.39,-103.79 1173.89,-113.79 1177.39,-103.79 1170.39,-103.79"/>
</g>
<!-- HomePageRoutingModule -->
<g id="node13" class="node">
<title>HomePageRoutingModule</title>
<polygon fill="#8dd3c7" stroke="black" points="1140.09,-84.8 1137.09,-88.8 1116.09,-88.8 1113.09,-84.8 973.91,-84.8 973.91,-48.8 1140.09,-48.8 1140.09,-84.8"/>
<text text-anchor="middle" x="1057" y="-62.6" font-family="Times,serif" font-size="14.00">HomePageRoutingModule</text>
</g>
<!-- HomePageRoutingModule&#45;&gt;HomePageModule -->
<g id="edge9" class="edge">
<title>HomePageRoutingModule&#45;&gt;HomePageModule</title>
<path fill="none" stroke="black" d="M1101.28,-84.91C1101.28,-84.91 1101.28,-103.79 1101.28,-103.79"/>
<polygon fill="black" stroke="black" points="1097.78,-103.79 1101.28,-113.79 1104.78,-103.79 1097.78,-103.79"/>
</g>
<!-- IndexPage -->
<g id="node14" class="node">
<title>IndexPage</title>
<polygon fill="#ffffb3" stroke="black" points="1545.59,-84.8 1470.41,-84.8 1470.41,-48.8 1545.59,-48.8 1545.59,-84.8"/>
<text text-anchor="middle" x="1508" y="-62.6" font-family="Times,serif" font-size="14.00">IndexPage</text>
</g>
<!-- IndexPageModule -->
<g id="node15" class="node">
<title>IndexPageModule</title>
<polygon fill="#8dd3c7" stroke="black" points="1488.14,-149.8 1485.14,-153.8 1464.14,-153.8 1461.14,-149.8 1369.86,-149.8 1369.86,-113.8 1488.14,-113.8 1488.14,-149.8"/>
<text text-anchor="middle" x="1429" y="-127.6" font-family="Times,serif" font-size="14.00">IndexPageModule</text>
</g>
<!-- IndexPage&#45;&gt;IndexPageModule -->
<g id="edge10" class="edge">
<title>IndexPage&#45;&gt;IndexPageModule</title>
<path fill="none" stroke="black" d="M1479.39,-84.91C1479.39,-84.91 1479.39,-103.79 1479.39,-103.79"/>
<polygon fill="black" stroke="black" points="1475.89,-103.79 1479.39,-113.79 1482.89,-103.79 1475.89,-103.79"/>
</g>
<!-- IndexPageRoutingModule -->
<g id="node16" class="node">
<title>IndexPageRoutingModule</title>
<polygon fill="#8dd3c7" stroke="black" points="1445.75,-84.8 1442.75,-88.8 1421.75,-88.8 1418.75,-84.8 1282.25,-84.8 1282.25,-48.8 1445.75,-48.8 1445.75,-84.8"/>
<text text-anchor="middle" x="1364" y="-62.6" font-family="Times,serif" font-size="14.00">IndexPageRoutingModule</text>
</g>
<!-- IndexPageRoutingModule&#45;&gt;IndexPageModule -->
<g id="edge11" class="edge">
<title>IndexPageRoutingModule&#45;&gt;IndexPageModule</title>
<path fill="none" stroke="black" d="M1407.78,-84.91C1407.78,-84.91 1407.78,-103.79 1407.78,-103.79"/>
<polygon fill="black" stroke="black" points="1404.28,-103.79 1407.78,-113.79 1411.28,-103.79 1404.28,-103.79"/>
</g>
<!-- LoginPage -->
<g id="node17" class="node">
<title>LoginPage</title>
<polygon fill="#ffffb3" stroke="black" points="1852.16,-84.8 1775.84,-84.8 1775.84,-48.8 1852.16,-48.8 1852.16,-84.8"/>
<text text-anchor="middle" x="1814" y="-62.6" font-family="Times,serif" font-size="14.00">LoginPage</text>
</g>
<!-- LoginPageModule -->
<g id="node18" class="node">
<title>LoginPageModule</title>
<polygon fill="#8dd3c7" stroke="black" points="1794.2,-149.8 1791.2,-153.8 1770.2,-153.8 1767.2,-149.8 1673.8,-149.8 1673.8,-113.8 1794.2,-113.8 1794.2,-149.8"/>
<text text-anchor="middle" x="1734" y="-127.6" font-family="Times,serif" font-size="14.00">LoginPageModule</text>
</g>
<!-- LoginPage&#45;&gt;LoginPageModule -->
<g id="edge12" class="edge">
<title>LoginPage&#45;&gt;LoginPageModule</title>
<path fill="none" stroke="black" d="M1784.89,-84.91C1784.89,-84.91 1784.89,-103.79 1784.89,-103.79"/>
<polygon fill="black" stroke="black" points="1781.39,-103.79 1784.89,-113.79 1788.39,-103.79 1781.39,-103.79"/>
</g>
<!-- LoginPageRoutingModule -->
<g id="node19" class="node">
<title>LoginPageRoutingModule</title>
<polygon fill="#8dd3c7" stroke="black" points="1751.82,-84.8 1748.82,-88.8 1727.82,-88.8 1724.82,-84.8 1586.18,-84.8 1586.18,-48.8 1751.82,-48.8 1751.82,-84.8"/>
<text text-anchor="middle" x="1669" y="-62.6" font-family="Times,serif" font-size="14.00">LoginPageRoutingModule</text>
</g>
<!-- LoginPageRoutingModule&#45;&gt;LoginPageModule -->
<g id="edge13" class="edge">
<title>LoginPageRoutingModule&#45;&gt;LoginPageModule</title>
<path fill="none" stroke="black" d="M1712.78,-84.91C1712.78,-84.91 1712.78,-103.79 1712.78,-103.79"/>
<polygon fill="black" stroke="black" points="1709.28,-103.79 1712.78,-113.79 1716.28,-103.79 1709.28,-103.79"/>
</g>
</g>
</svg>
